<svg width="1440" height="429" viewBox="0 0 1440 429" fill="none" xmlns="http://www.w3.org/2000/svg">
<g opacity="0.3">
<path d="M486.505 428.892C479.401 428.892 472.487 428.542 465.843 427.843C451.908 426.376 439.033 423.364 427.577 418.89C415.263 414.083 404.463 407.533 395.474 399.422C377.409 383.12 368.371 363.596 359.629 344.715C357.912 341.008 356.136 337.174 354.334 333.455C342.034 308.103 326.441 285.896 306.669 265.565C267.227 225.009 211.758 190.397 146.257 165.471C70.5048 136.646 -10.9409 122.288 -83.0791 125.041C-125.478 126.66 -181.499 142.054 -206.537 168.345C-221.395 183.948 -222.593 201.264 -209.999 218.417L-210.249 218.489C-216.853 209.493 -219.73 200.475 -218.798 191.684C-217.944 183.62 -213.898 175.737 -206.773 168.255C-195.44 156.354 -176.751 145.806 -152.725 137.751C-130.524 130.308 -105.797 125.733 -83.0956 124.866C-45.3434 123.427 -5.19209 126.622 36.2425 134.365C73.8024 141.384 110.865 151.799 146.4 165.321C211.94 190.26 267.441 224.891 306.906 265.472C326.689 285.817 342.289 308.036 354.598 333.401C356.403 337.121 358.178 340.956 359.893 344.664C368.626 363.531 377.659 383.04 395.7 399.318C413.147 415.063 436.763 424.601 465.889 427.667C506.225 431.913 555.206 423.032 596.909 403.91C657.009 376.354 698.718 336.244 739.056 297.457C746.127 290.658 753.436 283.628 760.675 276.839C779.466 259.212 804.915 236.369 835.16 216.019C866.075 195.219 897.49 179.937 931.203 169.298C951.838 162.785 973.706 158.398 996.202 156.257C1016.98 154.279 1038.97 154.157 1061.57 155.89C1100.33 158.864 1142.09 167.264 1189.23 181.57C1282.06 209.74 1374.79 243.933 1464.84 283.2C1550.44 320.522 1634.38 362.754 1714.35 408.72L1714.16 408.848C1548.4 313.562 1371.75 237.148 1189.11 181.725C1085.93 150.413 1004.02 146.512 931.327 169.451C857.375 192.787 805.715 234.9 760.903 276.934C753.667 283.721 746.358 290.751 739.287 297.55C698.938 336.351 657.215 376.473 597.074 404.048C577.64 412.959 555.777 419.91 533.851 424.147C522.268 426.386 510.754 427.85 499.624 428.499C495.189 428.763 490.811 428.892 486.505 428.892Z" fill="#FFE492"/>
<path d="M493.451 419.224C475.336 419.224 458.556 417.058 443.56 412.783C426.839 408.016 412.409 400.628 400.669 390.828C399.63 389.96 398.6 389.062 397.605 388.158C379.732 371.926 370.293 352.657 361.167 334.021C359.32 330.255 357.413 326.359 355.478 322.579C343.956 300.071 330.081 280.234 313.057 261.937C310.96 259.684 308.789 257.426 306.599 255.228C266.577 215.02 210.658 180.846 144.887 156.4C68.5879 128.068 -13.0887 114.303 -85.0977 117.642C-127.189 119.615 -182.952 135.262 -208.096 161.351C-223.153 176.973 -224.856 194.323 -213.029 211.526L-213.282 211.595C-219.481 202.578 -222.029 193.543 -220.85 184.742C-219.767 176.659 -215.557 168.759 -208.333 161.261C-196.884 149.381 -178.25 138.821 -154.449 130.724C-132.452 123.24 -107.832 118.533 -85.1224 117.47C-47.4169 115.721 -7.22165 118.611 34.3448 126.057C71.9954 132.802 109.234 142.961 145.024 156.252C210.833 180.711 266.783 214.906 306.83 255.136C309.02 257.337 311.194 259.596 313.291 261.85C330.326 280.16 344.208 300.008 355.736 322.527C357.674 326.307 359.581 330.203 361.428 333.971C370.551 352.594 379.982 371.85 397.831 388.059C398.823 388.96 399.853 389.858 400.889 390.724C425.149 410.983 458.482 419.224 493.536 419.224C493.728 419.224 493.918 419.224 494.11 419.224C493.89 419.223 493.67 419.224 493.451 419.224ZM500.928 419.103C533.517 418.052 567.144 410.187 595.993 398.486C658.222 373.143 702.946 334 746.199 296.146C747.98 294.586 749.761 293.029 751.542 291.472C755.452 288.055 760.088 284.009 764.82 279.93C786.048 261.64 811.74 240.358 841.328 221.202C872.809 200.82 904.26 185.694 937.475 174.96C957.885 168.372 979.454 163.731 1001.58 161.166C1022.09 158.789 1043.75 158.118 1065.98 159.169C1104.37 160.986 1145.65 167.877 1192.18 180.235C1237.54 192.265 1274.84 203.59 1309.53 215.874C1358.69 233.293 1405.51 253.363 1444.84 270.698C1536.25 311.115 1625.95 357.008 1711.43 407.104L1711.25 407.23C1625.77 357.141 1536.08 311.251 1444.68 270.839C1405.36 253.507 1358.55 233.44 1309.4 216.026C1274.71 203.745 1237.43 192.424 1192.08 180.397C1090.72 153.475 1009.85 151.795 937.602 175.116C862.614 199.346 809.211 241.977 765.043 280.034C760.308 284.113 755.675 288.157 751.764 291.576C749.983 293.131 748.203 294.69 746.422 296.25C703.154 334.116 658.414 373.272 596.141 398.635C580.7 404.897 564.27 409.871 547.303 413.418C531.511 416.716 515.943 418.624 500.928 419.103Z" fill="#FFE492"/>
<path d="M501.109 409.778C498.93 409.778 496.764 409.749 494.615 409.688C476.517 409.186 459.768 406.578 444.835 401.933C428.504 396.853 414.354 389.33 402.782 379.569C401.754 378.699 400.729 377.8 399.74 376.895C382.068 360.743 372.235 341.731 362.73 323.347C360.749 319.515 358.699 315.552 356.621 311.707C344.53 289.275 330.29 269.597 313.081 251.546C310.952 249.314 308.748 247.076 306.525 244.894C265.923 205.037 209.553 171.301 143.512 147.335C66.6696 119.495 -15.2378 106.322 -87.1205 110.248C-127.593 112.494 -183.194 127.248 -209.63 154.333C-224.903 169.981 -227.126 187.378 -216.06 204.641L-216.316 204.705C-222.114 195.661 -224.326 186.604 -222.897 177.788C-221.584 169.679 -217.198 161.758 -209.863 154.243C-198.294 142.39 -179.72 131.827 -156.148 123.692C-134.356 116.172 -109.849 111.337 -87.1452 110.077C-49.4836 108.022 -9.24442 110.604 32.4512 117.753C70.1953 124.226 107.607 134.128 143.65 147.187C209.729 171.168 266.129 204.923 306.756 244.803C308.979 246.986 311.185 249.225 313.315 251.46C330.531 269.521 344.78 289.211 356.877 311.655C358.954 315.502 361.004 319.465 362.985 323.297C372.488 341.671 382.312 360.669 399.963 376.802C400.952 377.707 401.972 378.604 402.999 379.471C450.021 419.131 533.352 414.873 595.075 393.061C659.9 369.952 708.076 331.542 754.666 294.398L755.144 294.017C759.656 290.416 764.322 286.695 768.966 283.02C817.972 244.254 871.836 204.413 943.751 180.62C963.941 173.954 985.213 169.059 1006.97 166.072C1027.21 163.293 1048.55 162.072 1070.39 162.445C1108.48 163.094 1149.28 168.476 1195.13 178.898C1243.32 189.811 1279.59 199.843 1312.72 211.426C1359.92 227.963 1405.64 248.86 1445.98 267.298C1535.8 308.569 1624.13 355.061 1708.52 405.48L1708.33 405.604C1623.95 355.191 1535.63 308.704 1445.82 267.436C1405.49 249.002 1359.77 228.108 1312.58 211.577C1279.47 199.997 1243.21 189.968 1195.04 179.058C1095.65 156.468 1015.84 157.012 943.878 180.77C872.009 204.548 818.167 244.371 769.181 283.124C764.537 286.799 759.87 290.522 755.358 294.12L754.88 294.502C731.662 313.012 707.655 332.152 681.731 349.248C652.596 368.46 624.294 382.84 595.207 393.208C564.775 403.961 531.626 409.778 501.109 409.778Z" fill="#FFE492"/>
<path d="M1705.42 403.976C1622.13 353.238 1535.18 306.154 1446.97 264.032C1443.23 262.261 1439.49 260.481 1435.73 258.697C1397.53 240.535 1358.02 221.756 1315.77 207.126C1274.78 192.973 1233.24 184.319 1198.01 177.72C1100.77 159.393 1022.01 162.16 950.162 186.424C876.403 211.407 819.249 252.885 773.327 286.215C770.571 288.215 767.82 290.219 765.064 292.225C763.03 293.706 760.994 295.186 758.958 296.666C732.811 315.662 709.026 332.646 682.747 348.144C652.725 365.848 623.788 378.814 594.278 387.784C566.621 396.192 537.078 400.64 509.597 400.642C504.59 400.642 499.658 400.495 494.81 400.196C477.113 399.107 460.729 396.047 446.115 391.1C430.169 385.703 416.299 378.036 404.887 368.311C403.867 367.44 402.851 366.539 401.867 365.633C384.403 349.565 374.189 330.82 364.312 312.694C362.185 308.789 359.984 304.75 357.758 300.831C345.09 278.47 330.482 258.949 313.103 241.15C310.94 238.935 308.701 236.717 306.447 234.555C265.263 195.048 208.445 161.751 142.138 138.263C64.7512 110.914 -17.3843 98.3364 -89.1405 102.845C-138.195 105.988 -188.358 124.26 -211.128 147.276C-226.64 162.957 -229.391 180.409 -219.089 197.745L-219.347 197.806C-224.741 188.729 -226.621 179.644 -224.934 170.805C-223.381 162.667 -218.814 154.721 -211.361 147.185C-199.671 135.367 -181.158 124.803 -157.822 116.639C-136.239 109.088 -111.858 104.127 -89.168 102.674C-51.5504 100.309 -11.27 102.586 30.5548 109.438C68.3895 115.638 105.98 125.285 142.275 138.111C208.624 161.613 265.472 194.928 306.681 234.46C308.937 236.624 311.177 238.844 313.34 241.058C330.729 258.867 345.343 278.399 358.019 300.77C360.245 304.692 362.447 308.729 364.574 312.635C374.444 330.751 384.653 349.484 402.095 365.533C403.079 366.437 404.093 367.336 405.109 368.206C454.197 410.035 537.63 404.81 594.159 387.627C661.604 367.126 713.214 329.633 758.752 296.552C760.788 295.071 762.822 293.59 764.858 292.111C767.611 290.105 770.365 288.101 773.121 286.101C799.335 267.076 825.221 248.589 853.679 231.553C886.405 211.961 917.925 197.15 950.036 186.272C970.014 179.525 990.984 174.377 1012.37 170.971C1032.35 167.787 1053.36 166.019 1074.82 165.715C1112.66 165.18 1152.98 169.054 1198.1 177.554C1233.34 184.156 1274.9 192.814 1315.9 206.976C1358.17 221.611 1397.69 240.395 1435.9 258.56C1439.66 260.345 1443.4 262.124 1447.14 263.895C1535.36 306.021 1622.32 353.11 1705.61 403.854L1705.42 403.976Z" fill="#FFE492"/>
<path d="M1702.51 402.35C1618.75 350.318 1533.16 302.634 1448.12 260.628C1443.03 258.115 1437.82 255.524 1432.79 253.02C1396.73 235.083 1359.45 216.535 1318.95 202.677C1278.52 188.887 1236.63 181.645 1200.98 176.381C1106.11 162.232 1028.4 167.221 956.444 192.079C887.81 215.876 834.039 251.66 782.039 286.265L776.328 290.064C771.819 293.065 767.155 296.167 762.558 299.21C710.505 333.617 658.397 365.864 593.349 382.358C577.564 386.361 561.356 389.134 545.171 390.607C527.789 392.186 510.906 392.208 494.986 390.672C477.696 389.003 461.683 385.498 447.393 380.252C431.842 374.544 418.251 366.737 407 357.051C405.986 356.174 404.978 355.271 404.002 354.367C386.753 338.394 376.17 319.926 365.937 302.065C363.653 298.079 361.29 293.958 358.905 289.955C345.648 267.663 330.677 248.299 313.134 230.756C310.941 228.564 308.668 226.363 306.379 224.217C264.615 185.061 207.349 152.202 140.77 129.193C62.8359 102.339 -19.5304 90.3536 -91.163 95.4471C-139.77 98.9769 -189.704 117.376 -212.59 140.193C-228.36 155.913 -231.655 173.433 -222.12 190.857L-222.381 190.914C-227.371 181.797 -228.913 172.678 -226.964 163.813C-225.167 155.641 -220.41 147.663 -212.826 140.103C-201.009 128.325 -182.562 117.772 -159.473 109.583C-138.105 102.004 -113.856 96.9246 -91.1959 95.278C-53.6223 92.6061 -13.3006 94.5755 28.6561 101.131C66.5842 107.058 104.347 116.448 140.899 129.043C207.516 152.064 264.815 184.943 306.604 224.123C308.893 226.27 311.169 228.472 313.362 230.664C330.916 248.216 345.895 267.591 359.157 289.895C361.543 293.897 363.906 298.021 366.19 302.006C376.418 319.857 386.995 338.317 404.225 354.27C405.198 355.171 406.206 356.072 407.217 356.949C455.124 398.196 534.723 397.038 593.242 382.199C658.238 365.719 710.324 333.484 762.355 299.093C766.952 296.05 771.615 292.948 776.125 289.946L781.835 286.147C807.362 269.162 833.754 251.596 862.418 235.255C894.883 216.749 925.595 202.577 956.307 191.927C976.082 185.095 996.755 179.693 1017.75 175.871C1037.49 172.278 1058.17 169.962 1079.23 168.986C1116.9 167.241 1156.75 169.606 1201.05 176.211C1236.71 181.479 1278.62 188.723 1319.08 202.525C1359.6 216.388 1396.89 234.941 1432.96 252.883C1437.99 255.388 1443.2 257.977 1448.28 260.492C1533.34 302.501 1618.93 350.188 1702.7 402.226L1702.51 402.35Z" fill="#FFE492"/>
<path d="M1699.59 400.726C1616.56 348.115 1532.33 299.834 1449.26 257.227C1443.02 254.026 1436.62 250.696 1430.43 247.477C1396.32 229.733 1361.05 211.386 1322.14 198.232C1281.89 184.679 1239.81 178.905 1203.96 175.046C1111.71 164.964 1035.05 172.176 962.724 197.738C899.602 220.14 847.777 251.889 797.656 282.591C792.382 285.822 786.927 289.162 781.613 292.399C775.372 296.199 770.604 299.087 766.155 301.759C742.327 316.061 713.957 332.529 684.185 346.226C652.635 360.741 622.618 370.786 592.417 376.938C576.536 380.172 560.397 382.212 544.445 383C527.317 383.845 510.732 383.224 495.157 381.151C478.281 378.905 462.642 374.954 448.668 369.409C433.516 363.395 420.207 355.449 409.111 345.793C408.111 344.918 407.107 344.014 406.135 343.106C389.113 327.24 378.176 309.056 367.596 291.472C365.143 287.393 362.606 283.176 360.048 279.081C346.195 256.851 330.858 237.646 313.158 220.363C310.932 218.19 308.627 216.01 306.305 213.882C263.961 175.075 206.244 142.655 139.396 120.124C60.9205 93.7638 -21.6766 82.3737 -93.1828 88.0489C-133.87 91.3491 -187.011 106.552 -214.013 133.074C-230.067 148.843 -233.92 166.442 -225.151 183.966L-225.412 184.018C-229.998 174.854 -231.196 165.696 -228.976 156.797C-226.926 148.582 -221.971 140.57 -214.244 132.981C-202.301 121.251 -183.922 110.715 -161.089 102.51C-139.935 94.9082 -115.832 89.7128 -93.2157 87.878C-55.6861 84.8989 -15.3204 86.5611 26.7627 92.8197C64.7815 98.4741 102.721 107.608 139.525 119.972C206.412 142.515 264.161 174.954 306.53 213.783C308.852 215.911 311.16 218.095 313.386 220.27C331.095 237.561 346.439 256.777 360.3 279.017C362.862 283.114 365.398 287.331 367.852 291.41C378.424 308.986 389.358 327.159 406.36 343.007C407.333 343.914 408.333 344.816 409.333 345.69C449.188 380.372 517.6 391.992 592.332 376.77C660.01 362.986 715.218 332.092 765.966 301.631C770.415 298.959 775.18 296.072 781.42 292.271C786.735 289.035 792.19 285.695 797.463 282.464C822.138 267.349 847.65 251.72 874.864 237.085C905.636 220.534 934.334 207.613 962.592 197.584C982.177 190.663 1002.55 185.007 1023.14 180.775C1042.65 176.765 1063.01 173.902 1083.65 172.26C1121.23 169.274 1160.6 170.128 1204 174.872C1239.88 178.734 1281.99 184.51 1322.27 198.075C1361.2 211.237 1396.48 229.59 1430.6 247.339C1436.79 250.558 1443.19 253.887 1449.44 257.089C1532.51 299.701 1616.74 347.985 1699.79 400.6L1699.59 400.726Z" fill="#FFE492"/>
<path d="M1696.68 399.101C1614.36 345.908 1531.5 297.029 1450.4 253.824C1443.5 250.15 1436.42 246.292 1429.57 242.562C1396.92 224.794 1363.17 206.423 1325.32 193.783C1285.04 180.392 1242.87 176.12 1206.93 173.707C1118.86 167.637 1041.03 177.348 969.002 203.393C911.648 224.226 862.483 252.097 814.937 279.05C805.333 284.494 795.404 290.124 785.75 295.491C779.845 298.775 774.613 301.66 769.749 304.307C747.13 316.607 717.042 332.378 684.89 345.266C652.584 358.215 622.029 366.802 591.479 371.515C558.16 376.657 524.906 376.695 495.315 371.628C478.863 368.809 463.595 364.414 449.934 358.565C435.186 352.249 422.16 344.165 411.215 334.539C410.223 333.662 409.228 332.756 408.261 331.848C391.481 316.103 380.203 298.218 369.299 280.923C366.661 276.739 363.935 272.414 361.185 268.211C346.724 246.04 331.022 226.99 313.179 209.975C310.921 207.821 308.582 205.66 306.227 203.55C263.303 165.094 205.138 133.111 138.021 111.061C59.0043 85.1967 -23.8236 74.4004 -95.2061 80.6572C-143.582 84.9896 -191.884 103.182 -215.396 125.924C-231.758 141.75 -236.179 159.44 -228.183 177.082L-228.446 177.128C-232.626 167.91 -233.478 158.703 -230.98 149.766C-228.672 141.505 -223.505 133.451 -215.627 125.829C-203.558 114.154 -185.25 103.643 -162.684 95.4303C-141.752 87.8133 -117.8 82.5041 -95.2446 80.4846C-57.7589 77.1983 -17.3493 78.5549 24.863 84.5149C62.9752 89.8967 101.09 98.7753 138.147 110.906C205.303 132.97 263.501 164.97 306.452 203.45C308.807 205.56 311.146 207.722 313.407 209.878C331.259 226.904 346.969 245.962 361.437 268.144C364.188 272.346 366.914 276.674 369.552 280.857C380.451 298.144 391.723 316.02 408.486 331.749C409.453 332.657 410.445 333.56 411.438 334.437C450.608 368.895 517.887 382.693 591.413 371.348C658.443 361.004 716.651 332.951 769.567 304.178C774.428 301.53 779.663 298.648 785.566 295.363C795.217 289.997 805.149 284.368 814.75 278.924C862.307 251.965 911.48 224.088 968.862 203.247C988.274 196.227 1008.35 190.319 1028.53 185.683C1047.83 181.25 1067.86 177.838 1088.06 175.54C1125.63 171.268 1164.52 170.614 1206.95 173.538C1242.92 175.953 1285.13 180.227 1325.44 193.633C1363.32 206.281 1397.09 224.66 1429.75 242.434C1436.6 246.164 1443.68 250.02 1450.58 253.695C1531.69 296.903 1614.55 345.785 1696.87 398.982L1696.68 399.101Z" fill="#FFE492"/>
<path d="M1693.76 397.474C1612.18 343.694 1530.69 294.219 1451.55 250.421C1444.28 246.396 1436.8 242.134 1429.56 238.013C1398.11 220.095 1365.59 201.566 1328.5 189.334C1288.06 176.057 1245.85 173.307 1209.89 172.368C1125.16 169.993 1048.41 181.991 975.282 209.048C923.995 228.114 878.277 252.244 834.061 275.578C818.859 283.602 804.498 291.181 789.892 298.581C783.951 301.593 778.54 304.299 773.346 306.852C739.834 323.31 711.953 335.209 685.599 344.298C652.538 355.702 621.447 362.83 590.548 366.089C578.561 367.353 566.618 367.983 554.893 367.983C534.107 367.983 513.994 366.008 495.478 362.097C461.969 355.018 434.329 341.958 413.326 323.277C412.337 322.391 411.35 321.485 410.394 320.581C393.87 304.972 382.276 287.405 371.064 270.414C368.223 266.109 365.288 261.659 362.328 257.332C347.25 235.213 331.179 216.322 313.207 199.577C310.915 197.442 308.544 195.3 306.156 193.21C262.652 155.105 204.037 123.56 136.65 101.988C57.0921 76.6204 -25.964 66.4162 -97.2228 73.2547C-145.8 78.0134 -192.708 95.8605 -216.723 118.723C-233.417 134.615 -238.424 152.41 -231.208 170.187L-231.474 170.23C-235.242 160.947 -235.742 151.685 -232.958 142.701C-230.381 134.385 -224.997 126.287 -216.951 118.629C-204.756 107.018 -186.528 96.5405 -164.236 88.3281C-143.53 80.6991 -119.746 75.2862 -97.2641 73.0838C-59.8223 69.4902 -19.3688 70.5397 22.9699 76.2027C61.1756 81.3135 99.4637 89.9368 136.776 101.833C204.202 123.418 262.85 154.98 306.381 193.108C308.769 195.2 311.141 197.342 313.435 199.479C331.418 216.232 347.497 235.134 362.581 257.261C365.541 261.589 368.478 266.04 371.317 270.345C382.523 287.327 394.112 304.888 410.622 320.482C411.578 321.385 412.562 322.291 413.551 323.175C452.771 358.061 517.267 373.641 590.502 365.917C660.216 358.564 721.964 331.864 773.176 306.714C778.367 304.161 783.778 301.456 789.719 298.444C804.322 291.045 818.683 283.468 833.885 275.443C878.106 252.104 923.836 227.971 975.141 208.898C994.408 201.77 1014.18 195.608 1033.92 190.581C1053.03 185.714 1072.74 181.753 1092.48 178.81C1130.13 173.199 1168.54 171.034 1209.9 172.194C1245.89 173.133 1288.14 175.886 1328.63 189.178C1365.74 201.419 1398.28 219.957 1429.75 237.882C1436.98 242.003 1444.46 246.265 1451.73 250.288C1530.87 294.09 1612.37 343.57 1693.96 397.353L1693.76 397.474Z" fill="#FFE492"/>
<path d="M1690.85 395.848C1608.86 340.712 1530.96 292.029 1452.7 247.018C1445.23 242.724 1437.88 238.338 1430.09 233.695C1399.66 215.544 1368.2 196.777 1331.68 184.886C1290.73 171.615 1246.67 170.51 1212.86 171.031C1131.98 172.115 1056.32 186.402 981.561 214.707C936.705 231.772 895.29 252.265 855.237 272.085C834.188 282.502 814.306 292.338 794.031 301.674C788.013 304.448 782.42 306.975 776.941 309.4C742.973 324.41 714.173 335.19 686.303 343.33C652.475 353.21 620.848 358.88 589.614 360.665C573.566 361.581 557.627 361.409 542.241 360.152C525.951 358.821 510.271 356.269 495.637 352.566C463.202 344.359 436.22 330.718 415.436 312.02C414.455 311.133 413.477 310.225 412.526 309.321C396.28 293.873 384.395 276.64 372.9 259.975C369.833 255.529 366.662 250.931 363.471 246.46C347.761 224.39 331.328 205.655 313.232 189.187C310.905 187.071 308.5 184.948 306.085 182.877C262.001 145.122 202.938 114.015 135.282 92.9216C72.8357 73.5331 8.43863 63.4169 -50.6135 63.4169C-67.3077 63.4169 -83.5622 64.2246 -99.2397 65.8592C-147.231 70.9613 -193.846 88.8723 -218.001 111.49C-235.049 127.456 -240.664 145.372 -234.236 163.3L-234.505 163.338C-237.861 153.983 -238.001 144.658 -234.923 135.622C-232.071 127.245 -226.454 119.093 -218.232 111.394C-205.909 99.855 -187.767 89.4212 -165.761 81.2174C-144.989 73.4727 -122.001 68.103 -99.2891 65.69C-61.8914 61.7892 -21.3938 62.5331 21.074 67.8976C59.3704 72.734 97.8371 81.1 135.403 92.7645C203.097 113.87 262.196 144.994 306.307 182.772C308.725 184.843 311.133 186.968 313.46 189.086C331.564 205.562 348.006 224.305 363.724 246.386C366.915 250.857 370.089 255.455 373.155 259.903C384.645 276.561 396.525 293.786 412.757 309.222C413.708 310.125 414.686 311.033 415.664 311.918C454.53 346.882 517.921 364.585 589.592 360.49C662.115 356.346 727.727 330.932 776.787 309.255C782.266 306.83 787.856 304.303 793.874 301.531C814.146 292.198 834.025 282.36 855.073 271.945C895.13 252.124 936.551 231.625 981.423 214.555C1019.92 199.982 1057.69 189.362 1096.9 182.085C1134.72 175.067 1172.65 171.394 1212.86 170.855C1235.8 170.501 1254.52 171.116 1271.77 172.787C1294.04 174.944 1313.68 178.85 1331.81 184.729C1368.36 196.63 1399.84 215.407 1430.29 233.567C1438.07 238.21 1445.42 242.594 1452.89 246.888C1531.16 291.902 1609.06 340.588 1691.06 395.727L1690.85 395.848Z" fill="#FFE492"/>
<path d="M1687.94 394.221C1606.7 338.481 1530.13 289.218 1453.84 243.613C1446.29 239.101 1438.85 234.453 1430.97 229.532C1401.46 211.095 1370.93 192.027 1334.87 180.435C1293.58 167.226 1249.56 167.754 1215.84 169.689C1139.51 173.916 1064.93 190.491 987.84 220.358C949.857 235.145 913.693 252.067 878.719 268.433C851.072 281.37 824.96 293.59 798.172 304.759C792.118 307.286 786.183 309.703 780.536 311.94C746.501 325.409 715.908 335.357 687.007 342.35C652.401 350.725 620.238 354.94 588.68 355.234C572.623 355.382 556.748 354.471 541.505 352.522C525.525 350.478 510.147 347.283 495.797 343.024C464.475 333.725 438.146 319.505 417.544 300.755C416.577 299.869 415.604 298.96 414.656 298.05C398.715 282.79 386.572 265.922 374.827 249.609C371.504 244.994 368.066 240.22 364.612 235.578C348.259 213.549 331.46 194.974 313.257 178.787C310.897 176.69 308.459 174.586 306.011 172.533C261.347 135.129 201.833 104.461 133.908 83.845C53.2701 59.4734 -30.2504 50.4567 -101.262 58.4551C-148.632 63.8835 -194.936 81.841 -219.226 104.202C-236.659 120.252 -242.897 138.303 -237.269 156.405L-237.539 156.438C-240.474 147.002 -240.248 137.604 -236.865 128.506C-233.725 120.06 -227.868 111.85 -219.454 104.103C-207.011 92.6477 -188.959 82.2657 -167.25 74.0791C-146.717 66.3361 -123.917 60.875 -101.311 58.2842C-63.9548 54.0779 -23.416 54.5128 19.1782 59.5805C57.568 64.1475 96.2079 72.2581 134.026 83.6879C201.993 104.314 261.54 135.001 306.228 172.428C308.679 174.48 311.119 176.586 313.48 178.685C331.694 194.88 348.498 213.464 364.859 235.502C368.316 240.144 371.752 244.918 375.077 249.535C386.816 265.841 398.954 282.702 414.884 297.952C415.832 298.86 416.805 299.769 417.77 300.653C457.044 336.396 517.74 355.72 588.674 355.057C646.232 354.522 707.15 340.773 780.387 311.789C786.031 309.552 791.964 307.138 798.018 304.611C824.798 293.443 850.909 281.227 878.552 268.29C913.531 251.922 949.701 234.997 987.695 220.206C1026.56 205.147 1063.73 193.748 1101.31 185.354C1139.39 176.852 1176.84 171.669 1215.81 169.511C1249.58 167.573 1293.64 167.046 1334.99 180.276C1371.1 191.882 1401.64 210.958 1431.17 229.404C1439.05 234.325 1446.49 238.972 1454.03 243.482C1530.32 289.089 1606.9 338.355 1688.14 394.099L1687.94 394.221Z" fill="#FFE492"/>
<path d="M1685.02 392.594C1604.54 336.248 1529.3 286.402 1454.99 240.21C1447.45 235.52 1440 230.648 1432.11 225.489C1403.43 206.722 1373.77 187.316 1338.05 175.986C1296.37 162.825 1252.43 164.991 1218.81 168.349C1146.99 175.382 1075.6 193.706 994.121 226.013C963.564 238.185 933.701 251.538 904.822 264.45C869.746 280.133 836.616 294.947 802.313 307.849C796.132 310.176 790.015 312.41 784.132 314.484C749.487 326.694 717.949 335.49 687.712 341.372C670.776 344.667 654.057 347.055 638.02 348.468C620.913 349.975 603.999 350.425 587.747 349.808C554.774 348.553 523.892 343.06 495.961 333.484C465.796 323.142 440.124 308.343 419.659 289.495C418.698 288.603 417.733 287.691 416.791 286.787C401.19 271.751 388.829 255.283 376.878 239.359C373.259 234.538 369.519 229.553 365.757 224.703C348.744 202.71 331.58 184.292 313.284 168.393C310.89 166.314 308.417 164.229 305.938 162.197C260.695 125.141 200.733 94.9112 132.538 74.7771C51.362 50.9044 -32.3866 42.4814 -103.28 51.0581C-179.188 60.3838 -253.157 100.678 -240.296 149.516L-240.568 149.543C-243.786 137.327 -241.901 125.291 -234.968 113.768C-228.636 103.244 -218.246 93.3406 -204.085 84.3341C-190.92 75.9595 -175.124 68.7291 -157.141 62.8434C-140.037 57.2459 -121.431 53.1103 -103.335 50.8872C-66.0223 46.3736 -25.4396 46.5031 17.2839 51.2738C55.7671 55.5699 94.5828 63.425 132.654 74.6218C200.887 94.7697 260.885 125.017 306.155 162.093C308.637 164.127 311.11 166.212 313.506 168.293C331.811 184.199 348.983 202.627 366.004 224.629C369.766 229.479 373.507 234.464 377.126 239.287C389.074 255.206 401.429 271.667 417.021 286.694C417.961 287.598 418.923 288.509 419.885 289.4C459.217 325.622 518.838 347.013 587.764 349.637C646.115 351.855 710.304 340.309 783.997 314.336C789.878 312.261 795.992 310.03 802.172 307.703C836.468 294.804 869.592 279.991 904.662 264.31C933.544 251.396 963.41 238.042 993.973 225.868C1075.48 193.547 1146.91 175.216 1218.76 168.178C1241.36 165.922 1260.06 165.2 1277.64 165.91C1300.1 166.816 1319.9 170.061 1338.17 175.831C1373.93 187.173 1403.61 206.59 1432.31 225.368C1440.19 230.525 1447.64 235.398 1455.18 240.086C1529.5 286.281 1604.74 336.129 1685.22 392.478L1685.02 392.594Z" fill="#FFE492"/>
<path d="M1682.11 390.971C1602.4 334.01 1528.48 283.584 1456.14 236.809C1448.65 231.969 1441.25 226.9 1433.42 221.53C1405.51 202.404 1376.66 182.625 1341.24 171.539C1298.65 158.268 1252.66 162.598 1221.78 167.01C1137.95 178.837 1062.83 206.332 1000.4 231.672C977.967 240.817 955.587 250.503 933.941 259.87C890.519 278.662 849.508 296.41 806.457 310.944C800.126 313.082 793.828 315.131 787.732 317.035C752.412 328.045 719.928 335.688 688.425 340.396C652.711 345.735 618.529 347.078 586.819 344.385C554.245 341.618 523.73 334.742 496.129 323.946C467.179 312.623 442.164 297.246 421.774 278.24C420.823 277.348 419.864 276.435 418.927 275.527C403.714 260.768 391.199 244.752 379.094 229.263C375.129 224.186 371.026 218.939 366.904 213.832C348.973 191.563 331.944 173.824 313.315 158.004C310.888 155.943 308.385 153.879 305.87 151.864C260.042 115.16 199.629 85.369 131.165 65.7113C49.4502 42.3392 -34.5292 34.5082 -105.302 43.663C-181.482 53.6481 -253.939 93.3951 -243.326 142.63L-243.598 142.652C-246.231 130.437 -243.953 118.414 -236.83 106.917C-230.301 96.3828 -219.85 86.4685 -205.764 77.4517C-192.628 69.0425 -176.915 61.7587 -159.058 55.7987C-142.056 50.1235 -123.485 45.8689 -105.357 43.4921C-68.0852 38.6714 -27.4613 38.4953 15.3885 42.9674C53.9652 46.9925 92.9568 54.5922 131.281 65.5542C199.786 85.2223 260.231 115.031 306.082 151.757C308.596 153.773 311.103 155.839 313.532 157.9C332.172 173.728 349.207 191.477 367.146 213.754C371.268 218.862 375.371 224.111 379.336 229.187C391.438 244.671 403.95 260.682 419.152 275.434C420.089 276.342 421.045 277.253 421.996 278.146C461.634 315.089 520.18 338.553 586.852 344.214C646.649 349.292 712.316 340.35 787.609 316.879C793.701 314.977 800 312.93 806.326 310.792C849.365 296.262 890.371 278.517 933.784 259.727C955.43 250.36 977.813 240.672 1000.25 231.526C1042.23 214.488 1077.15 201.9 1110.15 191.911C1148.99 180.154 1185.48 171.953 1221.72 166.841C1243.8 163.686 1263.06 162.257 1280.58 162.474C1303.13 162.754 1323.01 165.667 1341.36 171.384C1376.82 182.484 1405.7 202.275 1433.62 221.413C1441.45 226.781 1448.85 231.85 1456.33 236.686C1528.68 283.463 1602.6 333.893 1682.32 390.855L1682.11 390.971Z" fill="#FFE492"/>
<path d="M1679.2 389.342C1600.25 331.765 1527.66 280.758 1457.28 233.402C1449.9 228.437 1442.6 223.191 1434.86 217.637C1407.69 198.126 1379.6 177.95 1344.42 167.088C1301.37 153.848 1255.51 159.936 1224.75 165.668C1148.8 179.702 1081.06 206.424 1006.69 237.326C993.273 242.92 979.706 248.693 966.584 254.279C916.12 275.757 863.94 297.966 810.599 314.032C804.119 315.986 797.633 317.852 791.327 319.578C755.767 329.299 721.384 335.972 689.131 339.411C652.593 343.309 617.858 343.155 585.882 338.958C553.763 334.741 523.62 326.478 496.289 314.4C468.63 302.176 444.266 286.222 423.876 266.982C422.933 266.088 421.982 265.173 421.051 264.265C406.297 249.851 393.702 234.357 381.523 219.373C377.135 213.974 372.598 208.392 368.039 202.96C349.407 180.714 332.023 163.127 313.331 147.614C310.877 145.577 308.338 143.53 305.788 141.531C259.388 105.172 198.53 75.8194 129.791 56.6415C47.5402 33.77 -36.6673 26.5327 -107.324 36.2641C-181.087 46.5339 -254.882 84.8863 -246.36 135.738L-246.632 135.756C-248.68 123.541 -246.008 111.531 -238.696 100.06C-231.972 89.5137 -221.458 79.5908 -207.448 70.5637C-181.6 53.911 -145.129 41.3472 -107.385 36.0932C-70.1574 30.9669 -29.4895 30.4836 13.4895 34.6571C52.1596 38.413 91.3243 45.7555 129.901 56.4828C198.678 75.671 259.572 105.043 306.002 141.419C308.555 143.419 311.094 145.466 313.551 147.505C332.251 163.027 349.643 180.62 368.281 202.876C372.839 208.309 377.379 213.891 381.768 219.29C393.944 234.271 406.536 249.762 421.281 264.169C422.21 265.077 423.161 265.99 424.104 266.884C464.898 305.378 520.859 330.241 585.934 338.787C646.193 346.699 715.256 340.183 791.211 319.419C797.515 317.693 803.995 315.829 810.472 313.877C863.795 297.816 915.969 275.611 966.422 254.135C979.544 248.55 993.111 242.776 1006.53 237.182C1039.08 223.655 1076.96 208.14 1114.56 195.186C1153.89 181.637 1189.9 171.928 1224.67 165.504C1246.55 161.425 1265.8 159.309 1283.51 159.036C1305.84 158.691 1326.37 161.349 1344.53 166.935C1360.29 171.8 1376.15 179.062 1393.02 189.135C1407.92 198.029 1421.72 207.94 1435.06 217.523C1442.79 223.075 1450.1 228.321 1457.48 233.285C1527.86 280.642 1600.45 331.651 1679.4 389.23L1679.2 389.342Z" fill="#FFE492"/>
<path d="M1676.28 387.716C1598.11 329.518 1526.85 277.929 1458.42 230.001C1451.18 224.926 1444 219.522 1436.4 213.802C1409.94 193.885 1382.58 173.29 1347.6 162.642C1314.91 152.723 1275.7 153.275 1227.72 164.33C1160.64 179.701 1100.67 205.41 1037.18 232.631C1029.27 236.021 1021.1 239.525 1012.96 242.986C1009.78 244.344 1006.59 245.706 1003.41 247.066C942.912 272.903 880.359 299.62 814.739 317.125C808.106 318.896 801.439 320.579 794.923 322.126C758.584 330.744 723.23 336.229 689.847 338.428C652.466 340.889 617.173 339.243 584.956 333.533C553.337 327.929 523.565 318.28 496.467 304.855C470.201 291.842 446.491 275.314 425.994 255.725C425.06 254.83 424.117 253.913 423.191 253.003C408.997 239.042 396.444 224.172 384.301 209.792C379.385 203.969 374.298 197.947 369.19 192.085C349.838 169.854 332.102 152.419 313.366 137.22C310.877 135.2 308.307 133.174 305.724 131.194C258.736 95.1875 197.428 66.2714 128.419 47.5733C45.6353 25.204 -38.8057 18.5588 -109.345 28.8666C-181.752 39.5352 -255.443 78.2017 -249.389 128.85L-249.664 128.864C-251.123 116.647 -248.062 104.651 -240.56 93.2095C-233.637 82.6514 -223.063 72.7164 -209.128 63.6823C-183.39 46.9951 -147.045 34.2449 -109.408 28.6992C-72.2216 23.2657 -31.5125 22.4752 11.5929 26.3518C50.3564 29.8349 89.6998 36.922 128.529 47.4145C197.576 66.1247 258.923 95.0564 305.93 131.082C308.513 133.062 311.088 135.092 313.578 137.111C332.322 152.319 350.069 169.759 369.426 191.999C374.537 197.86 379.621 203.884 384.54 209.708C396.678 224.084 409.231 238.95 423.419 252.907C424.345 253.816 425.285 254.731 426.219 255.627C467.898 295.457 522.812 322.336 585.027 333.362C646.443 344.246 717.028 340.409 794.824 321.96C801.335 320.413 807.998 318.732 814.629 316.963C880.227 299.465 942.77 272.753 1003.25 246.919C1006.44 245.557 1009.62 244.197 1012.81 242.839C1020.94 239.378 1029.11 235.874 1037.02 232.486C1100.52 205.26 1160.51 179.544 1227.62 164.167C1249.3 159.171 1268.54 156.37 1286.45 155.598C1308.87 154.634 1329.48 156.952 1347.72 162.485C1363.39 167.254 1379.05 174.549 1395.61 184.786C1410.21 193.818 1423.63 203.92 1436.61 213.69C1444.21 219.408 1451.39 224.81 1458.63 229.883C1527.06 277.813 1598.32 329.404 1676.49 387.604L1676.28 387.716Z" fill="#FFE492"/>
<path d="M1673.37 386.09C1602.02 331.858 1530.09 278.195 1459.57 226.596C1452.39 221.373 1445.28 215.762 1437.74 209.822C1413.24 190.501 1385.48 168.603 1350.78 158.193C1317.71 148.291 1278.43 149.86 1230.69 162.988C1173.92 178.547 1123.68 201.423 1070.49 225.643C1053.84 233.227 1036.61 241.072 1019.24 248.639C988.917 261.876 956.114 275.883 921.728 288.64C884.902 302.303 851.258 312.63 818.873 320.214C812.069 321.807 805.221 323.307 798.513 324.669C761.404 332.199 725.088 336.485 690.576 337.407C652.37 338.425 616.52 335.298 584.016 328.104C523.994 314.654 471.534 286.515 428.096 244.465C427.17 243.568 426.236 242.65 425.315 241.74C411.842 228.394 399.509 214.315 387.583 200.699C381.968 194.29 376.164 187.662 370.325 181.212C350.237 158.986 332.144 141.705 313.386 126.828C310.861 124.826 308.258 122.818 305.645 120.859C258.085 85.1996 196.326 56.7236 127.048 38.5036C43.7285 16.6348 -40.9406 10.5851 -111.364 21.4677C-184.211 32.7887 -256.055 70.9426 -252.42 121.961L-252.695 121.967C-253.566 109.747 -250.109 97.7651 -242.422 86.3526C-235.3 75.7807 -224.665 65.8353 -210.809 56.7944C-197.756 48.2764 -182.285 40.8286 -164.827 34.6563C-147.877 28.6653 -129.913 24.1707 -111.433 21.2986C-74.2878 15.5595 -33.5347 14.4618 9.69711 18.0398C48.5541 21.2554 88.0706 28.0853 127.153 38.3431C196.472 56.5734 258.266 85.0667 305.854 120.744C308.467 122.704 311.075 124.714 313.6 126.716C332.367 141.601 350.468 158.889 370.564 181.122C376.404 187.574 382.207 194.202 387.822 200.612C399.748 214.227 412.078 228.305 425.546 241.645C426.464 242.556 427.401 243.473 428.325 244.371C471.73 286.387 524.142 314.504 584.107 327.94C645.874 341.61 719.985 340.422 798.427 324.503C805.13 323.141 811.978 321.643 818.777 320.052C891.184 303.097 957.433 275.406 1019.08 248.496C1036.46 240.929 1053.68 233.086 1070.33 225.502C1123.53 201.277 1173.78 178.395 1230.58 162.829C1278.39 149.681 1317.75 148.112 1350.9 158.036C1366.44 162.698 1381.86 170.006 1398.06 180.375C1412.35 189.517 1425.37 199.785 1437.96 209.714C1445.49 215.653 1452.6 221.262 1459.78 226.482C1530.3 278.083 1602.23 331.746 1673.58 385.979L1673.37 386.09Z" fill="#FFE492"/>
<path d="M1670.46 384.465C1600.2 329.933 1529.63 275.674 1460.72 223.194C1453.76 217.914 1446.86 212.204 1439.55 206.16C1415.66 186.388 1388.57 163.977 1353.97 153.744C1320.5 143.859 1281.15 146.444 1233.66 161.645C1183.9 177.549 1138.18 200.005 1093.97 221.723C1071.8 232.613 1048.88 243.873 1025.52 254.293C988.653 270.756 957.633 283.315 927.897 293.818C891.23 306.768 856.921 316.413 823.013 323.303C816.053 324.719 809.018 326.034 802.107 327.213C766.097 333.352 730.735 336.459 696.907 336.461C695.027 336.461 693.159 336.451 691.29 336.432C652.18 336.031 615.775 331.402 583.084 322.675C567.305 318.44 551.853 313.063 537.159 306.694C523.348 300.708 509.775 293.657 496.818 285.738C473.507 271.492 451.715 254.307 430.204 233.207C429.28 232.299 428.36 231.389 427.445 230.476C414.963 218.026 403.155 205.012 391.737 192.426C385.144 185.161 378.329 177.647 371.465 170.334C350.33 147.803 332.426 131.178 313.407 116.432C310.849 114.449 308.214 112.461 305.567 110.52C257.43 75.2146 195.224 47.177 125.677 29.4352C41.8237 8.06866 -43.0763 2.61269 -113.384 14.0701C-184.866 25.7518 -256.616 64.1956 -255.449 115.07L-255.723 115.072C-256.267 91.3754 -241.315 68.8421 -212.486 49.9093C-199.455 41.3517 -184.066 33.8503 -166.743 27.609C-149.886 21.5369 -131.958 16.9249 -113.453 13.9009C-76.352 7.85464 -35.555 6.45138 7.80325 9.73083C46.7536 12.6772 86.446 19.2516 125.778 29.2729C195.369 47.0268 257.612 75.0817 305.779 110.408C308.425 112.35 311.066 114.34 313.625 116.323C332.652 131.077 350.563 147.708 371.704 170.248C378.568 177.563 385.386 185.076 391.976 192.341C403.394 204.926 415.2 217.938 427.678 230.384C428.593 231.298 429.511 232.207 430.435 233.113C476.145 277.952 526.112 307.196 583.191 322.516C662.249 343.622 745.835 336.63 802.035 327.047C808.941 325.868 815.97 324.555 822.928 323.139C900.914 307.291 972.077 277.947 1025.36 254.154C1048.72 243.737 1071.64 232.476 1093.8 221.589C1138.02 199.867 1183.75 177.404 1233.53 161.494C1254.78 154.691 1274.02 150.514 1292.33 148.726C1314.91 146.52 1335.69 148.157 1354.08 153.59C1369.58 158.173 1384.86 165.539 1400.79 176.11C1414.83 185.423 1427.51 195.912 1439.77 206.058C1447.08 212.101 1453.97 217.809 1460.93 223.085C1529.84 275.565 1600.41 329.824 1670.67 384.356L1670.46 384.465Z" fill="#FFE492"/>
<path d="M1667.54 382.838L1461.86 219.791C1455.15 214.466 1448.47 208.671 1441.41 202.539C1418.1 182.3 1391.69 159.361 1357.15 149.296C1323.75 139.565 1283.2 143.269 1236.63 160.306C1191.85 176.685 1151.01 198.465 1111.52 219.53C1085.77 233.26 1059.15 247.457 1031.8 259.952C949.595 297.507 877.751 319.688 805.707 329.759C775.819 333.936 746.336 336.039 717.742 336.039C709.075 336.039 700.496 335.845 692.007 335.459C651.974 333.636 615.013 327.509 582.155 317.249C551.702 307.739 523.842 294.314 496.994 276.204C475.554 261.743 455.002 244.504 432.317 221.95C420.344 210.047 408.75 197.68 397.538 185.72C372.163 158.656 345.925 130.671 313.44 106.04C263.613 68.2626 198.211 38.637 124.303 20.3653C39.9193 -0.497225 -45.2115 -5.36117 -115.404 6.67097C-183.363 18.3199 -257.122 55.0533 -258.48 108.18L-258.754 108.177C-258.147 84.4303 -242.728 61.9004 -214.165 43.0228C-188.339 25.9542 -153.291 12.9848 -115.476 6.50355C-78.4158 0.151763 -37.5748 -1.55873 5.9071 1.42212C44.951 4.09746 84.8192 10.4182 124.404 20.2048C160.975 29.2457 195.707 41.1467 227.639 55.578C259.838 70.1301 288.777 87.0694 313.649 105.926C346.147 130.565 372.394 158.558 397.774 185.629C408.986 197.587 420.58 209.952 432.55 221.853C465.648 254.762 512.578 295.325 582.279 317.09C662.213 342.05 747.866 337.663 805.646 329.587C877.655 319.522 949.466 297.35 1031.64 259.809C1058.98 247.319 1085.6 233.122 1111.34 219.395C1150.84 198.327 1191.69 176.541 1236.49 160.155C1283.14 143.088 1323.78 139.38 1357.27 149.137C1372.73 153.644 1387.87 161.075 1403.55 171.857C1417.35 181.348 1429.7 192.069 1441.63 202.435C1448.7 208.568 1455.37 214.359 1462.08 219.682L1667.76 382.729L1667.54 382.838Z" fill="#FFE492"/>
<path d="M1665.89 370.303C1613.51 324.905 1568.57 288.066 1524.47 254.372C1503.06 238.005 1481.19 221.894 1459.48 206.487C1452.91 201.827 1446.4 196.87 1439.51 191.621C1422.2 178.429 1404.3 164.788 1383.69 154.665C1372.63 149.219 1361.98 145.32 1351.14 142.745C1317.85 134.762 1278.8 140.04 1235.07 158.435C1212.43 167.94 1191.82 178.757 1174.64 188.084C1156.46 197.959 1138.52 208.848 1121.18 219.379C1096.24 234.516 1070.46 250.168 1042.74 263.61C1025.88 271.814 1008.79 279.144 991.932 285.4C958.213 297.913 922.022 308.225 884.363 316.047C861.096 320.826 837.716 324.439 814.877 326.783C795.193 328.795 775.473 329.957 756.262 330.235C727.509 330.653 699.496 329.059 672.999 325.495C644.827 321.705 618.165 315.655 593.758 307.512C571.993 300.25 551.435 291.108 530.91 279.559C492.664 258.056 462.158 233.192 439.855 213.933C428.899 204.428 418.201 194.735 407.854 185.361C378.063 158.364 349.923 132.865 314.71 110.153C285.991 91.7496 253.223 75.8684 217.31 62.9474C189.711 53.0176 159.695 44.8966 128.095 38.8089C120.568 37.3608 112.899 36.011 105.306 34.8011C72.6154 29.6005 35.814 26.2141 -4.0735 24.7349C-44.288 23.2091 -79.0806 24.5295 -110.433 28.7755C-128.157 31.1574 -145.33 34.8943 -161.48 39.8808C-218.496 57.4863 -255.108 87.041 -259.417 118.941L-259.76 118.922C-258.611 110.418 -255.239 102.042 -249.741 94.0228C-244.517 86.4058 -237.342 79.0599 -228.416 72.1886C-211.552 59.2088 -188.457 47.9689 -161.631 39.6857C-145.456 34.6906 -128.256 30.9486 -110.504 28.5632C-79.1191 24.3137 -44.299 22.9916 -4.05153 24.5191C35.8579 25.9983 72.6786 29.3882 105.391 34.5922C112.992 35.8039 120.664 37.1536 128.197 38.6035C159.821 44.6947 189.862 52.8225 217.483 62.761C253.421 75.6907 286.216 91.5857 314.949 110.001C350.184 132.727 378.33 158.233 408.132 185.236C418.475 194.611 429.173 204.302 440.127 213.806C462.419 233.056 492.911 257.907 531.136 279.396C551.639 290.933 572.175 300.067 593.914 307.32C641.683 323.257 696.3 330.894 756.251 330.019C775.445 329.741 795.151 328.58 814.819 326.569C837.641 324.225 861.005 320.616 884.253 315.84C921.89 308.023 958.059 297.718 991.756 285.211C1008.6 278.961 1025.68 271.634 1042.53 263.438C1070.23 250.002 1096.01 234.354 1120.93 219.222C1138.29 208.69 1156.22 197.797 1174.42 187.919C1191.6 178.586 1212.22 167.766 1234.87 158.253C1254.35 150.063 1273.2 144.406 1290.92 141.435C1312.68 137.786 1332.98 138.159 1351.26 142.543C1362.14 145.127 1372.82 149.036 1383.91 154.494C1404.54 164.633 1422.45 178.282 1439.78 191.483C1446.67 196.73 1453.17 201.687 1459.73 206.344C1481.46 221.752 1503.32 237.865 1524.74 254.236C1568.84 287.933 1613.79 324.775 1666.17 370.177L1665.89 370.303Z" fill="#FFE492"/>
<path d="M1664.23 357.766C1615.67 311.6 1570.09 272.968 1524.9 239.664C1502.85 223.396 1480.04 207.758 1457.09 193.186C1451 189.319 1444.99 185.301 1438.63 181.048C1419.57 168.312 1399.86 155.142 1377.79 146.031C1366.64 141.41 1355.96 138.193 1345.13 136.194C1303.66 128.537 1261.54 143.043 1233.5 156.559C1213.64 166.108 1195.5 176.904 1177.12 188.049C1161.04 197.804 1145.9 208.299 1129.88 219.407C1106.1 235.898 1081.51 252.949 1053.69 267.267C1037.18 275.809 1019.94 283.194 1002.47 289.218C969.917 300.441 934.273 309.156 893.498 315.863C870.678 319.615 847.309 322.289 824.039 323.806C804.404 325.071 784.805 325.524 765.784 325.146C737.484 324.59 709.823 322.091 683.563 317.719C655.984 313.126 629.669 306.415 605.352 297.773C584.046 290.202 563.475 280.809 542.46 269.058C504.296 247.747 471.603 224.121 447.387 205.918C438.423 199.18 429.602 192.4 421.07 185.841C387.09 159.723 354.996 135.051 315.98 114.266C286.821 98.7322 254.084 85.5971 218.684 75.2271C191.899 67.3806 163.509 61.5017 131.896 57.254C124.6 56.2753 117.177 55.3933 109.837 54.6322C77.5976 51.3061 43.1897 50.0478 1.55997 48.7464C-28.4484 47.7608 -67.7313 47.1118 -105.47 50.878C-123.343 52.6282 -140.62 55.6678 -156.825 59.9086C-213.879 74.8439 -252.582 100.935 -260.359 129.704L-260.766 129.661C-258.705 122.032 -254.528 114.549 -248.358 107.419C-242.478 100.626 -234.75 94.1116 -225.393 88.0532C-207.611 76.5441 -183.956 66.7282 -156.984 59.6687C-140.749 55.4192 -123.439 52.3745 -105.536 50.6209C-67.7615 46.8495 -28.4484 47.5002 1.57919 48.4858C43.2227 49.7872 77.6416 51.0455 109.903 54.3732C117.249 55.1362 124.677 56.0182 131.981 56.9968C163.624 61.2497 192.042 67.1338 218.857 74.9889C254.292 85.3693 287.057 98.5147 316.246 114.064C355.29 134.865 387.398 159.544 421.388 185.672C429.918 192.229 438.739 199.009 447.703 205.746C471.913 223.942 504.593 247.559 542.735 268.86C563.725 280.599 584.274 289.981 605.555 297.543C653.37 314.536 707.286 323.734 765.797 324.883C784.803 325.26 804.382 324.809 823.998 323.544C847.246 322.028 870.596 319.358 893.393 315.608C934.135 308.907 969.75 300.199 1002.27 288.987C1019.73 282.97 1036.94 275.595 1053.43 267.061C1081.23 252.756 1105.81 235.711 1129.58 219.23C1145.61 208.116 1160.74 197.62 1176.84 187.859C1195.22 176.707 1213.37 165.907 1233.26 156.349C1251.43 147.586 1269.36 141.282 1286.54 137.609C1307.38 133.156 1327.13 132.595 1345.25 135.94C1356.12 137.948 1366.84 141.175 1378.02 145.81C1400.13 154.939 1419.86 168.12 1438.93 180.867C1445.29 185.118 1451.31 189.135 1457.39 192.999C1480.35 207.577 1503.16 223.22 1525.21 239.493C1570.42 272.806 1616.01 311.444 1664.57 357.621L1664.23 357.766Z" fill="#FFE492"/>
<path d="M1662.57 345.227C1617.12 297.667 1572.23 258.325 1525.32 224.956C1502.65 208.788 1478.89 193.625 1454.71 179.884C1449.55 176.947 1444.23 173.829 1439.08 170.816C1417.84 158.364 1395.87 145.49 1371.88 137.396C1360.63 133.571 1349.91 131.034 1339.13 129.641C1297.75 124.292 1258 140.306 1231.95 154.681C1214.28 164.384 1198.14 175.383 1182.53 186.02L1179.6 188.012C1165.43 197.662 1152.13 208.246 1138.05 219.453C1115.63 237.299 1092.44 255.75 1064.63 270.922C1048.45 279.814 1031.08 287.255 1013 293.037C981.484 303.119 946.408 310.313 902.624 315.678C879.983 318.451 856.625 320.184 833.195 320.827C813.61 321.343 794.132 321.084 775.297 320.053C718.276 316.948 664.998 306.174 616.94 288.032C596.165 280.189 575.58 270.549 554.011 258.557C517.509 238.305 485.044 217.489 454.923 197.904C450.883 195.279 446.888 192.671 442.922 190.083C401.782 163.245 362.925 137.895 317.258 118.384C287.445 105.646 254.741 95.2588 220.058 87.5089C194.595 81.8199 166.999 77.9571 135.699 75.6994C128.645 75.1937 121.47 74.7777 114.372 74.4636C96.5154 73.6869 77.576 73.5609 57.5237 73.428C41.4176 73.321 24.7646 73.2105 7.19104 72.76C-26.7497 71.8159 -65.2164 70.7475 -100.512 72.9844C-118.723 74.1391 -136.104 76.4796 -152.175 79.942C-209.207 92.2313 -250.004 114.861 -261.307 140.477L-261.771 140.396C-258.792 133.642 -253.813 127.054 -246.973 120.814C-240.433 114.847 -232.156 109.162 -222.373 103.917C-203.662 93.8849 -179.441 85.4964 -152.334 79.6555C-136.228 76.1845 -118.811 73.8388 -100.564 72.6823C-65.2329 70.4437 -26.747 71.5138 7.20752 72.458C24.7701 72.9067 41.4231 73.0189 57.5237 73.1259C77.5843 73.2588 96.5291 73.3848 114.402 74.1633C121.506 74.4791 128.689 74.8951 135.749 75.4008C167.087 77.6602 194.716 81.5282 220.215 87.2259C254.938 94.9844 287.678 105.384 317.525 118.136C363.232 137.664 402.109 163.026 443.266 189.876C447.231 192.464 451.229 195.07 455.266 197.697C485.382 217.279 517.836 238.089 554.327 258.334C575.874 270.313 596.437 279.944 617.188 287.777C665.182 305.896 718.392 316.655 775.339 319.756C794.152 320.785 813.61 321.044 833.173 320.528C856.578 319.886 879.915 318.155 902.531 315.384C946.271 310.025 981.305 302.84 1012.78 292.772C1030.82 287.002 1048.16 279.574 1064.31 270.697C1092.09 255.545 1115.26 237.104 1137.66 219.269C1151.75 208.056 1165.06 197.467 1179.24 187.81L1182.17 185.818C1197.79 175.176 1213.94 164.17 1231.62 154.456C1257.76 140.035 1297.65 123.975 1339.22 129.348C1350.05 130.748 1360.81 133.294 1372.11 137.134C1396.15 145.245 1418.14 158.133 1439.41 170.598C1444.55 173.612 1449.87 176.729 1455.03 179.665C1479.22 193.413 1502.99 208.585 1525.68 224.761C1572.6 258.144 1617.51 297.499 1662.97 345.075L1662.57 345.227Z" fill="#FFE492"/>
<path d="M1660.91 332.687C1619.18 284.408 1573.71 243.213 1525.76 210.25C1502.44 194.184 1477.74 179.493 1452.34 166.586C1448.67 164.722 1444.91 162.787 1441.28 160.916C1417.27 148.556 1392.44 135.773 1365.99 128.766C1354.64 125.726 1343.9 123.871 1333.14 123.09C1291.88 120.101 1254.49 137.598 1230.39 152.802C1215.43 162.195 1201.92 172.641 1188.86 182.744C1186.6 184.492 1184.35 186.237 1182.08 187.975C1169.66 197.524 1158.04 208.19 1145.75 219.482C1124.84 238.679 1103.22 258.528 1075.58 274.58C1059.34 284.006 1042.32 291.293 1023.53 296.862C984.243 308.507 944.976 312.817 911.75 315.499C889.277 317.312 865.93 318.106 842.352 317.854C822.827 317.621 803.467 316.649 784.814 314.968C729.504 309.995 676.924 297.657 628.534 278.296C608.399 270.243 587.803 260.353 565.563 248.062C543.098 235.676 522.164 223.757 501.916 212.231C488.157 204.397 475.159 196.997 462.466 189.898C414.485 163.062 370.536 139.467 318.547 122.507C288.093 112.574 255.422 104.931 221.44 99.7924C197.084 96.1091 171.05 94.3158 139.511 94.1449C132.707 94.1138 125.776 94.1639 118.914 94.295C108.491 94.5073 97.7077 94.9509 86.2952 95.4221C64.3935 96.3249 39.5652 97.3484 12.8215 96.7754C2.63733 96.5562 -7.75291 96.2472 -17.8024 95.9469C-43.6503 95.1753 -70.3775 94.3779 -95.5576 95.0908C-114.049 95.6155 -131.537 97.2586 -147.531 99.9754C-204.467 109.65 -247.355 128.821 -262.261 151.257L-262.769 151.125C-258.867 145.249 -253.085 139.557 -245.586 134.204C-238.383 129.064 -229.556 124.209 -219.356 119.775C-199.699 111.231 -174.915 104.27 -147.679 99.6423C-131.647 96.9186 -114.12 95.2703 -95.5878 94.7455C-70.3802 94.031 -43.642 94.8301 -17.7804 95.6016C-7.73367 95.902 2.65659 96.2109 12.838 96.4302C39.5569 97.0032 64.3661 95.9814 86.2567 95.0787C97.6748 94.6075 108.461 94.1639 118.895 93.9516C125.765 93.8204 132.701 93.7703 139.513 93.8014C171.096 93.9706 197.169 95.7691 221.566 99.4576C255.59 104.603 288.305 112.254 318.797 122.201C342.281 129.862 366.079 139.567 391.55 151.87C414.354 162.884 436.536 174.935 462.829 189.641C475.522 196.742 488.52 204.141 502.282 211.976C522.526 223.5 543.461 235.419 565.92 247.803C588.138 260.082 608.713 269.961 628.823 278.007C677.146 297.341 729.653 309.662 784.885 314.628C803.517 316.307 822.852 317.277 842.354 317.51C865.905 317.762 889.228 316.97 911.673 315.158C944.858 312.48 984.072 308.176 1023.29 296.551C1042.03 290.998 1059.01 283.73 1075.2 274.328C1102.8 258.304 1124.4 238.47 1145.29 219.289C1157.59 207.99 1169.21 197.318 1181.65 187.759C1183.91 186.021 1186.17 184.276 1188.43 182.53C1201.5 172.42 1215.01 161.967 1230 152.562C1245.67 142.67 1261.76 135.06 1277.8 129.944C1296.8 123.884 1315.44 121.464 1333.19 122.752C1344 123.536 1354.8 125.4 1366.2 128.451C1392.71 135.478 1417.57 148.277 1441.61 160.652C1445.25 162.523 1449 164.458 1452.67 166.32C1478.09 179.238 1502.81 193.942 1526.15 210.02C1551.61 227.524 1576.55 247.466 1600.26 269.294C1621.22 288.585 1641.79 309.86 1661.38 332.525L1660.91 332.687Z" fill="#FFE492"/>
<path d="M1659.25 320.145C1620.63 270.482 1575.86 228.56 1526.19 195.543C1502.24 179.579 1476.59 165.363 1449.97 153.288C1448.7 152.713 1447.43 152.138 1446.16 151.562C1418.48 138.989 1389.85 125.989 1360.11 120.136C1348.59 117.868 1337.81 116.693 1327.16 116.541C1286.06 115.957 1251.01 134.916 1228.85 150.922C1215.81 160.285 1204.23 170.548 1193.03 180.473C1190.27 182.927 1187.4 185.465 1184.58 187.936C1173.81 197.35 1163.81 208.053 1153.22 219.386C1133.95 240 1114.03 261.315 1086.53 278.237C1070.62 288.027 1053.46 295.369 1034.07 300.685C995.878 311.157 957.095 313.907 920.876 315.319C898.543 316.189 875.204 316.04 851.508 314.879C832.047 313.895 812.81 312.212 794.33 309.878C740.903 303.147 689.02 289.245 640.13 268.559C620.551 260.276 600.529 250.427 577.124 237.565C532.642 213.186 499.611 196.016 470.026 181.892C411.182 153.801 366.271 137.274 319.86 126.631C288.788 119.506 256.15 114.609 222.847 112.076C199.742 110.318 175.221 110.476 143.344 112.59C136.812 113.028 130.129 113.544 123.479 114.126C117.197 114.684 110.816 115.322 104.058 115.997C79.1091 118.491 50.8293 121.318 18.4631 120.79C1.40344 120.512 -16.0218 119.751 -32.8726 119.016C-52.0235 118.181 -71.8257 117.316 -90.6002 117.198C-109.424 117.081 -127.02 118.027 -142.884 120.012C-199.631 127.108 -244.616 142.823 -263.217 162.049L-263.745 161.847C-258.913 156.852 -252.329 152.056 -244.176 147.59C-236.306 143.279 -226.935 139.255 -216.322 135.629C-195.706 128.583 -170.353 123.05 -143.005 119.63C-127.097 117.642 -109.463 116.693 -90.5947 116.81C-71.8038 116.927 -51.9906 117.792 -32.8314 118.629C-15.986 119.365 1.43088 120.126 18.4768 120.404C50.7853 120.93 79.0349 118.106 103.957 115.616C110.717 114.939 117.103 114.302 123.388 113.743C130.046 113.161 136.735 112.645 143.273 112.205C175.199 110.089 199.761 109.93 222.916 111.692C256.266 114.23 288.95 119.133 320.066 126.269C366.541 136.925 411.498 153.469 470.394 181.584C499.99 195.714 533.032 212.889 577.525 237.275C600.914 250.127 620.914 259.965 640.471 268.24C689.295 288.897 741.101 302.779 794.448 309.5C812.904 311.83 832.118 313.51 851.552 314.494C875.221 315.654 898.529 315.802 920.835 314.934C956.999 313.524 995.716 310.781 1033.82 300.333C1053.14 295.038 1070.24 287.72 1086.09 277.964C1113.53 261.078 1133.44 239.786 1152.68 219.195C1163.28 207.855 1173.29 197.143 1184.07 187.715C1186.9 185.245 1189.76 182.708 1192.53 180.254C1203.73 170.32 1215.32 160.05 1228.38 150.671C1242.84 140.225 1258.01 131.963 1273.45 126.112C1291.53 119.258 1309.61 115.911 1327.17 116.158C1337.89 116.31 1348.72 117.492 1360.3 119.77C1390.13 125.644 1418.8 138.662 1446.52 151.253C1447.79 151.829 1449.06 152.406 1450.33 152.979C1476.98 165.068 1502.66 179.301 1526.64 195.282C1576.35 228.329 1621.16 270.283 1659.8 319.981L1659.25 320.145Z" fill="#FFE492"/>
<path d="M934.55 315.139C933.009 315.139 931.489 315.138 929.994 315.133C907.776 315.074 884.446 313.987 860.656 311.898C841.266 310.163 822.151 307.769 803.841 304.785C777.68 300.529 751.425 294.412 725.8 286.605C701.054 279.065 676.132 269.717 651.724 258.817C627.809 248.139 605.47 236.239 588.68 227.065C549.394 205.659 512.015 187.767 477.583 173.885C421.814 151.402 372.116 137.695 321.177 130.751C290.445 126.562 257.475 124.353 225.73 124.353C225.238 124.353 224.749 124.353 224.257 124.355C196.985 124.413 171.094 127.596 147.18 131.028C140.956 131.927 134.517 132.909 128.043 133.95C124.495 134.526 120.942 135.12 117.183 135.748C90.6674 140.186 60.6123 145.214 24.0994 144.801C1.86243 144.549 -20.8499 143.103 -42.8148 141.703C-56.9974 140.799 -71.6608 139.865 -85.6482 139.3C-104.876 138.525 -122.571 138.774 -138.245 140.043C-194.689 144.606 -241.771 156.868 -264.192 172.844L-264.709 172.559C-253.209 164.366 -235.91 157.272 -213.294 151.472C-191.694 145.935 -165.772 141.834 -138.333 139.616C-122.617 138.346 -104.876 138.094 -85.6042 138.872C-71.6031 139.437 -56.9314 140.372 -42.7434 141.277C-20.7922 142.676 1.90637 144.123 24.1131 144.373C60.5326 144.786 90.5354 139.765 117.007 135.336C120.769 134.706 124.322 134.112 127.873 133.535C134.353 132.495 140.797 131.511 147.026 130.612C170.981 127.175 196.917 123.987 224.254 123.927C256.505 123.856 290.066 126.072 321.322 130.334C347.612 133.919 373.1 139.195 399.237 146.465C424.409 153.468 450.157 162.319 477.951 173.526C512.411 187.419 549.817 205.324 589.127 226.744C605.904 235.913 628.226 247.804 652.117 258.471C701.645 280.588 752.75 296.031 804.011 304.373C822.297 307.353 841.387 309.744 860.75 311.477C884.509 313.562 907.807 314.649 929.994 314.706C964.713 314.796 1005.03 314.061 1044.34 304.11C1064.25 299.074 1081.46 291.709 1096.98 281.596C1124.23 263.835 1142.3 241.039 1159.77 218.993C1168.76 207.653 1177.25 196.941 1186.48 187.669C1189.44 184.698 1192.42 181.638 1195.31 178.678C1205.06 168.677 1215.14 158.338 1226.75 148.781C1240.02 137.787 1254.27 128.868 1269.08 122.275C1286.26 114.63 1303.77 110.353 1321.13 109.563C1331.84 109.074 1342.72 109.573 1354.37 111.088C1385.54 115.138 1416.43 126.902 1447.97 139.635C1475.46 150.737 1502.83 164.882 1527.11 180.542C1554.07 197.887 1579.41 218.235 1602.42 241.02C1622.91 261.32 1641.68 283.665 1658.21 307.436L1657.58 307.609C1622.09 256.56 1578.03 213.91 1526.62 180.844C1502.37 165.206 1475.05 151.082 1447.59 139.999C1416.11 127.289 1385.28 115.547 1354.23 111.511C1342.64 110.005 1331.83 109.509 1321.18 109.994C1289.28 111.449 1255.94 125.316 1227.3 149.044C1215.71 158.584 1205.63 168.914 1195.89 178.904C1193.01 181.866 1190.02 184.928 1187.06 187.898C1177.85 197.153 1169.37 207.856 1160.39 219.186C1151.81 230.003 1142.95 241.19 1132.78 251.943C1121.24 264.134 1109.7 273.931 1097.48 281.896C1081.89 292.054 1064.6 299.452 1044.6 304.512C1026.97 308.976 1008.02 311.926 986.661 313.534C968.576 314.889 950.412 315.139 934.55 315.139Z" fill="#FFE492"/>
<path d="M978.618 316.005C964.606 316.005 951.146 315.481 939.104 314.949C916.963 313.972 893.644 311.944 869.796 308.92C850.489 306.436 831.494 303.333 813.341 299.693C763.632 289.746 714.555 273.188 663.307 249.077C640.958 238.564 619.889 227.251 600.229 216.567C561.417 195.536 522.697 178.482 485.14 165.879C429.905 147.343 378.225 137.489 322.501 134.869C290.751 133.376 257.269 133.985 225.672 136.63C199.225 138.842 174.292 144.183 151.017 149.461C145.194 150.788 139 152.238 132.61 153.769C131.014 154.154 129.404 154.546 127.771 154.941C100.964 161.452 70.6317 168.818 31.7032 168.818C31.0465 168.818 30.3925 168.817 29.7302 168.811C3.39319 168.644 -23.4962 166.283 -49.5034 163.998C-59.8139 163.091 -70.4763 162.156 -80.7071 161.398C-100.691 159.921 -117.998 159.484 -133.62 160.067C-190.441 162.19 -238.402 170.779 -265.201 183.636L-265.66 183.258C-252.411 176.903 -233.255 171.385 -210.268 167.301C-187.657 163.285 -161.169 160.62 -133.667 159.593C-118 159.008 -100.649 159.444 -80.6219 160.925C-70.3801 161.683 -59.715 162.62 -49.4017 163.525C-23.4192 165.806 3.4454 168.166 29.7329 168.333C69.472 168.589 100.299 161.1 127.494 154.494C129.123 154.099 130.736 153.707 132.333 153.32C138.728 151.788 144.924 150.338 150.753 149.01C174.067 143.722 199.047 138.375 225.565 136.155C257.211 133.507 290.748 132.896 322.551 134.391C350.165 135.689 376.494 138.754 403.04 143.76C430.38 148.916 457.349 156.011 485.489 165.456C523.093 178.077 561.862 195.151 600.716 216.203C620.367 226.884 641.422 238.189 663.753 248.692C714.932 272.77 763.934 289.304 813.564 299.235C831.689 302.869 850.659 305.968 869.939 308.449C893.753 311.469 917.04 313.496 939.148 314.469C976.351 316.109 1015.93 316.951 1054.86 307.878C1075.35 303.102 1092.69 295.69 1107.86 285.218C1134.89 266.565 1151.72 241.122 1166.57 218.673C1174.04 207.378 1181.09 196.709 1188.88 187.615C1191.69 184.334 1194.52 180.942 1197.25 177.663C1205.8 167.401 1214.64 156.791 1225.11 146.882C1237.22 135.339 1250.55 125.764 1264.71 118.425C1280.98 109.997 1297.92 104.791 1315.07 102.957C1325.79 101.809 1336.71 101.626 1348.44 102.392C1381.21 104.538 1414.5 115.139 1445.6 126.277C1474.31 136.561 1502.66 150.224 1527.58 165.789C1555.29 183.053 1580.83 203.605 1603.48 226.87C1623.74 247.675 1641.62 270.556 1656.62 294.879L1655.92 295.05C1624.02 243.348 1579.46 198.767 1527.04 166.124C1502.18 150.588 1473.88 136.951 1445.23 126.688C1414.2 115.576 1381 105 1348.36 102.863C1336.7 102.1 1325.86 102.283 1315.21 103.423C1283.54 106.811 1251.77 122.336 1225.75 147.141C1215.3 157.03 1206.47 167.629 1197.92 177.88C1195.19 181.161 1192.36 184.553 1189.55 187.837C1181.78 196.911 1174.73 207.569 1167.27 218.852C1152.4 241.336 1135.54 266.82 1108.42 285.536C1093.16 296.065 1075.73 303.518 1055.13 308.321C1037.25 312.488 1017.96 314.901 996.161 315.693C990.267 315.917 984.397 316.005 978.618 316.005Z" fill="#FFE492"/>
<path d="M1006.28 317.873C1006.08 317.873 1005.88 317.873 1005.68 317.873C985.875 317.842 966.433 316.32 948.213 314.763C926.106 312.875 902.8 309.904 878.939 305.938C859.719 302.708 840.846 298.892 822.846 294.598C775.124 283.229 728.114 265.67 674.898 239.336C655.734 229.855 636.874 219.645 618.633 209.774C616.352 208.538 614.068 207.304 611.785 206.07C572.771 185.043 532.708 168.827 492.71 157.874C437.94 142.877 382.702 136.697 323.839 138.984C291.564 140.239 258.112 143.669 227.101 148.902C202.632 153.032 180.83 159.659 154.866 167.892C149.604 169.568 143.984 171.377 137.186 173.586L136.806 173.71C123.69 178.001 108.823 182.863 92.1483 186.561C72.9974 190.807 54.418 192.85 35.366 192.826C5.65723 192.779 -24.6617 189.307 -53.9803 185.946C-61.1636 185.123 -68.5942 184.272 -75.7665 183.502C-96.3354 181.298 -113.747 180.185 -128.996 180.1C-185.143 179.789 -235.163 185.016 -266.226 194.436L-266.583 193.97C-251.368 189.355 -230.843 185.61 -207.229 183.138C-183.571 180.661 -156.514 179.432 -128.987 179.584C-113.695 179.669 -96.2393 180.784 -75.6264 182.993C-68.4486 183.763 -61.0179 184.614 -53.8319 185.437C-24.549 188.792 5.73141 192.262 35.3688 192.308C35.5007 192.308 35.6353 192.308 35.7672 192.308C78.1609 192.308 110.458 181.745 136.427 173.251L136.809 173.127C143.61 170.916 149.23 169.107 154.495 167.431C180.503 159.184 202.344 152.546 226.889 148.403C257.953 143.16 291.459 139.725 323.79 138.468C352.594 137.35 379.764 138.202 406.857 141.078C436.052 144.176 464.244 149.515 493.04 157.401C533.114 168.375 573.246 184.617 612.323 205.678C614.607 206.912 616.89 208.148 619.171 209.384C637.404 219.252 656.259 229.458 675.407 238.932C728.553 265.233 775.495 282.768 823.137 294.118C841.112 298.407 859.958 302.217 879.15 305.442C902.978 309.404 926.251 312.369 948.323 314.254C987.859 317.633 1026.56 319.977 1065.39 311.665C1086.47 307.153 1103.92 299.695 1118.75 288.862C1145.55 269.294 1160.18 242.18 1173.1 218.256C1179.14 207.055 1184.85 196.475 1191.29 187.584C1193.77 184.163 1196.26 180.625 1198.66 177.202C1206.18 166.501 1213.96 155.437 1223.49 145.005C1234.46 132.907 1246.87 122.675 1260.35 114.594C1275.72 105.384 1292.09 99.2529 1309.03 96.3739C1319.53 94.5892 1330.24 93.7192 1341.76 93.7192C1342.01 93.7192 1342.26 93.7192 1342.51 93.721C1378.31 93.8383 1415.14 104.053 1443.24 112.939C1473.17 122.406 1502.5 135.586 1528.06 151.054C1556.53 168.239 1582.27 188.993 1604.56 212.741C1624.57 234.052 1641.55 257.469 1655.04 282.345L1654.26 282.512C1634.19 245.499 1595.89 192.714 1527.48 151.429C1501.99 135.995 1472.72 122.846 1442.87 113.401C1414.85 104.54 1378.13 94.3544 1342.51 94.2388C1330.78 94.1956 1319.9 95.0621 1309.25 96.8744C1277.87 102.21 1247.67 119.394 1224.2 145.262C1214.69 155.67 1206.93 166.722 1199.42 177.411C1197.01 180.835 1194.52 184.375 1192.05 187.798C1185.62 196.666 1179.92 207.233 1173.88 218.421C1160.94 242.389 1146.28 269.555 1119.38 289.199C1104.45 300.104 1086.88 307.612 1065.66 312.153C1047.68 316.001 1028.25 317.873 1006.28 317.873Z" fill="#FFE492"/>
<path d="M1028.27 320.304C1024 320.304 1019.65 320.217 1015.18 320.045C995.65 319.29 976.667 317.028 957.321 314.577C934.894 311.736 912.245 307.935 888.079 302.957C868.958 298.984 850.208 294.458 832.349 289.503C787.042 276.951 742.057 258.474 686.49 229.594C672.689 222.422 658.894 214.9 645.553 207.625C638.29 203.666 630.782 199.57 623.343 195.571C583.865 174.403 542.463 159.027 500.287 149.869C444.56 137.768 387.286 135.551 325.186 143.094C292.377 147.079 258.956 153.329 228.538 161.167C204.103 167.464 182.817 176.306 160.28 185.668L158.722 186.316C155.202 187.783 151.643 189.271 148.041 190.776C145.966 191.644 143.877 192.517 141.77 193.397C128.629 198.916 114.435 204.672 98.1586 209.103C79.2605 214.246 60.5685 216.776 41.0081 216.839C8.44406 216.939 -24.7712 212.185 -56.89 207.584C-61.4737 206.926 -66.2168 206.248 -70.8197 205.604C-92.3999 202.583 -109.413 200.845 -124.368 200.131C-179.553 197.495 -231.634 199.352 -267.259 205.228L-267.487 204.686C-231.768 198.795 -179.581 196.931 -124.299 199.571C-109.303 200.288 -92.246 202.031 -70.6246 205.057C-66.0189 205.702 -61.2759 206.381 -56.6894 207.038C-24.9636 211.583 7.8313 216.279 39.9638 216.279C40.3101 216.279 40.6564 216.279 41.0054 216.278C82.5664 216.146 112.151 205.159 141.278 192.931C143.385 192.051 145.474 191.178 147.549 190.31C151.151 188.803 154.707 187.317 158.23 185.848L159.788 185.201C182.363 175.823 203.685 166.965 228.2 160.648C258.673 152.794 292.152 146.534 325.018 142.542C387.275 134.98 444.703 137.203 500.581 149.337C542.862 158.52 584.36 173.93 623.926 195.144C631.365 199.145 638.875 203.239 646.138 207.201C659.474 214.474 673.266 221.994 687.059 229.161C742.56 258.008 787.482 276.459 832.709 288.99C850.544 293.937 869.266 298.457 888.359 302.424C912.489 307.395 935.106 311.19 957.499 314.026C991.492 318.333 1033.8 323.694 1075.93 315.436C1097.59 311.192 1115.16 303.687 1129.64 292.492C1156.18 271.987 1168.48 243.147 1179.34 217.703C1184.05 206.65 1188.51 196.209 1193.71 187.544C1195.73 184.168 1197.76 180.677 1199.73 177.299C1206.31 165.971 1213.12 154.258 1221.86 143.118C1231.73 130.458 1243.21 119.568 1255.98 110.752C1270.46 100.762 1286.27 93.7072 1302.98 89.784C1313.7 87.2657 1324.69 85.714 1336.57 85.0391C1352.49 84.1347 1369.43 85.1013 1388.37 87.9872C1404.39 90.4312 1421.56 94.2251 1440.88 99.5878C1472.02 108.237 1502.33 120.935 1528.53 136.309C1557.77 153.412 1583.71 174.371 1605.64 198.601C1625.39 220.42 1641.48 244.374 1653.46 269.8L1652.6 269.959C1627.3 216.279 1583.02 168.96 1527.92 136.72C1501.79 121.388 1471.57 108.725 1440.51 100.102C1398.9 88.5481 1365.9 83.9379 1336.65 85.5984C1324.85 86.2681 1313.94 87.8094 1303.29 90.3087C1263.54 99.6413 1237.5 124.313 1222.66 143.365C1213.94 154.477 1207.14 166.176 1200.56 177.49C1198.6 180.87 1196.57 184.363 1194.54 187.741C1189.36 196.38 1184.91 206.809 1180.2 217.848C1169.32 243.347 1156.99 272.248 1130.34 292.846C1115.74 304.129 1098.02 311.694 1076.19 315.973C1061.39 318.873 1045.61 320.304 1028.27 320.304Z" fill="#FFE492"/>
<path d="M1047.32 323.09C1018.26 323.09 990.324 318.401 966.422 314.389C943.935 310.616 921.297 305.901 897.213 299.975C878.2 295.263 859.571 290.026 841.846 284.408C788.713 267.586 741.346 243.441 698.075 219.853C689.24 215.037 680.315 210.073 671.686 205.273C659.705 198.607 647.314 191.715 634.898 185.074C594.829 163.697 552.09 149.158 507.869 141.862C450.663 132.426 391.347 134.171 326.532 147.199C293.16 153.907 259.772 162.977 229.975 173.43C206.994 181.49 187.549 191.667 166.963 202.441C165.504 203.204 164.042 203.97 162.572 204.736L161.775 205.154C156.771 207.776 151.596 210.486 146.35 213.206C133.781 219.753 119.939 226.524 103.929 231.697C85.3445 237.702 66.6084 240.697 46.6441 240.852C11.6014 241.126 -24.1146 234.938 -58.6517 228.954C-61.0727 228.535 -63.4827 228.117 -65.8817 227.705C-88.6573 223.78 -105.272 221.453 -119.748 220.159C-173.549 215.35 -227.696 213.838 -268.306 216.011L-268.389 215.408C-227.712 213.23 -173.486 214.744 -119.614 219.56C-105.096 220.858 -88.4457 223.189 -65.6289 227.121C-63.2299 227.534 -60.8199 227.952 -58.3961 228.373C-23.925 234.345 11.7223 240.517 46.6304 240.248C89.9858 239.909 120.519 225.872 145.735 212.74C150.981 210.02 156.155 207.31 161.159 204.69L161.956 204.272C163.427 203.504 164.889 202.739 166.348 201.977C186.969 191.184 206.447 180.99 229.505 172.902C259.357 162.43 292.809 153.344 326.238 146.625C356.967 140.449 385.829 136.883 414.472 135.723C446.423 134.43 477.926 136.299 508.11 141.279C552.472 148.597 595.338 163.177 635.519 184.613C647.943 191.258 660.337 198.152 672.321 204.819C680.95 209.619 689.87 214.582 698.702 219.396C741.928 242.958 789.238 267.077 842.275 283.868C859.975 289.477 878.576 294.707 897.562 299.413C921.61 305.329 944.212 310.038 966.666 313.806C1001.14 319.591 1044.05 326.792 1086.45 319.215C1108.69 315.238 1126.38 307.687 1140.52 296.13C1166.78 274.66 1176.61 244.045 1185.28 217.033C1188.76 206.179 1192.05 195.929 1196.11 187.511C1197.61 184.397 1199.11 181.18 1200.57 178.068C1206.27 165.896 1212.16 153.308 1220.22 141.238C1228.99 128.004 1239.55 116.454 1251.59 106.91C1265.19 96.1417 1280.43 88.164 1296.91 83.1982C1307.61 79.974 1318.64 77.7388 1330.62 76.3632C1346.77 74.5111 1364.69 74.5733 1383.88 76.5479C1400.68 78.2773 1419.06 81.5378 1438.49 86.2412C1470.85 94.0722 1502.15 106.287 1528.99 121.566C1558.98 138.59 1585.13 159.751 1606.7 184.464C1626.19 206.79 1641.39 231.283 1651.87 257.259L1650.93 257.408C1628.73 202.365 1585.2 154.281 1528.35 122.015C1501.59 106.786 1470.4 94.6107 1438.15 86.8056C1396.34 76.6894 1361.23 73.4669 1330.8 76.9586C1318.9 78.3239 1307.95 80.5436 1297.32 83.7437C1258.12 95.5583 1234.24 121.656 1221.11 141.471C1213.07 153.51 1207.18 166.08 1201.49 178.237C1200.04 181.349 1198.53 184.568 1197.03 187.685C1192.98 196.075 1189.7 206.312 1186.22 217.152C1182.05 230.147 1177.32 244.875 1170.46 258.683C1162.6 274.504 1153.05 286.873 1141.28 296.497C1134.48 302.062 1126.66 306.798 1118.04 310.575C1108.76 314.636 1098.22 317.739 1086.71 319.797C1073.54 322.153 1060.32 323.09 1047.32 323.09Z" fill="#FFE492"/>
<path d="M1064.5 326.146C1054.89 326.146 1044.83 325.559 1034.19 324.387C1013.25 322.079 993.209 317.892 975.523 314.2C953.231 309.545 929.956 303.754 906.347 296.99C887.455 291.546 868.947 285.598 851.343 279.308C800.815 261.276 757.284 237.3 709.661 210.108C705.429 207.692 701.131 205.227 696.976 202.842C680.612 193.454 663.692 183.747 646.454 174.575C605.72 152.947 561.644 139.248 515.45 133.856C457.181 127.054 394.07 132.922 327.879 151.301C293.913 160.732 260.555 172.621 231.412 185.685C209.47 195.522 191.407 207.119 172.283 219.398C170.341 220.646 168.389 221.897 166.427 223.154C161.544 226.285 156.284 229.645 150.934 233.009C139.714 240.088 126.04 248.153 109.703 254.286C91.4147 261.152 72.632 264.613 52.2857 264.863C15.039 265.324 -22.8754 257.578 -59.5421 250.087L-60.9381 249.802C-78.8909 246.136 -97.8825 242.432 -115.124 240.183C-167.677 233.329 -222.447 228.57 -269.342 226.784L-269.279 226.138C-222.335 227.926 -167.514 232.688 -114.915 239.549C-97.6242 241.805 -78.5996 245.514 -60.6194 249.186L-59.2234 249.47C-22.6363 256.944 15.2012 264.672 52.2664 264.214C95.0723 263.686 124.635 248.683 150.206 232.548C155.556 229.186 160.81 225.826 165.694 222.696C167.656 221.441 169.607 220.188 171.55 218.942C190.706 206.642 208.802 195.025 230.816 185.155C260.014 172.065 293.435 160.154 327.464 150.705C358.519 142.084 389.08 136.143 418.291 133.05C451.669 129.517 484.422 129.572 515.643 133.216C562.013 138.628 606.25 152.376 647.121 174.078C664.374 183.258 681.301 192.969 697.674 202.362C701.829 204.746 706.127 207.21 710.359 209.627C757.935 236.793 801.42 260.743 851.857 278.744C869.436 285.023 887.917 290.962 906.782 296.399C930.357 303.153 953.594 308.936 975.853 313.584C1010.74 320.871 1054.17 329.938 1096.99 322.991C1119.83 319.285 1137.63 311.689 1151.41 299.765C1177.38 277.301 1184.9 243.441 1190.94 216.234C1193.29 205.636 1195.51 195.627 1198.52 187.48C1199.47 184.912 1200.43 182.266 1201.36 179.706C1206.17 166.409 1211.14 152.658 1218.6 139.36C1230.13 118.667 1252.02 90.9848 1290.86 76.6191C1301.58 72.6527 1312.65 69.7322 1324.69 67.6921C1356.18 62.2775 1393.68 64.0294 1436.13 72.896C1469.7 79.9089 1501.98 91.6407 1529.47 106.825C1560.22 123.767 1586.57 145.132 1607.78 170.33C1617.52 181.888 1626.11 194.232 1633.35 207.02C1640.26 219.236 1645.95 231.92 1650.29 244.722L1649.28 244.857C1630.19 188.447 1587.4 139.598 1528.79 107.31C1501.4 92.1827 1469.25 80.4957 1435.8 73.5088C1393.55 64.6819 1356.25 62.9351 1324.96 68.3152C1313.01 70.3398 1302.03 73.2378 1291.38 77.1749C1252.8 91.4405 1231.04 118.981 1219.58 139.572C1212.13 152.835 1207.17 166.568 1202.36 179.848C1201.44 182.407 1200.48 185.055 1199.53 187.625C1196.53 195.744 1194.31 205.74 1191.96 216.322C1188.92 230.013 1185.48 245.53 1179.59 260.175C1172.83 277.004 1163.88 290.079 1152.25 300.145C1145.61 305.887 1137.84 310.731 1129.17 314.538C1119.82 318.641 1109.08 321.696 1097.24 323.615C1086.85 325.303 1076 326.146 1064.5 326.146Z" fill="#FFE492"/>
<path d="M1080.33 329.375C1068.81 329.375 1056.67 328.438 1043.7 326.558C1022.68 323.515 1002.46 318.465 984.622 314.008C962.162 308.398 938.9 301.669 915.482 294.003C896.713 287.833 878.328 281.174 860.84 274.209C812.717 255.059 771.442 230.377 727.742 204.248C725.58 202.955 723.417 201.661 721.249 200.366C700.927 188.229 679.916 175.677 658.012 164.078C616.569 142.177 571.158 129.314 523.04 125.849C462.6 121.494 397.392 131.438 329.225 155.4C295.128 167.385 260.901 182.493 232.849 197.94C211.668 209.602 194.679 222.725 176.694 236.62C174.564 238.265 172.429 239.915 170.277 241.568C165.979 244.877 160.865 248.8 155.512 252.813C145.597 260.265 132.088 269.734 115.473 276.857C97.4766 284.574 78.6526 288.508 57.9243 288.879C40.8867 289.146 22.0847 287.495 0.441315 283.827C-18.1408 280.678 -36.1155 276.564 -56.0057 271.903C-74.1618 267.597 -93.3237 263.149 -110.515 260.211C-161.439 251.509 -215.229 243.888 -270.387 237.557L-270.189 236.879C-214.998 243.212 -161.178 250.839 -110.227 259.545C-92.9885 262.491 -73.7991 266.946 -55.621 271.256C-22.282 279.07 19.2103 288.798 57.8941 288.188C102.121 287.394 130.543 270.504 154.668 252.368C160.019 248.359 165.13 244.437 169.425 241.13C171.577 239.476 173.712 237.826 175.839 236.183C193.855 222.266 210.874 209.121 232.124 197.42C260.233 181.943 294.526 166.806 328.689 154.798C397.063 130.763 462.496 120.793 523.166 125.163C546.428 126.839 569.278 130.732 591.075 136.731C614.464 143.168 637.223 152.193 658.721 163.552C680.65 175.163 701.675 187.722 722.007 199.868C724.176 201.164 726.341 202.457 728.504 203.749C772.161 229.856 813.401 254.514 861.431 273.628C878.894 280.582 897.251 287.232 915.993 293.392C939.378 301.046 962.605 307.767 985.031 313.368C1020.28 322.17 1064.14 333.126 1107.52 326.772C1131.01 323.33 1148.93 315.687 1162.29 303.409C1188.04 279.955 1192.62 244.128 1196.3 215.341C1197.62 205.046 1198.87 195.321 1200.93 187.457C1201.36 185.835 1201.78 184.204 1202.21 182.564C1206.06 167.753 1210.05 152.436 1216.97 137.489C1226.86 115.99 1246.65 86.837 1284.8 70.0462C1295.44 65.3617 1306.54 61.7578 1318.74 59.0272C1335.7 55.1972 1354.6 53.3969 1374.91 53.6731C1393.45 53.9251 1413.25 55.9048 1433.75 59.5554C1468.54 65.7466 1501.8 76.9952 1529.94 92.0841C1561.45 108.944 1588 130.516 1608.85 156.197C1618.42 167.981 1626.71 180.579 1633.48 193.642C1639.96 206.152 1645.09 219.121 1648.7 232.189L1647.61 232.307C1631.88 175.363 1588.73 124.445 1529.23 92.6088C1501.2 77.5855 1468.09 66.3835 1433.45 60.2164C1390.74 52.6116 1351.2 52.4252 1319.1 59.6745C1307 62.3843 1295.98 65.9607 1285.42 70.6088C1247.54 87.284 1227.87 116.286 1218.03 137.679C1211.12 152.587 1207.14 167.881 1203.29 182.673C1202.87 184.313 1202.44 185.945 1202.01 187.568C1199.96 195.402 1198.71 205.115 1197.4 215.395C1193.7 244.264 1189.1 280.195 1163.2 303.799C1156.76 309.717 1149.05 314.671 1140.31 318.518C1130.9 322.657 1119.95 325.66 1107.77 327.445C1098.97 328.729 1089.87 329.375 1080.33 329.375Z" fill="#FFE492"/>
<path d="M1095.2 332.734C1082.08 332.734 1068.18 331.402 1053.2 328.726C1032.01 324.941 1011.66 319.03 993.716 313.815C971.033 307.225 947.782 299.553 924.608 291.016C905.974 284.129 887.714 276.757 870.33 269.109C827.524 250.282 790.939 227.217 752.206 202.797C745.875 198.805 739.326 194.678 732.83 190.62C709.994 176.363 690.494 164.607 669.562 153.579C627.38 131.388 580.636 119.363 530.625 117.837C467.784 115.919 400.471 129.935 330.561 159.493C295.832 174.178 261.636 192.18 234.274 210.186C213.661 223.751 197.546 238.517 180.487 254.15C178.373 256.087 176.252 258.03 174.117 259.975C170.313 263.446 165.279 268.02 160.083 272.606C138.214 291.952 109.643 311.868 63.5557 312.887C62.1185 312.916 60.6758 312.93 59.2358 312.93C23.2478 312.93 -13.4932 303.984 -51.0806 293.995L-53.4274 293.367C-72.0452 288.375 -89.6325 283.662 -105.912 280.23C-167.261 267.299 -226.594 256.383 -271.43 248.319L-271.109 247.613C-226.261 255.681 -166.912 266.598 -105.541 279.535C-89.2175 282.975 -71.611 287.695 -52.9684 292.692L-50.6244 293.32C-11.6602 303.675 26.3915 312.911 63.5145 312.155C109.09 311.147 137.422 291.384 159.129 272.183C164.323 267.601 169.352 263.03 173.155 259.561C175.29 257.614 177.409 255.672 179.522 253.736C196.609 238.079 212.748 223.289 233.427 209.681C260.844 191.637 295.109 173.598 329.907 158.884C362.205 145.227 394.513 134.742 425.934 127.715C461.985 119.653 497.229 116.083 530.68 117.103C580.95 118.636 627.93 130.72 670.31 153.015C691.271 164.06 710.791 175.828 733.649 190.097C740.148 194.155 746.696 198.284 753.03 202.276C791.725 226.672 828.274 249.714 870.997 268.504C888.357 276.143 906.59 283.503 925.196 290.379C948.337 298.906 971.553 306.566 994.202 313.146C1029.76 323.476 1074 336.331 1118.04 330.544C1142.12 327.38 1160.15 319.692 1173.17 307.042C1198.59 282.521 1200.11 244.677 1201.34 214.27C1201.74 204.349 1202.12 194.976 1203.33 187.425L1203.36 187.253C1206.08 170.343 1208.89 152.858 1215.33 135.606C1220.92 120.559 1228.69 107.03 1238.44 95.3933C1249.43 82.2738 1262.98 71.531 1278.72 63.4618C1289.25 58.0628 1300.39 53.7736 1312.78 50.3509C1346.24 41.0493 1387.25 39.6132 1431.36 46.2015C1449.12 48.8527 1466.63 52.8691 1483.42 58.137C1500.31 63.4359 1516.12 69.8964 1530.4 77.3356C1562.68 94.1143 1589.43 115.89 1609.92 142.058C1628.34 165.579 1641.2 192.41 1647.11 219.648L1645.95 219.747C1633.31 161.448 1590.92 109.747 1529.66 77.9C1501.01 62.9837 1466.93 52.2685 1431.1 46.9195C1387.23 40.3692 1346.48 41.7898 1313.26 51.0275C1300.97 54.4243 1289.92 58.679 1279.47 64.0348C1250.08 79.1013 1228.3 103.91 1216.48 135.777C1210.05 152.984 1207.24 170.444 1204.53 187.33L1204.5 187.503C1203.29 195.027 1202.91 204.385 1202.51 214.292C1201.28 244.793 1199.74 282.75 1174.15 307.444C1167.87 313.544 1160.22 318.605 1151.42 322.485C1141.94 326.669 1130.79 329.622 1118.28 331.267C1110.84 332.244 1103.16 332.734 1095.2 332.734Z" fill="#FFE492"/>
<path d="M64.4097 336.963C48.3174 336.963 30.7932 334.994 11.0158 330.972C-8.63528 326.976 -28.0693 321.46 -46.1458 316.095C-49.4186 315.118 -52.6668 314.143 -55.893 313.175C-71.9524 308.354 -87.1214 303.801 -101.298 300.254C-157.828 286.116 -211.711 273.409 -263.822 261.123L-272.456 259.086L-272.022 258.36L-263.387 260.396C-211.274 272.686 -157.383 285.393 -100.842 299.534C-86.6268 303.09 -71.4385 307.648 -55.3598 312.476C-52.1364 313.444 -48.8883 314.419 -45.6181 315.394C-8.51166 326.407 30.9114 337.079 69.1473 336.128C116.149 334.899 144.317 311.901 163.602 292.005C168.543 286.917 173.303 281.846 176.897 277.997C178.881 275.875 180.851 273.756 182.816 271.641C199.112 254.114 214.504 237.557 234.746 221.947C261.465 201.345 295.697 180.402 331.141 162.978C364.023 146.812 397.206 134.039 429.77 125.015C467.121 114.664 503.603 109.293 538.204 109.05C590.268 108.563 638.624 119.813 681.911 142.484C705.907 155.067 727.421 168.679 745.305 180.335C755.036 186.678 764.767 193.18 774.179 199.468C807.493 221.728 841.942 244.745 880.576 263.388C897.834 271.717 915.949 279.788 934.413 287.374C957.263 296.741 980.467 305.34 1003.39 312.931C1039.21 324.796 1083.79 339.562 1128.58 334.322C1153.23 331.438 1171.38 323.705 1184.05 310.682C1209.13 285.049 1207.44 245.133 1206.08 213.06C1205.68 203.575 1205.29 194.616 1205.75 187.403C1206.78 171.142 1208.33 152.243 1213.71 133.733C1218.24 118.049 1225.09 103.859 1234.05 91.5597C1244.19 77.6462 1257.18 65.9817 1272.67 56.889C1282.92 50.8634 1294.42 45.7492 1306.83 41.6861C1324.55 35.8694 1344.42 32.2119 1365.92 30.8173C1386.04 29.5107 1407.26 30.1977 1428.99 32.8575C1447.31 35.1013 1465.37 38.7916 1482.66 43.8281C1500.06 48.8957 1516.28 55.2095 1530.88 62.5935C1547.7 71.0959 1563.17 81.1362 1576.85 92.4365C1589.81 103.143 1601.3 115.084 1611 127.925C1629.14 151.95 1641.08 179.335 1645.52 207.116L1644.29 207.193C1634.75 147.537 1593.13 95.0532 1530.1 63.1993C1501.23 48.5937 1465.24 38.0891 1428.75 33.6204C1383.63 28.0954 1341.67 31.1228 1307.41 42.3748C1295.09 46.4051 1283.69 51.4796 1273.51 57.4568C1244.34 74.5894 1224.63 100.299 1214.93 133.873C1209.56 152.333 1208.01 171.199 1206.99 187.434C1206.53 194.621 1206.91 203.567 1207.31 213.039C1207.98 228.862 1208.74 246.797 1206.19 264.135C1203.23 284.253 1196.34 299.612 1185.11 311.088C1179 317.367 1171.41 322.537 1162.55 326.451C1152.99 330.68 1141.64 333.585 1128.81 335.085C1122.34 335.843 1115.87 336.186 1109.44 336.186C1070.95 336.186 1033.65 323.831 1002.81 313.617C979.859 306.014 956.619 297.402 933.739 288.021C915.248 280.425 897.108 272.342 879.826 264C841.112 245.319 806.627 222.279 773.28 199.997C763.871 193.711 754.143 187.211 744.417 180.871C726.558 169.229 705.074 155.637 681.122 143.078C638.069 120.528 589.995 109.343 538.223 109.823C456.917 110.396 381.149 139.374 331.904 163.585C296.532 180.975 262.369 201.874 235.707 222.434C215.526 237.998 200.156 254.528 183.885 272.028C181.92 274.142 179.947 276.262 177.963 278.385C174.366 282.236 169.604 287.31 164.66 292.404C156.564 300.756 143.855 312.914 127.021 322.028C118.845 326.453 110.145 329.931 101.162 332.366C91.1452 335.082 80.3895 336.607 69.1995 336.899C67.6139 336.942 66.0173 336.963 64.4097 336.963Z" fill="#FFE492"/>
<path d="M69.5768 360.991C53.4651 360.991 35.9768 358.87 16.3037 354.541C-4.06458 350.061 -24.2021 343.76 -41.2123 338.187C-46.439 336.471 -51.6547 334.732 -56.7001 333.049C-70.8029 328.345 -84.1253 323.901 -96.6865 320.273C-141.795 307.241 -186.61 294.519 -229.952 282.214C-244.288 278.144 -259.111 273.936 -273.477 269.849L-272.939 269.101C-258.572 273.188 -243.749 277.396 -229.413 281.466C-186.071 293.771 -141.251 306.496 -96.1396 319.529C-83.5455 323.167 -70.2066 327.615 -56.0873 332.326C-51.0447 334.008 -45.8289 335.747 -40.6077 337.462C-5.32867 349.016 35.592 361.247 74.776 360.096C122.886 358.649 149.907 333.537 168.077 311.822C172.735 306.259 177.239 300.674 180.641 296.429C182.388 294.251 184.125 292.075 185.859 289.903C201.446 270.373 216.167 251.927 236.068 234.213C261.952 211.174 296.156 187.329 332.375 167.071C382.815 138.979 460.773 104.714 545.726 100.998C599.752 98.5714 649.477 108.986 693.514 131.956C713.3 142.281 732.866 154.191 756.96 170.576C769.137 178.856 781.22 187.438 792.904 195.735C823.306 217.322 854.738 239.645 890.157 258.277C907.315 267.306 925.307 276.086 943.63 284.375C965.818 294.401 989.014 303.939 1012.57 312.725C1048.75 326.138 1093.78 342.834 1139.11 338.108C1163.97 335.571 1182.75 327.57 1194.94 314.332C1219.67 287.539 1214.36 243.704 1210.48 211.699C1209.4 202.716 1208.37 194.233 1208.17 187.389C1207.72 172.18 1207.76 152.125 1212.09 131.87C1219.57 96.7711 1237.91 69.3342 1266.61 50.3255C1276.67 43.6285 1288.2 37.81 1300.89 33.0307C1318.94 26.2232 1339.31 21.6441 1361.43 19.4227C1382.26 17.3307 1404.19 17.3635 1426.61 19.5211C1445.52 21.3817 1464.12 24.7544 1481.89 29.5424C1499.83 34.3787 1516.47 40.5406 1531.35 47.8572C1548.55 56.3113 1564.26 66.3862 1578.05 77.8038C1591.12 88.6243 1602.56 100.734 1612.08 113.8C1629.94 138.33 1640.96 166.268 1643.94 194.592L1642.64 194.646C1636.22 133.627 1595.36 80.3601 1530.55 48.5045C1501.16 34.0525 1464.18 24.0467 1426.41 20.3323C1379.86 15.8533 1336.69 20.4876 1301.57 33.7349C1288.98 38.4746 1277.54 44.2464 1267.56 50.8899C1239.06 69.7726 1220.83 97.0542 1213.39 131.98C1209.06 152.18 1209.03 172.195 1209.48 187.376C1209.68 194.195 1210.7 202.668 1211.79 211.638C1213.79 228.182 1216.06 246.936 1214.77 265.244C1213.25 286.562 1207.14 302.754 1196.07 314.744C1190.11 321.212 1182.58 326.493 1173.68 330.443C1164.04 334.725 1152.48 337.576 1139.33 338.919C1118.94 341.044 1096.99 339.135 1072.24 333.082C1050.72 327.819 1030.1 320.176 1011.91 313.434C988.318 304.637 965.092 295.085 942.872 285.045C924.521 276.744 906.505 267.952 889.321 258.911C853.828 240.24 822.36 217.893 791.929 196.284C780.25 187.988 768.169 179.412 756.004 171.139C731.951 154.783 712.42 142.896 692.681 132.595C648.905 109.756 599.496 99.4033 545.814 101.815C461.227 105.517 383.527 139.677 333.238 167.683C297.091 187.9 262.957 211.695 237.129 234.686C217.283 252.35 202.584 270.77 187.022 290.271C185.288 292.444 183.551 294.621 181.803 296.799C178.398 301.047 173.892 306.637 169.228 312.205C150.899 334.114 123.606 359.45 74.8337 360.916C73.0997 360.966 71.3438 360.991 69.5768 360.991Z" fill="#FFE492"/>
<path d="M74.8472 385.023C30.8239 385.023 -15.3675 368.04 -56.3157 352.984C-68.8988 348.359 -80.784 343.988 -92.0784 340.293L-274.5 280.612L-273.865 279.847L-91.4436 339.528C-80.119 343.232 -68.2201 347.608 -55.6204 352.24C-13.0894 367.878 35.1191 385.603 80.4037 384.067C129.574 382.401 155.477 355.175 172.55 331.644C178.134 323.947 183.526 316.116 188.741 308.543C203.006 287.83 217.755 266.412 237.384 246.478C252.971 230.65 272.333 214.051 293.378 198.477C316.464 181.391 341.182 165.715 366.84 151.887C395.131 136.641 423.898 124.028 452.337 114.402C483.793 103.756 514.783 96.8055 544.45 93.7418C603.882 87.6058 657.935 96.9177 705.105 121.422C744.305 141.784 777.622 166.963 809.843 191.314C837.889 212.51 866.889 234.425 899.728 253.16C937.659 274.797 978.711 294.765 1021.75 312.507C1058.01 327.456 1103.14 346.063 1149.65 341.881C1188.93 338.349 1211.64 321.842 1219.07 291.412C1225.4 265.528 1219.38 234.824 1214.55 210.154C1212.9 201.746 1211.34 193.805 1210.58 187.365C1206.37 151.864 1209.05 122.558 1218.79 97.7738C1224.87 82.3103 1233.84 68.5263 1245.45 56.8048C1258.42 43.7112 1275.07 32.7958 1294.94 24.3624C1312.13 17.0665 1331.5 11.7676 1352.52 8.61238C1372.53 5.60909 1393.59 4.60282 1415.13 5.62118C1457.49 7.62337 1498.93 17.3858 1531.81 33.1082C1549.38 41.5122 1565.34 51.6233 1579.24 63.1583C1592.4 74.091 1603.81 86.3717 1613.15 99.6621C1630.72 124.698 1640.82 153.19 1642.34 182.054L1640.97 182.083C1637.73 120.616 1596.61 65.1812 1530.97 33.7969C1461.27 0.467253 1362.33 -3.20055 1295.7 25.0787C1229.71 53.0921 1202.31 106.155 1211.95 187.301C1212.71 193.72 1214.26 201.651 1215.91 210.049C1220.75 234.772 1226.79 265.542 1220.43 291.543C1216.97 305.705 1210.01 317.086 1199.75 325.373C1193.98 330.032 1187.02 333.839 1179.07 336.687C1170.61 339.718 1160.78 341.753 1149.84 342.737C1145.37 343.139 1140.82 343.341 1136.19 343.341C1119.34 343.341 1101.39 340.664 1081.72 335.241C1059.56 329.131 1038.17 320.314 1020.99 313.23C977.895 295.463 936.785 275.468 898.799 253.8C865.886 235.026 836.856 213.085 808.779 191.867C776.6 167.547 743.324 142.399 704.223 122.088C657.369 97.7514 603.687 88.4999 544.665 94.5945C425.274 106.922 302.29 182.204 238.544 246.934C218.967 266.812 204.238 288.201 189.992 308.886C184.773 316.463 179.379 324.299 173.79 332.003C162.454 347.625 151.259 358.811 138.557 367.203C130.629 372.44 122.028 376.569 112.992 379.474C102.946 382.703 92.0031 384.54 80.4669 384.931C78.6037 384.992 76.7268 385.023 74.8472 385.023Z" fill="#FFE492"/>
</g>
</svg>
