<svg width="516" height="39" viewBox="0 0 516 39" fill="none" xmlns="http://www.w3.org/2000/svg">
<path d="M482.406 19.3691C481.704 19.4017 480.994 19.4248 480.307 19.4726C479.86 19.5026 479.667 19.4193 479.368 19.3763C479.269 19.3614 479.161 19.3311 479.069 19.3352C478.374 19.3679 477.679 19.4043 476.984 19.4407C476.772 19.5157 476.638 19.6153 476.312 19.6525C475.994 19.6878 475.617 19.6889 475.263 19.7072C474.794 19.7296 474.326 19.752 473.858 19.7725C473.624 19.7827 473.433 19.8195 473.356 19.8884C473.342 19.8999 473.498 19.928 473.584 19.9449C473.868 20.0013 474.146 20.0653 474.459 20.1082C474.758 20.1493 475.126 20.0795 475.447 20.1319C476.165 20.2499 476.173 20.248 476.719 20.2235C477.187 20.2011 477.655 20.1768 478.123 20.1601C478.216 20.156 478.323 20.1843 478.422 20.1993C478.721 20.2403 478.914 20.3351 479.354 20.2975C479.687 20.2679 480.056 20.2611 480.404 20.2448C480.696 20.2992 480.966 20.3613 481.279 20.4043C481.571 20.4453 481.657 20.4775 481.501 20.5333C481.36 20.5852 481.162 20.6068 480.899 20.6114C480.665 20.614 480.431 20.6319 480.197 20.6421C480.076 20.6482 479.963 20.6524 479.849 20.6584C479.402 20.6808 479.402 20.6808 478.584 20.5612C478.264 20.5144 477.903 20.5823 477.597 20.5374C477.39 20.5075 477.212 20.4623 477.013 20.4305C476.928 20.4174 476.793 20.4159 476.686 20.42C476.332 20.4344 475.977 20.445 475.636 20.4709C475.395 20.4887 475.254 20.5426 475.283 20.5959C475.291 20.6169 475.461 20.6469 475.561 20.6485C475.788 20.6516 476.029 20.6242 476.249 20.6368C476.463 20.6496 476.683 20.687 476.84 20.7285C477.161 20.8153 477.522 20.736 477.827 20.758C478.147 20.7818 478.411 20.8573 478.717 20.9022C478.795 20.9134 478.944 20.8938 479.065 20.8877C479.412 20.8734 479.76 20.8609 480.108 20.8465C480.4 20.9009 480.713 20.9495 480.976 21.0117C481.454 21.1247 481.965 21.167 482.582 21.1098C482.93 21.0783 483.27 21.0887 483.548 21.1622C483.834 21.2377 484.16 21.2291 484.522 21.2127C484.855 21.1964 485.195 21.1535 485.537 21.2058C486.277 21.3219 486.284 21.3276 487.157 21.2792C487.419 21.265 487.618 21.2606 487.817 21.3039C488.003 21.3434 488.202 21.3771 488.394 21.4147C488.742 21.4003 489.096 21.3858 489.444 21.3695C489.891 21.3472 490.14 21.3732 490.248 21.4796C490.313 21.5443 490.342 21.6033 490.499 21.6467C490.684 21.6996 490.883 21.697 491.153 21.681C491.408 21.6669 491.592 21.6453 491.698 21.5764C491.74 21.5476 491.825 21.5207 491.902 21.4975C491.966 21.4802 492.065 21.4532 492.122 21.4568C492.229 21.4641 492.371 21.4847 492.407 21.5094C492.758 21.7391 492.758 21.741 493.114 21.8067C493.506 21.8799 493.911 21.9454 494.268 22.0282C494.588 22.1017 494.907 22.0683 495.255 22.0673C495.518 22.0665 495.689 22.1155 495.668 22.1652C495.654 22.1938 495.556 22.2361 495.471 22.2401C494.775 22.2804 494.073 22.3149 493.371 22.3437C493.286 22.3478 493.179 22.3138 493.079 22.2969C492.88 22.2632 492.701 22.2103 492.488 22.1995C492.275 22.1887 492.027 22.2181 491.793 22.2283C491.559 22.2386 491.311 22.2641 491.098 22.2495C490.884 22.2349 490.713 22.1801 490.514 22.1445C490.421 22.1276 490.293 22.1032 490.215 22.1091C489.698 22.1565 489.313 22.0947 488.943 22.0119C488.864 21.995 488.729 21.9839 488.63 21.988C487.807 22.0229 486.991 22.0635 486.168 22.1022C485.835 22.1185 485.564 22.0526 485.491 21.9403C485.455 21.8774 485.383 21.8147 485.382 21.7518C485.38 21.6373 484.989 21.5756 484.705 21.5898C484.237 21.6103 483.761 21.627 483.301 21.6569C482.925 21.681 482.605 21.659 482.348 21.5912C482.049 21.5139 481.708 21.5302 481.368 21.5522C481.113 21.5682 481.042 21.6313 481.059 21.7896C481.075 21.9173 480.955 21.9577 480.494 21.9801C479.912 22.0086 479.323 22.037 478.735 22.0598C478.642 22.0639 478.535 22.0318 478.443 22.0149C478.244 21.9812 478.065 21.9264 477.852 21.9156C477.639 21.9029 477.391 21.9322 477.157 21.9444C476.923 21.9546 476.675 21.9821 476.461 21.9694C476.248 21.9567 476.07 21.9 475.878 21.8643C475.785 21.8474 475.671 21.823 475.579 21.8271C475.111 21.8437 474.642 21.868 474.174 21.8904C473.649 21.9149 473.649 21.9149 472.902 21.7989C472.56 21.7465 472.22 21.7895 471.887 21.8058C471.532 21.8221 471.199 21.8307 470.921 21.7553C470.735 21.7063 470.529 21.6764 470.309 21.6866C469.72 21.7112 469.139 21.7416 468.55 21.7662C468.45 21.7704 468.315 21.7612 468.237 21.7443C467.86 21.6653 467.489 21.6035 466.965 21.6451C466.511 21.6808 466.021 21.6842 465.567 21.718C465.319 21.7359 465.206 21.7973 465.257 21.8448C465.285 21.8695 465.435 21.8977 465.534 21.8974C465.762 21.8986 466.01 21.8692 466.223 21.88C466.663 21.9016 466.886 22.0611 467.46 22.0155C467.801 21.9878 468.155 21.9772 468.51 21.9685C468.602 21.9663 468.702 22.0023 468.802 22.021C469.087 22.0717 469.336 22.1377 469.747 22.1021C470.088 22.0744 470.45 22.0657 470.797 22.0494C471.351 22.0229 471.351 22.0248 472.07 22.139C472.411 22.1933 472.751 22.1484 473.085 22.134C473.333 22.1237 473.567 22.104 473.766 22.1301C474.072 22.1692 474.293 22.2601 474.67 22.2532C475.024 22.2464 475.372 22.2187 475.727 22.2081C475.947 22.2017 476.153 22.2316 476.331 22.2825C476.517 22.3335 476.716 22.3558 476.957 22.3436C477.305 22.3273 477.659 22.3071 478.014 22.2965C478.113 22.2943 478.227 22.3112 478.32 22.3261C478.519 22.3599 478.711 22.3993 478.904 22.435C479.251 22.4225 479.606 22.4176 479.947 22.3937C480.209 22.3758 480.394 22.3828 480.607 22.4203C480.878 22.471 481.099 22.5619 481.539 22.5167C481.759 22.4951 482.014 22.5 482.234 22.4803C482.503 22.4547 482.688 22.4637 482.881 22.5203C483.244 22.6279 483.699 22.6284 484.167 22.5851C484.677 22.5378 485.061 22.59 485.446 22.6728C485.852 22.7593 485.852 22.7574 486.167 22.9681C486.261 23.0289 486.524 23.0567 486.743 23.0446C487.112 23.0244 487.432 23.033 487.703 23.1046C487.988 23.182 488.329 23.1714 488.676 23.1494C489.137 23.1194 489.598 23.0932 489.976 23.2027C490.161 23.2555 490.361 23.2683 490.609 23.2542C491.311 23.2177 492.021 23.1946 492.709 23.1506C493.127 23.1226 493.369 23.1829 493.654 23.2336C494.038 23.303 494.458 23.3647 494.461 23.5153C494.461 23.5401 494.561 23.5684 494.646 23.5872C494.831 23.6267 495.031 23.6605 495.223 23.698C495.508 23.7544 495.785 23.8012 496.175 23.7695C496.516 23.7437 496.878 23.735 497.225 23.7168C497.573 23.6986 497.892 23.6881 498.206 23.7596C498.569 23.8405 498.953 23.9176 499.366 23.9774C499.658 24.0203 500.04 23.9448 500.353 24.003C500.546 24.0387 500.731 24.08 500.937 24.1099C501.022 24.123 501.157 24.1131 501.271 24.1089C501.505 24.1006 501.746 24.0942 501.973 24.0744C502.236 24.0526 502.434 24.0559 502.634 24.0991C502.819 24.1386 503.004 24.1934 503.218 24.2042C503.537 24.2204 503.891 24.143 504.212 24.2298C504.376 24.2731 504.582 24.3145 504.795 24.3272C505.009 24.3399 505.257 24.3105 505.484 24.3118C505.583 24.3115 505.704 24.3416 505.762 24.3662C505.797 24.3795 505.748 24.4159 505.699 24.4351C505.635 24.4582 505.543 24.489 505.451 24.4931C504.749 24.5295 504.046 24.5602 503.344 24.5948C502.926 24.6151 502.926 24.6151 502.079 24.4975C501.88 24.4695 501.66 24.4759 501.412 24.49C501.078 24.5081 500.738 24.5416 500.39 24.5083C499.933 24.38 499.372 24.3702 498.777 24.4216C498.529 24.4433 498.301 24.444 498.116 24.4083C497.725 24.337 497.312 24.2715 496.963 24.1868C496.692 24.1208 496.564 24.1155 496.452 24.2074C496.417 24.2361 496.382 24.2667 496.389 24.2934C496.433 24.3886 496.513 24.4818 496.557 24.5771C496.572 24.6037 496.515 24.6344 496.48 24.6631C496.368 24.7436 496.219 24.7383 495.969 24.6723C495.72 24.6063 495.421 24.5633 495.024 24.595C494.683 24.6228 494.314 24.6201 493.974 24.6497C493.449 24.6932 493.079 24.6333 492.702 24.5524C492.623 24.5355 492.488 24.5264 492.389 24.5305C491.332 24.5775 490.282 24.6303 489.225 24.6773C488.998 24.6876 488.792 24.6596 488.613 24.6086C488.428 24.5577 488.222 24.5316 487.994 24.5418C487.058 24.5847 486.122 24.6238 485.185 24.6762C484.802 24.6983 484.497 24.6744 484.233 24.6084C484.033 24.5595 483.849 24.5448 483.6 24.5512C483.33 24.5578 483.139 24.5774 483.005 24.6331C482.878 24.6869 482.971 24.7191 483.256 24.7602C483.561 24.805 483.846 24.8633 484.138 24.9158C484.372 24.9075 484.606 24.8915 484.834 24.8927C484.933 24.8924 485.026 24.9265 485.126 24.9453C485.41 24.9997 485.674 25.0542 486.078 25.0225C486.418 24.9948 486.78 24.988 487.128 24.9697C487.61 24.9473 487.61 24.9473 488.393 25.0651C488.592 25.095 488.805 25.0925 489.06 25.0745C489.28 25.0605 489.508 25.0865 489.665 25.1433C489.729 25.166 489.709 25.2042 489.576 25.3305C489.577 25.4239 489.725 25.3815 489.774 25.3203C489.851 25.2324 489.701 25.2042 489.418 25.2527C489.22 25.2877 489.121 25.3376 489.172 25.3775C489.2 25.3984 489.336 25.4247 489.576 25.3305C490.199 25.2142 490.674 25.1994 491.128 25.1675C491.397 25.1495 491.568 25.1566 491.782 25.2056C492.038 25.2639 492.295 25.3261 492.713 25.2943C493.167 25.2586 493.649 25.2533 494.11 25.2233C494.536 25.1954 494.757 25.2786 495.028 25.3274C495.355 25.3855 495.716 25.3177 496.015 25.3511C496.328 25.3845 496.549 25.4678 496.911 25.4819C497.436 25.4288 497.771 25.5232 498.17 25.5849C498.483 25.6317 498.851 25.5886 499.185 25.5666C499.56 25.5426 499.873 25.5627 500.137 25.6305C500.436 25.7078 500.77 25.6896 501.11 25.6715C501.905 25.6309 501.933 25.6251 502.396 25.7286C502.731 25.8039 503.05 25.7686 503.383 25.7581C503.675 25.8087 503.96 25.8631 504.266 25.908C504.344 25.9192 504.493 25.8997 504.614 25.8936C504.961 25.8773 505.316 25.8609 505.663 25.8446C505.898 25.8344 506.146 25.805 506.359 25.8158C506.572 25.8286 506.75 25.8833 506.943 25.919C507.135 25.9547 507.334 25.9903 507.519 26.0279C507.804 26.0842 508.074 26.1311 508.472 26.1013C508.812 26.0755 509.167 26.0668 509.521 26.0485C509.968 26.0262 509.954 26.032 510.787 26.1439C511.235 26.2055 511.695 26.1278 512.149 26.1188C512.376 26.1143 512.597 26.1346 512.754 26.1895C512.818 26.2122 512.797 26.2504 512.819 26.2827C511.649 26.3378 510.471 26.3852 509.315 26.4516C508.868 26.4777 508.633 26.4098 508.39 26.3533C507.991 26.2629 507.468 26.398 507.09 26.2809C506.862 26.211 506.535 26.172 506.145 26.2075C505.918 26.2272 505.676 26.226 505.442 26.2439C504.847 26.2877 504.3 26.2912 503.822 26.1611C503.658 26.1158 503.424 26.0917 503.253 26.0484C503.053 26.0013 502.861 25.9751 502.627 25.9854C501.57 26.0343 500.52 26.0833 499.47 26.136C499.378 26.1401 499.286 26.169 499.208 26.1902C499.01 26.2442 499.075 26.286 499.395 26.3194C499.501 26.3305 499.587 26.355 499.687 26.3738C499.879 26.4094 500.057 26.4661 500.27 26.4788C500.484 26.4915 500.732 26.4641 500.966 26.4538C501.2 26.4436 501.448 26.4142 501.661 26.425C501.874 26.4378 502.053 26.4925 502.252 26.5263C502.344 26.5432 502.459 26.5714 502.551 26.5692C503.019 26.5564 503.48 26.534 503.949 26.5154C504.24 26.566 504.49 26.6397 504.838 26.6558C505.058 26.6666 505.292 26.6449 505.52 26.648C505.619 26.6496 505.747 26.6779 505.797 26.7025C505.826 26.7177 505.734 26.7561 505.663 26.7754C505.395 26.8487 505.026 26.8364 504.692 26.8603C504.331 26.8862 504.004 26.8796 503.726 26.806C503.54 26.757 503.334 26.7309 503.107 26.7411C502.518 26.7677 501.937 26.7981 501.348 26.8208C501.248 26.8249 501.127 26.8081 501.035 26.795C500.288 26.681 500.288 26.6771 499.763 26.7035C498.989 26.7421 498.99 26.7421 498.47 26.6425C498.37 26.6238 498.263 26.5879 498.178 26.59C497.355 26.623 496.539 26.656 495.723 26.7023C495.454 26.7165 495.269 26.717 495.07 26.6681C494.899 26.6266 494.699 26.5795 494.486 26.5687C494.266 26.5579 494.025 26.5873 493.791 26.5975C493.557 26.6078 493.308 26.6333 493.102 26.6187C492.889 26.6041 492.704 26.5512 492.519 26.5136C492.326 26.4742 492.12 26.4767 491.858 26.4927C491.049 26.539 491.042 26.5333 490.238 26.4175C490.146 26.4044 490.025 26.3895 489.926 26.3937C489.337 26.4183 488.755 26.4487 488.166 26.4733C487.939 26.4836 487.719 26.4594 487.562 26.4046C487.497 26.3819 487.518 26.3437 487.474 26.2694C487.424 26.2524 487.482 26.2828 487.496 26.3113C487.603 26.3072 487.731 26.3106 487.808 26.2951C488.007 26.2583 488.105 26.2103 488.055 26.1704C488.026 26.1495 487.891 26.1232 487.806 26.1235C487.65 26.1239 487.515 26.1663 487.474 26.2694C487.028 26.3337 486.553 26.3485 486.092 26.3804C485.822 26.4003 485.652 26.3913 485.438 26.3423C485.181 26.2821 484.918 26.2237 484.499 26.2555C484.046 26.2912 483.563 26.2984 483.095 26.3265C482.556 26.3586 482.319 26.1877 481.865 26.1929C481.396 26.1981 480.928 26.2319 480.46 26.2562C480.048 26.2765 480.048 26.2765 479.195 26.1551C478.882 26.1103 478.514 26.1782 478.208 26.1314C478.001 26.1015 477.823 26.0563 477.624 26.0245C477.538 26.0114 477.403 26.0118 477.297 26.0159C476.708 26.0406 476.112 26.0576 475.545 26.1013C474.9 26.1528 474.409 26.1009 473.946 25.9898C473.364 26.0125 472.775 26.0257 472.201 26.0637C471.782 26.0916 471.54 26.0294 471.255 25.9788C471.155 25.9619 471.07 25.9336 470.963 25.9263C470.857 25.919 470.729 25.9346 470.615 25.9407C470.147 25.9631 469.665 25.9741 469.211 26.0098C468.651 26.0553 468.435 25.8996 468.002 25.8818C467.712 25.9761 467.558 26.1044 466.983 26.1156C466.515 26.1247 466.047 26.1566 465.579 26.179C465.344 26.1892 465.11 26.2014 464.876 26.2116C464.5 26.2299 464.324 26.3048 464.404 26.419C464.447 26.4818 464.484 26.5447 464.52 26.6075C464.593 26.7198 464.417 26.8157 464.119 26.8299C463.296 26.8687 462.48 26.9093 461.657 26.9442C461.437 26.9544 461.224 26.9226 461.045 26.8716C460.86 26.8207 460.654 26.7984 460.427 26.8086C459.604 26.8474 458.788 26.888 457.965 26.9229C457.873 26.927 457.752 26.9082 457.66 26.8933C457.46 26.8595 457.268 26.8201 457.076 26.7844C456.607 26.803 456.146 26.8158 455.685 26.8401C454.94 26.8767 454.94 26.8786 454.392 26.7753C454.292 26.7565 454.192 26.7206 454.1 26.7228C453.745 26.7315 453.398 26.7516 453.043 26.7699C452 26.8226 452 26.8226 451.694 26.7663C451.416 26.7137 451.167 26.6496 450.748 26.6814C450.295 26.7171 449.812 26.73 449.344 26.7505C448.996 26.7649 448.649 26.7812 448.301 26.7861C448.209 26.7882 448.109 26.7523 448.009 26.7335C447.724 26.6753 447.446 26.6284 447.057 26.662C446.83 26.6818 446.588 26.6863 446.354 26.6966C445.744 26.7251 445.744 26.7251 444.741 26.6137C444.642 26.6025 444.521 26.5895 444.422 26.5956C443.599 26.6324 442.783 26.673 441.96 26.7079C441.861 26.712 441.74 26.7009 441.64 26.6917C440.517 26.5844 440.517 26.5844 439.325 26.6414C438.871 26.6619 438.857 26.6695 438.38 26.5699C438.166 26.5267 437.988 26.5062 437.74 26.5203C436.804 26.5689 435.86 26.6023 434.931 26.6585C434.512 26.6826 434.27 26.6261 433.985 26.5755C433.886 26.5586 433.779 26.5208 433.694 26.523C432.757 26.562 431.82 26.6087 430.884 26.6478C430.799 26.6519 430.692 26.614 430.592 26.5972C430.4 26.5634 430.215 26.5125 430.001 26.5017C429.781 26.4909 429.54 26.5202 429.299 26.5305C428.71 26.5571 428.71 26.5552 428.027 26.4447C427.934 26.4297 427.813 26.4091 427.721 26.4132C426.785 26.4542 425.841 26.4894 424.912 26.5475C424.38 26.5797 424.017 26.5254 423.64 26.4465C423.561 26.4295 423.426 26.4223 423.327 26.4264C422.27 26.4735 421.22 26.5262 420.163 26.5733C419.943 26.5835 419.729 26.5517 419.551 26.5026C419.266 26.4253 418.933 26.4358 418.578 26.4541C417.762 26.4966 417.755 26.4947 417.271 26.4046C417.171 26.3858 417.086 26.3613 416.979 26.3521C416.879 26.3429 416.752 26.349 416.645 26.3531C416.177 26.3736 415.709 26.396 415.241 26.4183C414.772 26.4407 414.297 26.4536 413.836 26.4874C413.269 26.5292 412.997 26.406 412.599 26.35C412.017 26.3766 411.421 26.3936 410.846 26.4354C410.407 26.4672 410.2 26.3839 409.908 26.341C409.808 26.326 409.701 26.2939 409.609 26.298C408.552 26.3431 407.495 26.3921 406.445 26.4468C406.19 26.459 406.019 26.4442 405.805 26.3991C405.328 26.2975 405.307 26.3014 404.512 26.342C404.165 26.3602 403.831 26.3764 403.532 26.2991C403.268 26.2294 402.949 26.2132 402.573 26.2372C402.112 26.2672 401.636 26.2839 401.168 26.3044C400.7 26.3267 400.232 26.3568 399.763 26.3677C399.387 26.3784 399.159 26.2894 398.86 26.2446C398.767 26.2315 398.64 26.23 398.533 26.2341C398.065 26.2527 397.582 26.2675 397.128 26.3013C396.575 26.343 396.268 26.239 395.877 26.1792C395.792 26.1661 395.65 26.1741 395.543 26.1802C394.72 26.217 393.905 26.2576 393.082 26.2963C392.79 26.2457 392.491 26.197 392.199 26.1464C391.731 26.1669 391.263 26.1892 390.794 26.2097C390.44 26.226 390.078 26.2329 389.744 26.2625C389.312 26.3019 389.098 26.2129 388.806 26.1699C388.706 26.155 388.599 26.1229 388.507 26.127C387.918 26.1497 387.329 26.1744 386.748 26.2086C386.194 26.2427 385.972 26.0717 385.518 26.0749C385.049 26.0783 384.567 26.1045 384.113 26.1402C383.588 26.1818 383.218 26.1219 382.84 26.041C382.762 26.0241 382.627 26.015 382.528 26.0191C381.939 26.0438 381.357 26.0741 380.768 26.0988C380.669 26.1029 380.548 26.0937 380.449 26.0826C379.325 25.9734 379.325 25.9715 378.836 25.9959C378.488 26.0122 378.134 26.0323 377.779 26.043C377.679 26.0471 377.558 26.0303 377.466 26.0153C376.726 25.9012 376.726 25.8993 376.194 25.9238C375.725 25.9461 375.257 25.9685 374.789 25.9909C374.497 25.9403 374.198 25.8916 373.906 25.841C373.325 25.8676 372.729 25.8884 372.154 25.9245C371.885 25.9405 371.707 25.9354 371.501 25.8883C371.244 25.8319 370.987 25.7659 370.562 25.7996C370.108 25.8353 369.626 25.8405 369.165 25.8705C368.611 25.9065 368.382 25.7337 367.934 25.7369C367.466 25.7402 366.983 25.7665 366.53 25.8022C366.005 25.8438 365.635 25.7839 365.257 25.703C365.179 25.6861 365.044 25.677 364.945 25.6811C363.654 25.7403 362.369 25.7995 361.078 25.8625C360.284 25.9011 360.284 25.903 358.77 25.8027C358.664 25.7954 358.55 25.7881 358.443 25.7922C357.975 25.8108 357.492 25.8256 357.039 25.8594C356.485 25.9011 356.179 25.799 355.787 25.7373C355.702 25.7242 355.567 25.7322 355.454 25.7364C355.099 25.7508 354.751 25.769 354.397 25.7853C353.928 25.8077 353.46 25.8301 352.992 25.8525C352.7 25.8038 352.401 25.7532 352.109 25.7045C351.528 25.731 350.931 25.7462 350.357 25.788C349.917 25.8198 349.71 25.7403 349.419 25.6954C349.319 25.6805 349.212 25.6484 349.12 25.6506C348.063 25.6957 347.006 25.7428 345.956 25.7993C345.523 25.8235 345.323 25.7383 345.031 25.6953C344.932 25.6822 344.818 25.6578 344.725 25.6619C344.023 25.6907 343.321 25.7252 342.618 25.7598C342.221 25.78 342.221 25.78 341.353 25.6644C341.254 25.6514 341.14 25.6384 341.041 25.6425C338.813 25.7445 336.592 25.8523 334.365 25.9544C334.138 25.9646 333.932 25.9366 333.753 25.8857C333.568 25.8347 333.362 25.8086 333.135 25.8189C332.198 25.8617 331.254 25.9008 330.325 25.9532C329.942 25.9753 329.637 25.9515 329.373 25.8855C329.173 25.8365 328.989 25.818 328.74 25.8302C328.272 25.8545 327.804 25.875 327.336 25.8974C326.867 25.9197 326.399 25.9422 325.931 25.9645C325.463 25.9869 324.987 25.9998 324.526 26.0336C323.959 26.0754 323.68 25.958 323.289 25.9C322.587 25.9307 321.884 25.9615 321.189 25.9941C320.252 26.0369 319.316 26.0836 318.38 26.1246C318.294 26.1287 318.188 26.0947 318.088 26.0778C317.796 26.031 317.582 25.9649 317.149 25.9872C315.05 26.0946 312.935 26.1868 310.829 26.2923C310.389 26.3146 310.196 26.2332 309.897 26.1902C309.797 26.1771 309.683 26.1508 309.591 26.1549C308.421 26.2061 307.25 26.263 306.08 26.318C305.604 26.3404 305.604 26.3404 304.807 26.2246C304.715 26.2115 304.594 26.1947 304.494 26.1988C302.969 26.2683 301.451 26.3415 299.926 26.4129C299.699 26.4231 299.492 26.397 299.307 26.3461C299.129 26.2951 298.915 26.2672 298.695 26.2773C297.291 26.3426 295.879 26.406 294.482 26.4769C294.106 26.4972 293.793 26.4809 293.522 26.4131C293.33 26.3641 293.138 26.3437 292.897 26.3558C290.79 26.4556 288.682 26.5516 286.575 26.6572C286.171 26.6775 285.887 26.6421 285.63 26.5799C285.424 26.5309 285.246 26.5219 284.99 26.5303C284.721 26.5407 284.558 26.5621 284.41 26.6198C284.219 26.6948 284.1 26.7886 283.646 26.7957C283.177 26.8028 282.702 26.8271 282.241 26.8609C281.801 26.8947 281.594 26.8095 281.316 26.7588C281.11 26.7232 280.918 26.7181 280.656 26.736C280.415 26.752 280.266 26.7849 280.125 26.8463C279.815 26.9769 279.786 26.977 279.402 26.8962C279.195 26.8529 279.01 26.8192 278.783 26.8275C277.847 26.8684 276.91 26.9132 275.974 26.9599C275.435 26.9863 275.428 26.9902 275.022 26.896C274.822 26.849 274.63 26.8266 274.396 26.8388C271.821 26.961 269.245 27.0794 266.67 27.2073C266.273 27.2275 266.003 27.1883 265.718 27.1319C265.625 27.1131 265.533 27.0867 265.426 27.0794C265.319 27.0721 265.199 27.0801 265.085 27.0843C263.212 27.1719 261.332 27.2558 259.467 27.353C259.041 27.3752 258.813 27.3149 258.521 27.2662C258.422 27.2493 258.336 27.2229 258.229 27.2155C258.123 27.2101 257.995 27.2239 257.882 27.2299C256.009 27.3176 254.129 27.4015 252.263 27.4986C251.816 27.5209 251.623 27.4414 251.332 27.4003C251.232 27.3854 251.125 27.3571 251.033 27.3612C250.444 27.3839 249.862 27.4143 249.273 27.4409C247.869 27.508 246.464 27.5714 245.059 27.6405C244.52 27.6669 244.283 27.4978 243.829 27.5068C243.24 27.5182 242.658 27.5581 242.07 27.5865C241.601 27.6089 241.133 27.6294 240.665 27.6537C240.204 27.6761 240.204 27.6761 239.052 27.5689C238.953 27.5597 238.832 27.5467 238.732 27.5508C237.094 27.6263 235.448 27.7018 233.816 27.783C233.44 27.8013 233.128 27.7928 232.857 27.723C232.664 27.674 232.465 27.6498 232.231 27.6619C229.769 27.7781 227.315 27.8942 224.853 28.0084C224.761 28.0125 224.64 27.9938 224.547 27.9788C224.348 27.9451 224.156 27.9056 223.964 27.87C223.822 27.9142 223.638 27.9548 223.547 28.0047C223.42 28.0718 223.25 28.0914 222.98 28.1037C222.711 28.1159 222.54 28.1126 222.327 28.0637C222.07 28.0034 221.807 27.9565 221.388 27.9769C218.813 28.1048 216.238 28.2213 213.663 28.3473C213.237 28.3676 213.037 28.2843 212.738 28.2413C212.639 28.2283 212.525 28.2077 212.432 28.2118C211.375 28.2588 210.325 28.3096 209.268 28.3586C206.338 28.4971 203.408 28.6299 200.486 28.776C199.954 28.8024 199.591 28.7558 199.213 28.675C199.135 28.658 199 28.6489 198.901 28.653C194.8 28.8447 190.7 29.0382 186.606 29.2317C186.386 29.2419 186.173 29.212 185.995 29.163C185.809 29.112 185.603 29.0879 185.376 29.0981C183.503 29.1857 181.63 29.2734 179.757 29.363C179.289 29.3854 179.282 29.3873 178.798 29.2972C178.698 29.2784 178.591 29.2425 178.513 29.2466C178.35 29.2566 178.195 29.3047 178.082 29.3699C177.97 29.4389 177.792 29.4585 177.53 29.4727C177.26 29.4868 177.083 29.4816 176.876 29.4365C176.613 29.3801 176.37 29.3255 175.945 29.3458C170.56 29.6062 165.176 29.857 159.791 30.1154C159.359 30.1358 159.159 30.0563 158.86 30.0133C158.76 30.0003 158.66 29.9815 158.554 29.978C158.44 29.9745 158.32 29.9864 158.206 29.9924C149.424 30.406 140.641 30.8216 131.858 31.2352C131.333 31.2597 131.34 31.2597 130.768 31.4368C130.697 31.458 130.605 31.4869 130.506 31.491C127.817 31.6212 125.122 31.7475 122.426 31.8739C121.255 31.9289 120.085 31.9859 118.914 32.039C118.496 32.0574 118.496 32.0574 117.498 32.2664C117.413 32.2838 117.314 32.307 117.214 32.3111C112.532 32.5331 107.85 32.7551 103.161 32.9733C102.792 32.9897 102.494 33.0249 102.325 33.117C102.206 33.1822 102.05 33.2208 101.816 33.2329C98.5383 33.3877 95.2609 33.5445 91.9762 33.6955C91.586 33.7139 91.3525 33.768 91.162 33.8486C91.0986 33.8755 91.0422 33.9062 90.9502 33.9256C90.8653 33.943 90.7376 33.9491 90.6312 33.9551C87.8219 34.0876 85.0127 34.2238 82.1962 34.3506C81.7776 34.369 81.6082 34.4401 81.4035 34.515C81.3329 34.5401 81.2837 34.5745 81.1916 34.592C81.0996 34.6075 80.9647 34.6079 80.8512 34.6121C78.5101 34.7221 76.1691 34.8341 73.828 34.9441C73.3735 34.9359 73.2757 35.0469 73.0567 35.1143C72.9789 35.1374 72.9227 35.1681 72.8307 35.1836C72.7315 35.1992 72.6036 35.1976 72.4829 35.2018C70.61 35.2895 68.7373 35.3828 66.8572 35.4648C66.4244 35.4833 66.3407 35.5808 66.1074 35.6482C66.0297 35.6695 65.9522 35.7021 65.86 35.7081C64.6895 35.767 63.519 35.822 62.3484 35.8751C61.9582 35.8934 61.9582 35.8915 61.2724 36.0824C61.1947 36.1036 61.1026 36.1268 61.0033 36.1328C59.2511 36.2182 57.4918 36.2998 55.7324 36.3833C55.5054 36.3935 55.3499 36.4397 55.2373 36.5049C55.1247 36.5701 54.9621 36.6126 54.7351 36.6228C53.3304 36.6899 51.9257 36.759 50.521 36.8205C50.1308 36.8369 49.876 36.8853 49.7069 36.9717C49.5801 37.0369 49.4244 37.0698 49.1762 37.082C47.7715 37.1472 46.3669 37.2182 44.955 37.2759C44.5435 37.2924 44.3315 37.3579 44.1623 37.4385C44.0284 37.5037 43.8726 37.5271 43.6101 37.5393C41.0348 37.6577 38.4525 37.7761 35.8846 37.9059C35.4518 37.9282 35.2307 37.8621 34.946 37.8153C34.5403 37.7497 34.1631 37.6784 34.1608 37.5296C34.1605 37.5068 34.0393 37.4804 33.9539 37.4616C33.3199 37.3205 33.3199 37.3205 33.2181 37.1682C33.1599 37.0749 33.0946 36.9798 33.0434 36.8846C32.9488 36.7285 32.7209 36.6891 32.0682 36.7197C31.8341 36.7299 31.6 36.7439 31.3659 36.7523C31.0182 36.7667 30.7546 36.7045 30.689 36.5903C30.6525 36.5275 30.6091 36.4647 30.5726 36.4018C30.9273 36.3855 30.9201 36.3836 31.5413 36.151C31.8025 36.0529 31.8026 36.0529 31.2971 35.9572C31.1048 35.9215 30.9196 35.882 30.7132 35.8483C30.6207 35.8333 30.4999 35.8242 30.4006 35.8283C29.8117 35.8529 29.23 35.8814 28.6483 35.9098C27.7119 35.9546 27.7118 35.9546 26.7575 35.763C26.6792 35.7479 26.5581 35.7197 26.572 35.7044C26.649 35.6336 26.8402 35.6025 27.0815 35.5941C27.4363 35.5816 27.7838 35.5615 28.1314 35.5452C28.3655 35.535 28.5996 35.5228 28.8338 35.5126C29.0527 35.4395 29.2789 35.3682 29.4837 35.2932C29.8085 35.1778 29.8083 35.174 29.3598 35.0952C29.0751 35.0427 28.7691 34.9959 28.4773 34.9472C28.1296 34.9635 27.775 34.9817 27.4273 34.9961C26.9874 35.0146 26.8094 34.9789 26.6939 34.8553C26.5929 34.7469 26.7121 34.6531 27.0525 34.6292C27.4 34.6052 27.7265 34.589 27.9025 34.4912C28.0714 34.3972 28.369 34.3601 28.738 34.3514C28.9722 34.3449 29.2063 34.3309 29.4404 34.3187C29.7454 34.3026 29.9072 34.2048 29.8417 34.0963C29.8051 34.0258 29.7332 33.9669 29.4561 33.9525C28.2269 33.8894 28.2127 33.8914 27.6002 33.7635C27.5432 33.7523 27.5002 33.7181 27.5212 33.7008C27.5563 33.6721 27.6338 33.6299 27.7189 33.624C28.5346 33.5795 29.3504 33.539 30.1663 33.5079C30.436 33.4975 30.6346 33.4836 30.7258 33.4127C30.8521 33.3151 30.7939 33.2256 30.5444 33.1596C30.466 33.1389 30.3377 33.1126 30.2525 33.1147C29.316 33.1519 28.3867 33.1985 27.4502 33.2357C27.365 33.2398 27.2085 33.2078 27.1726 33.1831C27.1009 33.1376 27.2064 33.0762 27.4545 33.0545C27.7806 33.0249 28.1143 33.022 28.3329 32.926C28.6361 32.7896 29.0104 32.6646 29.3491 32.5338C29.4056 32.5108 29.4973 32.4666 29.476 32.4629C29.2979 32.4214 29.0915 32.3897 28.9063 32.3502C28.5929 32.2843 28.5914 32.1909 28.661 32.1011C28.7167 32.0284 28.9292 31.9992 29.1919 31.9984C29.3055 31.998 29.4475 31.9976 29.5395 31.9802C29.7802 31.9375 29.8575 31.8838 29.7362 31.8441C29.6649 31.8215 29.5367 31.7895 29.4515 31.7935C27.9333 31.861 26.4078 31.9267 24.8969 32.0094C24.45 32.0336 24.2432 31.9618 23.9727 31.9111C23.7662 31.8717 23.5741 31.857 23.319 31.8864C23.0781 31.9138 22.8436 31.8993 22.6936 31.8368C22.5721 31.7856 22.7844 31.7411 23.3587 31.6898C23.465 31.68 23.5855 31.6739 23.6633 31.6546C24.4837 31.4461 24.4836 31.4442 25.0511 31.4158C25.6045 31.3893 25.6046 31.3874 25.894 31.2759C26.0281 31.224 26.1762 31.1721 26.3032 31.1183C26.3526 31.0972 26.4373 31.0588 26.4087 31.0474C26.2516 30.9888 26.0384 30.9761 25.7901 30.9902C25.2369 31.0243 24.5835 30.9995 24.2952 31.1816C24.1826 31.2506 24.0054 31.2702 23.75 31.2824C21.1819 31.4007 18.6138 31.5267 16.0384 31.6413C15.6199 31.6597 15.4294 31.7309 15.2673 31.8095C15.1263 31.8748 14.9704 31.8944 14.7008 31.9066C14.4312 31.9189 14.2182 31.9252 14.0611 31.8628C13.9682 31.8249 14.0455 31.7713 14.2577 31.7172C14.5617 31.64 14.5035 31.5448 14.4027 31.4555C14.3308 31.3966 14.1101 31.3553 13.8759 31.3598C13.5282 31.3685 13.1949 31.3905 12.9027 31.3151C12.7317 31.2717 12.5182 31.2418 12.3259 31.2043C11.9556 31.1272 11.5852 31.0482 11.0678 31.1013C10.7125 31.0833 10.463 31.0153 10.1782 30.9628C9.70124 30.8765 9.65845 30.8633 9.99777 30.7688C10.3795 30.6628 10.0792 30.5263 10.2906 30.4227C10.5161 30.3114 10.8271 30.2132 11.1024 30.1094C11.1729 30.0825 11.2365 30.0575 11.3071 30.0306C11.1432 29.9929 10.9934 29.9457 10.8013 29.9196C10.5523 29.886 10.4239 29.8444 10.4363 29.7261C10.3864 29.7091 10.4082 29.7529 10.4651 29.7642C10.5292 29.7754 10.6854 29.7654 10.7632 29.7519C10.9615 29.715 11.06 29.667 11.0097 29.6271C10.981 29.6062 10.8458 29.58 10.7606 29.5802C10.6044 29.5807 10.4702 29.623 10.4292 29.7262C9.63531 29.8068 8.81227 29.8474 7.98925 29.8804C7.90412 29.8844 7.79711 29.8466 7.69743 29.8278C7.36989 29.764 7.36988 29.7659 6.41122 29.7497C6.3118 29.7481 6.17658 29.7218 6.12648 29.6953C5.91883 29.5795 5.92404 29.4517 5.82276 29.3281C6.00611 29.2474 6.18934 29.1687 6.37982 29.0899C6.76075 28.9304 7.25567 28.7897 7.55118 28.6153C7.48586 28.522 7.39923 28.4288 7.71043 28.3516C8.59635 28.2536 8.5893 28.2536 8.82927 28.1613C9.51392 27.8999 10.1914 27.6365 10.9045 27.3788C11.0951 27.3115 11.0946 27.2753 10.7534 27.2477C10.6468 27.2404 10.5331 27.2388 10.4195 27.243C10.0648 27.2574 9.71037 27.2928 9.3624 27.2862C9.01446 27.2815 8.75762 27.1984 8.47287 27.1477C8.18099 27.0952 7.8891 27.0408 7.5972 26.9864C7.26363 26.9931 6.93085 27.0475 6.59589 26.9627C6.3393 26.8967 6.01914 26.85 5.72724 26.7955C5.94509 26.6499 6.35521 26.5381 6.67272 26.4093C6.962 26.2921 6.96897 26.294 7.74849 26.202C8.117 26.159 8.2415 25.9431 7.92818 25.8811C7.55077 25.8059 7.15223 25.7365 6.76777 25.6652C6.43421 25.672 6.09431 25.7245 5.77354 25.6396C5.52409 25.5755 5.2394 25.5325 4.82804 25.5585C4.13297 25.6026 3.42341 25.6257 2.72113 25.6622C2.47994 25.6743 2.21708 25.6675 2.10961 25.603C2.03792 25.5574 2.24284 25.4939 2.47691 25.4798C2.83157 25.4597 3.15064 25.4358 3.32666 25.3399C3.49558 25.2441 3.80746 25.2145 4.17641 25.2C4.27574 25.1959 4.38906 25.1727 4.4384 25.1497C4.69228 25.0383 4.9748 24.9421 5.52148 24.9442C5.74807 24.9054 5.86795 24.8574 5.79626 24.8118C5.75329 24.7871 5.60379 24.7552 5.51866 24.7593C4.92973 24.7801 4.34083 24.8009 3.76633 24.837C3.4968 24.8531 3.29087 24.8575 3.11962 24.8008C2.99836 24.763 3.06145 24.7113 3.28778 24.6553C3.48582 24.6071 3.54183 24.5516 3.52665 24.4868C3.48885 24.3362 3.27517 24.293 2.59381 24.3046C2.10409 24.3137 1.98302 24.2893 1.87456 24.1599C1.84569 24.1295 1.77419 24.0877 1.82356 24.0666C2.12684 23.936 2.32318 23.7752 2.89727 23.7124C3.12409 23.6889 3.36536 23.6881 3.50658 23.6381C3.64781 23.5881 3.77478 23.5305 3.92313 23.4824C4.10683 23.4246 4.23367 23.3708 4.14793 23.3349C4.00496 23.2705 3.77778 23.2654 3.51546 23.2891C3.28859 23.3088 3.04726 23.3115 2.81316 23.3236C2.39464 23.3459 2.05321 23.2973 2.00223 23.2135C1.86397 22.9927 1.7186 22.7738 1.59454 22.553C1.57993 22.5263 1.61481 22.4919 1.67125 22.4688C1.8688 22.3881 2.08069 22.3112 2.28537 22.2324C2.52537 22.142 2.90904 22.158 3.23533 22.1399C3.69639 22.1137 3.69626 22.1156 4.31108 21.9306C4.55134 21.8574 4.97064 21.8848 5.21812 21.8192C5.29588 21.798 5.41604 21.7633 5.39446 21.7443C5.36568 21.7196 5.22348 21.7009 5.11682 21.6898C5.01726 21.6787 4.89652 21.6733 4.79012 21.6794C3.49894 21.7385 2.21496 21.8015 0.92375 21.8588C0.703825 21.869 0.461811 21.8278 0.382819 21.7689C0.303885 21.7138 0.324093 21.647 0.308934 21.5841C0.513612 21.5053 0.746684 21.4321 0.922878 21.3477C1.05677 21.2824 1.21254 21.2534 1.48224 21.2487C1.83711 21.2419 2.18465 21.218 2.58193 21.1996C3.31598 20.919 4.03557 20.625 4.82641 20.3442C5.14415 20.2307 5.06444 20.1165 5.1265 19.9961C5.1887 19.8853 5.66457 19.9011 5.98353 19.8677C6.23869 19.8402 6.32283 19.7789 6.2228 19.7373C6.16563 19.7127 6.03748 19.6844 5.9381 19.6847C5.70383 19.6854 5.46983 19.7033 5.23571 19.7135C5.00159 19.7238 4.73175 19.7189 4.54057 19.7519C4.35646 19.783 4.2367 19.8482 4.11686 19.9038C3.98291 19.9653 3.80588 19.9868 3.53617 19.9914C3.18838 19.9963 2.84081 20.0145 2.49316 20.0289C2.10868 19.9556 1.70994 19.8844 1.3396 19.8073C1.26838 19.7923 1.25343 19.7484 1.2601 19.7198C1.27316 19.6454 1.166 19.5999 0.93118 19.5644C0.731941 19.5345 0.56798 19.4911 0.382823 19.4535C0.524017 19.4016 0.679494 19.3515 0.792234 19.2959C1.03892 19.1788 1.35003 19.094 1.88962 19.0962C2.10145 19.0211 2.27038 18.9291 2.54646 18.8768C2.80837 18.8264 3.25638 18.8746 3.45344 18.7615C3.55198 18.7059 3.70018 18.6425 3.89151 18.619C4.19621 18.5819 4.59404 18.5998 4.76989 18.4924C4.87544 18.4311 5.03071 18.3753 5.23635 18.3594C5.47036 18.3415 5.7116 18.337 5.88143 18.3003C5.97342 18.2809 6.07236 18.2501 6.07195 18.2234C6.07169 18.2062 5.92941 18.18 5.82985 18.1688C5.73736 18.1557 5.61639 18.1466 5.50996 18.1507C5.15519 18.1632 4.80766 18.1852 4.45288 18.1978C4.35356 18.2019 4.2398 18.1889 4.13314 18.1777C3.82032 18.1482 3.84099 18.11 4.08841 18.0406C4.33586 17.9731 4.51212 17.8867 4.7168 17.8079C4.94376 17.7938 5.22777 17.7987 5.38339 17.762C5.64516 17.7021 5.82837 17.6157 6.04021 17.5407C6.2743 17.5285 6.51559 17.524 6.73534 17.5024C6.82751 17.4945 6.8695 17.4524 6.94721 17.4273C7.08847 17.3792 7.2082 17.3102 7.39952 17.2868C7.71136 17.2515 8.0949 17.2637 8.27787 17.1582C8.38343 17.0969 8.54565 17.0316 8.74437 17.0271C9.29797 17.0178 9.53065 16.9122 9.81309 16.8122C10.0249 16.7372 10.4799 16.774 10.713 16.6989C10.8684 16.6507 10.9812 16.5913 11.1367 16.545C11.2003 16.5257 11.335 16.5158 11.4414 16.5098C12.023 16.4794 12.6119 16.4567 13.1936 16.4244C13.2858 16.4184 13.3706 16.3895 13.4412 16.3664C13.5896 16.3164 13.6807 16.2475 13.8648 16.2145C14.0489 16.1815 14.3115 16.1807 14.5385 16.1705C15.2693 16.1397 15.3262 16.1471 15.6574 15.984C15.9252 15.8516 16.5869 15.9431 16.8047 15.7975C16.9312 15.7132 17.1644 15.6438 17.5831 15.633C18.1721 15.6179 18.7536 15.5799 19.3425 15.5533C19.8674 15.5289 19.8604 15.5289 20.4256 15.3498C20.6799 15.2689 21.0564 15.2793 21.3898 15.263C21.7446 15.2467 22.0707 15.2228 22.2397 15.1269C22.4086 15.033 22.7205 15.0015 23.0823 14.9871C23.4158 14.9727 23.7922 14.9811 24.0537 14.904C24.6898 14.719 24.6827 14.7171 25.1297 14.6967C25.832 14.6641 26.5343 14.6315 27.2366 14.5969C27.7049 14.5745 28.1946 14.5692 28.6341 14.526C28.9531 14.4945 29.0934 14.3873 29.2981 14.3123C29.8798 14.2819 30.4615 14.2515 31.0432 14.2231C31.859 14.1825 32.6819 14.1457 33.5049 14.107C33.8587 14.0334 33.9061 13.8731 34.5023 13.8636C34.8572 13.8588 35.2046 13.8329 35.5594 13.8166C36.1482 13.7881 36.7298 13.752 37.3188 13.7369C37.7659 13.726 37.8423 13.6228 38.0755 13.5572C38.1533 13.5341 38.2238 13.5015 38.316 13.4955C39.2381 13.4393 40.1891 13.425 41.0895 13.3441C41.1817 13.3362 41.2663 13.2959 41.2871 13.2672C41.3011 13.2519 41.18 13.2237 41.1017 13.2106C41.0092 13.1956 40.8883 13.1807 40.789 13.1848C37.859 13.3214 34.9292 13.4599 31.9992 13.5965C31.5878 13.6169 31.5877 13.6149 30.59 13.8277C30.5051 13.8452 30.4059 13.8645 30.2995 13.8706C29.8313 13.8949 29.3559 13.9097 28.8949 13.9397C28.519 13.9637 28.2064 13.9417 27.9355 13.8739C27.7431 13.8249 27.544 13.8102 27.3027 13.8148C27.033 13.8213 26.856 13.8428 26.7006 13.8948C26.4958 13.966 26.3907 14.0578 25.9579 14.0782C23.9643 14.1662 21.9708 14.2638 19.9844 14.3575C19.7071 14.3316 19.5717 14.292 19.6419 14.2441C19.6841 14.2153 19.7687 14.1769 19.8538 14.1729C20.6696 14.1304 21.4926 14.0936 22.3084 14.053C22.4219 14.0469 22.5781 14.0502 22.6417 14.031C22.9527 13.9442 23.0643 13.8046 23.6534 13.7933C23.994 13.7866 24.3414 13.7569 24.6676 13.7292C24.7597 13.7213 24.8443 13.681 24.8652 13.6524C24.8721 13.6371 24.758 13.6088 24.6726 13.5957C24.3594 13.5413 23.9985 13.6092 23.6855 13.572C23.5788 13.559 23.4294 13.5403 23.4077 13.5175C23.3932 13.4966 23.5134 13.4619 23.5982 13.4407C23.676 13.4213 23.7822 13.4039 23.8886 13.3978C24.825 13.3511 25.7615 13.3025 26.6981 13.2654C27.0812 13.2509 27.3502 13.2024 27.5192 13.1141C27.646 13.0489 27.8017 13.0141 28.0429 13.0039C29.6817 12.9284 31.3203 12.8452 32.9663 12.7754C33.3778 12.7589 33.5899 12.6954 33.759 12.6128C33.8929 12.5476 34.0488 12.5242 34.3113 12.512C36.6595 12.4057 38.9934 12.2881 41.3417 12.1857C41.7745 12.1672 41.9011 12.0848 42.1201 12.0136C42.1978 11.9885 42.2469 11.9579 42.346 11.9423C42.4452 11.9268 42.573 11.9283 42.6936 11.9241C44.5665 11.8364 46.4394 11.7431 48.3195 11.6611C48.7594 11.6426 48.843 11.547 49.0691 11.4796C49.1469 11.4584 49.2174 11.4238 49.3096 11.4178C50.7142 11.3488 52.1189 11.2835 53.5235 11.2163C54.46 11.1715 55.3964 11.1268 56.3328 11.0839C56.794 11.0634 56.794 11.0615 57.4159 10.8784C57.4866 10.8573 57.5857 10.8322 57.6779 10.8262C60.3736 10.696 63.0623 10.5716 65.7581 10.4433C65.9851 10.4331 66.1477 10.3887 66.2603 10.3235C66.3729 10.2583 66.5356 10.214 66.7556 10.2038C68.8625 10.102 70.9695 10.0023 73.0836 9.90625C73.4667 9.88984 73.7357 9.84325 73.9048 9.75691C74.0316 9.69169 74.1872 9.6569 74.4284 9.64663C76.5355 9.54874 78.6425 9.44511 80.7567 9.35101C81.1611 9.33263 81.3588 9.26719 81.5564 9.19031C81.6269 9.16339 81.6831 9.11936 81.7682 9.11528C82.8181 9.05872 83.8607 9.00027 84.9179 8.96084C85.3579 8.94426 85.5058 8.86371 85.6821 8.78689C85.8231 8.72543 85.9861 8.70397 86.2558 8.69552C86.8447 8.67659 87.4263 8.64242 88.0008 8.60827C88.0859 8.60229 88.1918 8.56001 88.1985 8.53329C88.212 8.48366 88.0481 8.44982 87.7781 8.43347C84.9687 8.5659 82.1524 8.69834 79.3431 8.83078C78.882 8.85315 78.8819 8.85316 78.26 9.03622C78.1893 9.05741 78.0902 9.08251 77.9909 9.08853C75.2951 9.2168 72.6065 9.34315 69.9107 9.47143C69.6837 9.48165 69.5211 9.526 69.4085 9.59119C69.2959 9.65637 69.1331 9.70073 68.9132 9.71093C66.338 9.83312 63.7629 9.95722 61.1805 10.0737C60.7974 10.0901 60.5284 10.1348 60.3593 10.223C60.2325 10.2883 60.0769 10.3231 59.8357 10.3333C57.3739 10.4475 54.9193 10.5675 52.4504 10.6779C52.2021 10.6882 52.0168 10.6334 52.0302 10.5819C52.0369 10.5552 52.1425 10.511 52.2277 10.5069C53.5116 10.4401 54.7886 10.3714 56.0799 10.3198C56.5127 10.3033 56.6391 10.219 56.8581 10.1478C56.9287 10.1227 56.985 10.0902 57.0771 10.0765C57.1763 10.061 57.3041 10.0625 57.4247 10.0583C60.4681 9.91374 63.5116 9.76726 66.5622 9.63028C67.0021 9.60989 67.0857 9.51617 67.3119 9.44873C67.3896 9.42561 67.4601 9.39108 67.5524 9.38699C68.4887 9.33839 69.4252 9.29551 70.3616 9.25264C72.0004 9.17523 73.6391 9.09782 75.285 9.02038C75.7603 8.99797 75.7603 8.99796 76.3681 8.81685C76.4388 8.79566 76.5378 8.76868 76.6301 8.76459C80.9646 8.5589 85.2992 8.35321 89.6338 8.14943C89.8609 8.13921 90.0234 8.09485 90.136 8.02967C90.2487 7.96639 90.4112 7.92013 90.6311 7.90802C96.4909 7.63098 102.344 7.35396 108.204 7.08074C108.587 7.06242 108.856 7.02155 109.025 6.9314C109.144 6.8662 109.307 6.83139 109.548 6.81922C115.99 6.51563 122.432 6.21206 128.88 5.90655C133.215 5.70277 137.549 5.49517 141.884 5.29521C142.281 5.27684 142.493 5.21707 142.691 5.13828C142.754 5.11139 142.818 5.06733 142.903 5.06326C143.832 5.01278 144.761 4.96612 145.691 4.91945C145.982 4.97007 146.274 5.01879 146.566 5.0694C146.785 4.99627 146.997 4.92124 147.216 4.84811C148.621 4.78857 150.004 4.69857 151.423 4.6676C151.515 4.66541 151.615 4.70135 151.715 4.72013C152.377 4.83829 152.753 4.82762 153.169 4.66616C153.318 4.60849 153.445 4.55661 153.672 4.54639C154.374 4.50995 155.084 4.48492 155.779 4.44278C156.155 4.42067 156.467 4.43879 156.738 4.50664C156.93 4.55564 157.13 4.57604 157.364 4.56389C158.655 4.50278 159.939 4.4436 161.23 4.37868C161.322 4.37458 161.407 4.34189 161.477 4.3188C161.626 4.26876 161.753 4.21499 161.894 4.16307C162.086 4.19491 162.3 4.21907 162.456 4.26055C162.656 4.30954 162.84 4.30897 163.11 4.29481C168.26 4.04852 173.418 3.80793 178.568 3.55974C179.008 3.53934 179.201 3.61887 179.5 3.65993C179.599 3.67489 179.699 3.69365 179.806 3.69714C179.919 3.70062 180.04 3.68882 180.153 3.68276C184.02 3.49946 187.886 3.31806 191.752 3.13476C192.263 3.11033 192.263 3.11033 193.025 3.22629C193.117 3.24127 193.238 3.25807 193.337 3.25205C195.097 3.17237 196.856 3.08697 198.608 3.0054C198.835 2.99518 199.028 3.02511 199.234 3.06836C199.64 3.15296 199.668 3.15288 199.965 3.02611C200.106 2.96657 200.254 2.92986 200.488 2.91199C200.743 2.89215 200.95 2.89727 201.149 2.931C201.434 2.97783 201.641 3.05729 202.073 3.03501C203.946 2.93973 205.826 2.85969 207.692 2.76252C208.118 2.74026 208.346 2.80442 208.63 2.85124C208.73 2.86811 208.823 2.89453 208.929 2.89993C209.036 2.90533 209.163 2.89158 209.277 2.88552C211.618 2.77548 213.966 2.66734 216.3 2.54969C216.74 2.52739 216.933 2.6088 217.232 2.64986C217.331 2.66482 217.445 2.69119 217.537 2.6871C218.942 2.62374 220.354 2.55653 221.759 2.48936C222.262 2.46496 222.262 2.46686 223.031 2.58089C223.123 2.59587 223.244 2.61077 223.344 2.60665C224.982 2.53115 226.628 2.45372 228.267 2.3763C228.771 2.3519 228.771 2.3519 230.228 2.44669C230.334 2.454 230.448 2.46512 230.554 2.46098C232.427 2.37333 234.307 2.28755 236.18 2.19418C236.556 2.17588 236.869 2.19019 237.139 2.25803C237.332 2.30704 237.531 2.32743 237.765 2.31529C239.872 2.21548 241.986 2.11948 244.086 2.01398C244.49 1.99369 244.754 2.03484 245.038 2.08929C245.131 2.10808 245.224 2.13451 245.33 2.14182C245.437 2.14913 245.557 2.14113 245.671 2.13507C247.778 2.03526 249.892 1.94117 251.992 1.83376C252.417 1.8115 252.646 1.87565 252.93 1.92247C253.03 1.93934 253.137 1.97335 253.222 1.97119C254.045 1.93628 254.868 1.90521 255.684 1.85507C256.124 1.82704 256.317 1.91418 256.615 1.95524C256.715 1.96829 256.829 1.99657 256.921 1.99248C258.681 1.91279 260.44 1.8293 262.192 1.74392C262.441 1.73173 262.625 1.74832 262.825 1.79731C263.089 1.86327 263.394 1.88905 263.777 1.86692C264.593 1.82059 265.416 1.78761 266.239 1.74889C266.721 1.72646 266.721 1.72646 268.199 1.82119C268.306 1.82849 268.42 1.83959 268.526 1.83545C269.931 1.77019 271.343 1.70682 272.74 1.63585C273.116 1.61565 273.429 1.63187 273.7 1.69971C273.892 1.74872 274.084 1.76913 274.325 1.75696C275.616 1.69586 276.901 1.63477 278.192 1.57366C278.66 1.55127 279.128 1.51361 279.596 1.5122C279.937 1.51308 280.187 1.60387 280.493 1.64873C280.578 1.66182 280.72 1.64615 280.834 1.642C282.472 1.56459 284.118 1.49287 285.75 1.40594C286.175 1.38368 286.404 1.44784 286.688 1.49466C286.788 1.51152 286.895 1.54553 286.98 1.54337C287.569 1.52062 288.151 1.49025 288.74 1.46369C289.442 1.43105 290.151 1.40603 290.846 1.36198C291.414 1.32594 291.629 1.49121 292.084 1.49557C292.432 1.50024 292.786 1.46675 293.134 1.45045C293.836 1.41782 294.538 1.38138 295.241 1.35256C295.489 1.34227 295.68 1.31117 295.758 1.24228C295.772 1.22888 295.65 1.20065 295.572 1.18372C294.625 0.992038 294.625 0.992029 293.674 1.03685C293.085 1.06533 292.504 1.09378 291.915 1.11845C291.815 1.12256 291.702 1.10764 291.602 1.0965C291.318 1.06494 291.345 1.02671 291.586 0.957326C291.826 0.887942 292.009 0.803479 292.214 0.724666C292.506 0.773375 292.791 0.822087 293.082 0.870796C293.317 0.860555 293.551 0.848423 293.785 0.838182C294.955 0.785068 296.126 0.730043 297.297 0.680743C297.382 0.676672 297.489 0.7145 297.588 0.733272C297.873 0.787724 298.13 0.83462 298.541 0.812401C299.591 0.753929 300.648 0.710692 301.698 0.659849C302.159 0.63748 302.159 0.637482 302.97 0.753288C303.063 0.76636 303.183 0.781254 303.283 0.777141C304.34 0.73009 305.39 0.679252 306.447 0.630295C306.674 0.620074 306.894 0.644203 307.058 0.699019C307.123 0.721712 307.109 0.759891 307.384 1.07185C308.225 1.32298 308.8 1.29456 309.382 1.26992C309.63 1.25963 309.85 1.24943 310.012 1.21079C310.097 1.18956 310.203 1.15872 310.203 1.13392C310.203 1.11485 310.046 1.0848 309.947 1.08129C309.243 1.04526 308.577 1.12738 307.889 1.14662C307.569 1.15521 307.292 1.0893 307.233 0.98076C307.218 0.950288 307.197 0.917933 307.175 0.887483C307.153 0.857032 307.139 0.824655 307.117 0.794205C306.84 0.785503 306.677 0.820318 306.557 0.885525C306.459 0.939224 306.318 1.00068 306.126 1.02987C305.935 1.06096 305.672 1.05604 305.438 1.06628C305.211 1.0765 304.963 1.10204 304.75 1.08933C304.537 1.07471 304.366 1.01991 304.166 0.98618C304.074 0.969293 303.96 0.944852 303.868 0.948944C303.052 0.983825 302.243 1.01867 301.434 1.06307C301.009 1.08724 300.794 1.00779 300.524 0.959016C300.31 0.921514 300.097 0.93168 300.063 1.01952C299.974 1.22958 300.302 1.31632 301.026 1.27409C301.621 1.23796 302.161 1.23063 302.631 1.35891C302.696 1.37588 302.845 1.38306 302.937 1.37897C303.519 1.35433 304.093 1.32398 304.675 1.29935C304.781 1.29521 304.895 1.30248 304.995 1.30981C306.445 1.40844 306.445 1.41035 306.934 1.38599C307.168 1.37385 307.395 1.36362 307.369 1.0738C307.812 0.76159 308.522 0.738476 309.209 0.69063C309.656 0.660676 309.849 0.744017 310.141 0.787005C310.24 0.801963 310.347 0.83215 310.44 0.828058C311.965 0.760525 313.483 0.689189 315.001 0.614049C315.257 0.601836 315.441 0.612725 315.641 0.661712C315.897 0.723878 316.182 0.763081 316.586 0.738977C317.395 0.690767 318.218 0.659686 319.041 0.619063C319.459 0.598729 319.459 0.59871 320.306 0.714408C320.398 0.72748 320.519 0.742375 320.619 0.738262C321.442 0.703359 322.258 0.660862 323.073 0.624074C323.301 0.613854 323.507 0.639932 323.685 0.69089C323.863 0.741848 324.077 0.767904 324.297 0.757705C325.12 0.720896 325.935 0.680306 326.751 0.643518C326.851 0.639405 326.971 0.65239 327.064 0.665462C327.932 0.781097 327.932 0.781077 328.329 0.760808C328.911 0.730448 329.507 0.715316 330.081 0.675441C330.641 0.635609 330.934 0.745337 331.319 0.805211C332.369 0.758182 333.426 0.71877 334.468 0.662226C334.894 0.638057 335.122 0.700303 335.407 0.749034C335.507 0.765899 335.606 0.801839 335.699 0.799654C336.053 0.790956 336.401 0.768933 336.749 0.752628C337.096 0.736323 337.451 0.719998 337.799 0.703694C338.197 0.757803 338.462 0.886696 339.029 0.841121C339.369 0.813395 339.731 0.806583 340.079 0.790278C340.427 0.773973 340.781 0.757648 341.129 0.741343C341.363 0.731102 341.604 0.724645 341.831 0.706797C342.25 0.676928 342.457 0.769769 342.756 0.810828C342.855 0.823879 342.969 0.846408 343.061 0.842315C343.764 0.813498 344.473 0.788476 345.161 0.742537C345.693 0.706605 346.056 0.762736 346.434 0.841703C346.512 0.858632 346.647 0.867761 346.746 0.863647C347.569 0.828745 348.385 0.786225 349.201 0.749437C349.421 0.739238 349.634 0.76911 349.813 0.818161C349.998 0.869098 350.204 0.89329 350.431 0.88307C351.247 0.846282 352.07 0.805647 352.886 0.768859C352.985 0.764746 353.106 0.779642 353.199 0.794621C353.995 0.91047 353.996 0.912378 354.464 0.888081C354.577 0.882018 354.698 0.877825 354.811 0.871762C355.393 0.843308 355.996 0.831968 356.564 0.784485C357.216 0.731025 357.692 0.794438 358.156 0.901756C358.737 0.877117 359.333 0.861968 359.901 0.822114C360.326 0.792224 360.555 0.864007 360.839 0.91083C360.939 0.927695 361.046 0.961704 361.131 0.957633C361.954 0.922731 362.777 0.891653 363.586 0.841537C364.025 0.813511 364.218 0.898739 364.517 0.941706C364.617 0.956663 364.724 0.983057 364.816 0.978965C365.284 0.962296 365.753 0.937987 366.221 0.915597C366.767 0.889158 366.767 0.891064 367.493 1.00522C367.834 1.0595 368.175 1.01461 368.508 1.00025C368.863 0.983925 369.196 0.971481 369.481 1.04882C369.659 1.09787 369.873 1.12774 370.093 1.11945C370.561 1.10088 371.037 1.08229 371.498 1.05229C371.866 1.02829 372.186 1.04258 372.457 1.11233C372.649 1.16134 372.848 1.18555 373.083 1.1734C374.133 1.12446 375.19 1.07358 376.24 1.02655C376.332 1.02246 376.46 1.03925 376.545 1.05615C376.744 1.08988 376.937 1.12744 377.129 1.16501C377.59 1.14645 378.066 1.13741 378.52 1.10934C379.002 1.08119 379.442 1.07032 379.82 1.17408C379.898 1.19673 380.012 1.2288 380.105 1.22661C380.459 1.21791 380.807 1.1978 381.155 1.18149C381.502 1.16519 381.857 1.14886 382.205 1.13256C382.61 1.17902 382.868 1.31556 383.435 1.26999C383.775 1.24226 384.137 1.23545 384.485 1.21914C384.833 1.20284 385.187 1.18461 385.535 1.17021C385.648 1.16605 385.776 1.15613 385.875 1.16346C385.982 1.17076 386.075 1.19719 386.167 1.21598C386.452 1.27044 386.716 1.32496 387.12 1.29132C387.46 1.26359 387.822 1.25678 388.17 1.23857C388.645 1.21615 388.645 1.21616 389.435 1.33394C389.755 1.38256 390.116 1.31663 390.422 1.35767C390.628 1.38565 390.807 1.43279 391.006 1.46461C391.091 1.4777 391.226 1.48301 391.325 1.4789C391.794 1.46032 392.269 1.44173 392.73 1.41173C393.106 1.38772 393.419 1.40966 393.682 1.47752C393.875 1.52653 394.067 1.54694 394.308 1.53477C395.479 1.47785 396.649 1.42853 397.813 1.3659C398.21 1.34373 398.53 1.37519 398.751 1.44319C399.129 1.5603 399.659 1.41948 400.051 1.51366C400.293 1.57205 400.536 1.63999 400.976 1.61005C401.784 1.55803 402.607 1.52883 403.423 1.49205C403.715 1.54266 404.007 1.59329 404.306 1.64388C404.774 1.62149 405.242 1.59909 405.71 1.57861C406.058 1.5623 406.413 1.54407 406.76 1.52967C406.874 1.52552 406.994 1.51752 407.101 1.52674C407.208 1.53595 407.293 1.5605 407.393 1.57927C407.884 1.67124 407.884 1.67316 408.693 1.63258C409.04 1.61437 409.374 1.60192 409.666 1.67733C409.937 1.74708 410.257 1.75946 410.625 1.73737C411.321 1.69713 412.023 1.66641 412.733 1.63757C412.952 1.62737 413.159 1.65917 413.344 1.7082C413.622 1.78556 413.963 1.77691 414.31 1.75488C414.771 1.72679 415.225 1.69873 415.617 1.80435C415.696 1.827 415.817 1.85904 415.902 1.85688C416.484 1.83987 417.073 1.82666 417.64 1.78871C418.208 1.75077 418.486 1.86817 418.878 1.92421C419.46 1.89766 420.048 1.87109 420.63 1.84455C420.744 1.83848 420.878 1.82092 420.978 1.83016C421.397 1.86895 421.641 2.01125 422.215 1.96566C422.548 1.93986 422.91 1.93115 423.258 1.92438C423.35 1.9222 423.472 1.95424 423.536 1.97884C423.572 1.99208 423.537 2.02842 423.494 2.04762C423.367 2.10141 423.212 2.15148 423.099 2.20713C423.085 2.2148 423.22 2.24871 423.299 2.26373C423.491 2.29748 423.711 2.29111 423.966 2.27508C424.186 2.26107 424.414 2.28708 424.571 2.34383C424.635 2.36652 424.614 2.40472 424.481 2.531C424.483 2.62445 424.631 2.58204 424.68 2.52086C424.757 2.43289 424.607 2.40474 424.324 2.45327C424.126 2.4882 424.027 2.53809 424.077 2.57799C424.106 2.59888 424.241 2.62518 424.481 2.531C425.104 2.41469 425.573 2.39231 426.041 2.36992C426.161 2.36384 426.303 2.34432 426.388 2.35551C426.694 2.40036 426.979 2.45482 427.278 2.50542C427.619 2.49295 427.938 2.46337 428.272 2.53674C428.743 2.64022 428.764 2.63063 429.218 2.60828C429.452 2.59613 429.686 2.5859 429.92 2.57566C430.154 2.56542 430.339 2.59346 430.546 2.63671C430.966 2.72508 431.001 2.72497 431.276 2.60208C431.439 2.52721 431.552 2.50208 431.758 2.53579C432.441 2.65007 432.449 2.65767 433.03 2.62159C433.513 2.59153 433.967 2.58253 434.323 2.69017C434.566 2.76573 434.644 2.74833 434.834 2.66765C435.342 2.45442 435.576 2.45752 436.537 2.60721C436.985 2.67833 437.446 2.59876 437.9 2.58785C438.283 2.57907 438.554 2.62402 438.584 2.74408C438.606 2.8184 438.671 2.87162 438.927 2.89564C439.026 2.90488 439.147 2.91786 439.247 2.91374C439.836 2.88908 440.417 2.86063 441.006 2.83215C441.304 2.8179 441.466 2.72779 441.407 2.60972C441.342 2.48404 441.454 2.43791 441.88 2.40039C442.135 2.37864 442.341 2.38185 442.547 2.41556C442.775 2.45302 442.712 2.48754 442.514 2.5568C442.041 2.72606 442.099 2.82885 442.712 2.94335C442.925 2.98276 443.096 3.0185 443.147 3.07747C443.176 3.1079 443.148 3.14803 443.212 3.17073C443.562 3.29746 444.046 3.37802 444.586 3.43742C445.104 3.38437 445.46 3.46911 445.859 3.53656C446.172 3.58902 446.54 3.54215 446.874 3.52208C447.249 3.49996 447.562 3.51427 447.833 3.58403C448.025 3.63303 448.224 3.65531 448.459 3.64507C448.927 3.62268 449.402 3.60791 449.863 3.576C450.26 3.5481 450.559 3.58535 450.809 3.64945C451.122 3.73051 451.469 3.67415 451.796 3.68461C452.236 3.69663 452.459 3.8657 453.033 3.8182C453.374 3.79047 453.728 3.77987 454.083 3.77117C454.176 3.76899 454.29 3.80107 454.368 3.82372C454.746 3.92748 455.186 3.92043 455.668 3.88846C456.002 3.86648 456.328 3.84643 456.655 3.91792C457.197 4.03835 457.795 4.14336 458.365 4.25418C458.444 4.34167 458.389 4.44481 458.794 4.49508C459.007 4.52114 459.207 4.56061 459.371 4.60398C459.57 4.65487 459.755 4.66767 460.01 4.65355C460.471 4.62546 460.954 4.61827 461.408 4.58257C461.826 4.55079 462.09 4.61296 462.346 4.67131C462.553 4.71837 462.745 4.74067 462.993 4.70559C463.248 4.6724 463.433 4.69281 463.64 4.74368C463.932 4.81337 463.953 4.80569 464.919 4.82376C465.018 4.82537 465.139 4.8536 465.196 4.87822C465.225 4.89148 465.162 4.92984 465.112 4.94906C465.049 4.97214 464.95 4.99913 464.858 5.00512C463.808 5.05788 462.751 5.10493 461.701 5.15768C461.594 5.16372 461.481 5.17742 461.403 5.19673C461.318 5.21797 461.212 5.24688 461.213 5.27358C461.213 5.29265 461.355 5.31511 461.455 5.32816C461.768 5.37109 462.136 5.30323 462.442 5.35189C462.648 5.3837 462.819 5.42894 463.026 5.45884C463.111 5.47193 463.246 5.46963 463.353 5.46549C463.707 5.45107 464.055 5.43096 464.41 5.41844C464.509 5.41624 464.623 5.43498 464.715 5.44995C465.399 5.56233 465.399 5.56232 465.987 5.53576C466.222 5.52552 466.47 5.49616 466.69 5.50694C466.903 5.51774 467.088 5.56867 467.281 5.60052C467.679 5.66798 468.056 5.73359 468.087 5.88227C468.102 5.93944 468.337 5.98831 468.571 5.99142C468.799 5.99455 469.04 5.97286 469.274 5.96071C469.827 5.93616 469.827 5.93616 470.546 6.05033C470.745 6.08216 470.958 6.08532 471.213 6.06548C471.313 6.05755 471.434 6.06483 471.54 6.07404C471.889 6.1016 471.889 6.13783 471.663 6.20717C471.345 6.30921 471.374 6.31867 472.269 6.40179C472.611 6.43319 472.874 6.49343 473.159 6.54598C473.622 6.63041 473.615 6.63041 473.311 6.74385C473.241 6.76886 473.177 6.79576 473.106 6.82267C472.902 6.89767 472.74 6.97826 472.314 6.98717C471.845 6.99621 471.377 7.02815 470.909 7.05054C470.455 7.07289 470.335 7.119 470.38 7.24856C470.432 7.4048 470.524 7.42169 471.341 7.41732C471.575 7.41662 471.781 7.43125 471.959 7.48221C471.875 7.54349 471.72 7.59164 471.493 7.60377C470.911 7.63413 470.322 7.6607 469.74 7.68725C469.272 7.70964 468.804 7.73202 468.336 7.75441C468.045 7.76864 467.862 7.86838 467.942 7.97875C467.985 8.04156 468.021 8.10439 468.058 8.16722C468.138 8.29286 468.288 8.32484 468.763 8.31768C468.884 8.31541 468.997 8.2998 469.111 8.30327C469.572 8.31523 469.795 8.47286 470.348 8.43877C470.809 8.41068 471.292 8.40351 471.746 8.36781C472.164 8.33603 472.399 8.404 472.691 8.45462C472.791 8.47148 472.898 8.50738 472.983 8.50522C473.572 8.48246 474.161 8.45973 474.735 8.42176C475.005 8.40569 475.168 8.41663 475.382 8.46176C475.895 8.57084 475.909 8.56507 476.668 8.52846C477.221 8.50009 477.228 8.50388 477.94 8.61808C478.139 8.6499 478.352 8.64925 478.608 8.63323C478.941 8.61315 479.288 8.58159 479.637 8.60915C479.743 8.61646 479.879 8.63894 479.914 8.66363C479.936 8.68073 479.837 8.72299 479.752 8.73659C479.129 8.83765 478.398 8.82269 477.717 8.86479C477.504 8.87688 477.29 8.84128 477.112 8.79032C476.927 8.73938 476.728 8.71901 476.486 8.72927C476.018 8.75166 475.543 8.76644 475.082 8.79834C474.685 8.82624 474.407 8.78321 474.129 8.72492C474.037 8.70613 473.93 8.6702 473.838 8.67239C472.787 8.7137 471.73 8.75504 470.688 8.81158C470.269 8.83573 470.027 8.77543 469.742 8.72479C469.642 8.70793 469.542 8.67199 469.45 8.67417C469.095 8.68287 468.748 8.70489 468.393 8.72122C467.102 8.78233 465.818 8.84341 464.527 8.90071C464.441 8.90478 464.334 8.86504 464.235 8.84818C464.043 8.81442 463.843 8.7826 463.644 8.75078C463.289 8.7671 462.942 8.78722 462.587 8.79973C462.331 8.80813 462.105 8.83553 462.07 8.9081C462.05 8.95585 462.285 8.999 462.533 8.99444C462.775 8.98989 463.016 8.96628 463.215 8.99047C464.203 9.10956 464.203 9.11147 464.821 9.08482C465.36 9.0603 465.303 9.0414 465.78 9.14486C465.986 9.19001 466.171 9.21616 466.406 9.20402C466.987 9.17556 467.576 9.14708 468.165 9.12242C468.257 9.11833 468.378 9.13705 468.471 9.15202C469.168 9.26436 469.168 9.26817 469.743 9.23783C470.495 9.20123 470.523 9.19161 471.029 9.30643C471.378 9.38548 471.696 9.32921 472.03 9.32439C472.415 9.39761 472.834 9.46311 473.184 9.54598C473.597 9.64391 474.03 9.62543 474.498 9.59541C474.845 9.57338 475.186 9.56473 475.471 9.64206C475.742 9.71372 476.068 9.72038 476.437 9.7002C476.771 9.68203 477.111 9.64476 477.46 9.68566C477.552 9.69683 477.694 9.72502 477.687 9.7422C477.681 9.76893 477.589 9.80735 477.497 9.81907C476.845 9.89923 476.128 9.89948 475.44 9.93779C475.348 9.94379 475.227 9.92317 475.134 9.90819C474.935 9.87446 474.743 9.83499 474.55 9.79933C474.203 9.81182 473.848 9.8167 473.508 9.84061C473.245 9.85857 473.046 9.85728 472.854 9.81208C472.676 9.77066 472.483 9.71973 472.27 9.70702C472.057 9.69431 471.809 9.72367 471.575 9.73582C471.341 9.74797 471.071 9.74305 470.887 9.77412C470.703 9.80519 470.59 9.87229 470.47 9.92605C470.336 9.98558 470.152 10.0052 469.882 10.0118C469.634 10.0182 469.435 10.0112 469.25 9.95834C469.171 9.93569 469.064 9.91884 468.958 9.90391C468.858 9.89086 468.744 9.87021 468.652 9.8743C467.595 9.92136 466.545 9.97222 465.488 10.0212C464.963 10.0456 464.97 10.0456 463.875 9.93637C463.776 9.92714 463.655 9.91416 463.555 9.91827C462.967 9.94293 462.385 9.97139 461.796 9.99986C461.2 10.0284 461.207 10.0245 460.19 9.90743C460.005 9.8851 459.736 9.91643 459.516 9.91328C459.054 9.90513 458.825 9.74562 458.286 9.77776C457.825 9.80585 457.342 9.81302 456.881 9.84874C456.462 9.88052 456.22 9.8145 455.935 9.76386C455.836 9.747 455.729 9.70917 455.643 9.71324C454.586 9.75839 453.536 9.80923 452.131 9.81919C451.783 9.82023 451.94 9.85982 452.167 9.87248C452.494 9.89248 452.6 9.85211 452.421 9.77636C452.293 9.72334 452.108 9.69718 451.959 9.71098C451.881 9.71884 451.782 9.75539 452.131 9.81919C452.501 9.89055 452.481 9.93065 452.545 9.95334C452.702 10.0082 452.922 10.0304 453.149 10.0221C453.504 10.0077 453.852 9.98756 454.206 9.97504C454.306 9.97093 454.427 9.98392 454.519 9.9989C455.302 10.1148 455.309 10.1224 456.139 10.0741C456.401 10.06 456.593 10.0594 456.799 10.095C457.084 10.1438 457.291 10.227 457.724 10.199C458.299 10.1611 458.887 10.1383 459.476 10.1156C459.569 10.1115 459.668 10.1455 459.775 10.1604C460.067 10.2053 460.281 10.2905 460.714 10.253C461.047 10.2234 461.409 10.2146 461.764 10.2078C461.856 10.2057 461.998 10.2358 462.041 10.2604C462.127 10.304 462.021 10.3558 461.781 10.3928C461.682 10.4084 461.547 10.405 461.433 10.411C460.965 10.4334 460.497 10.4577 460.028 10.4763C459.78 10.4866 459.546 10.5159 459.519 10.5865C459.498 10.6343 459.755 10.6755 459.996 10.6709C460.351 10.6641 460.705 10.6478 461.046 10.622C461.649 10.5782 462.174 10.5881 462.666 10.7067C463.015 10.7896 462.993 10.7592 463.366 11.006C463.459 11.0686 463.736 11.0735 463.978 11.069C464.56 11.0577 464.83 11.0855 464.781 11.1448C464.718 11.2174 464.513 11.2409 464.25 11.2512C463.782 11.2679 463.314 11.2941 462.845 11.3165C462.732 11.3226 462.604 11.3344 462.498 11.3309C462.391 11.3274 462.292 11.3048 462.199 11.2879C462 11.2523 461.828 11.1975 461.615 11.1848C461.402 11.1721 461.154 11.2014 460.92 11.2136C460.686 11.2238 460.438 11.2532 460.225 11.2405C460.012 11.2278 459.833 11.1711 459.641 11.1374C459.548 11.1205 459.434 11.0941 459.342 11.0963C458.874 11.1129 458.406 11.1392 457.938 11.1596C457.363 11.1862 457.363 11.1862 456.665 11.07C456.466 11.0363 456.26 11.0388 455.998 11.0549C455.43 11.0871 455.423 11.0814 454.385 10.9739C454.285 10.9628 454.164 10.9498 454.065 10.9558C453.008 11.0028 451.958 11.0537 450.908 11.1026C450.007 11.1454 450.007 11.1454 449.513 11.3376C449.146 11.4799 449.139 11.4799 449.502 11.5436C449.794 11.5961 450.058 11.6735 450.378 11.7012C450.676 11.727 451.044 11.6401 451.372 11.7268C451.536 11.7702 451.75 11.8172 451.956 11.8242C452.282 11.8328 452.629 11.7764 452.943 11.8594C453.1 11.9009 453.335 11.944 453.534 11.9454C453.882 11.9481 454.236 11.9165 454.584 11.9021C454.69 11.898 454.811 11.8976 454.91 11.9069C455.017 11.918 455.11 11.9406 455.202 11.9594C455.487 12.0234 455.793 12.053 456.162 12.0194C456.764 11.9642 457.304 11.9893 457.775 12.1099C457.839 12.1269 457.995 12.1284 458.094 12.1204C458.349 12.1006 458.569 12.098 458.762 12.1337C458.84 12.1487 458.954 12.175 458.94 12.1922C458.919 12.2209 458.835 12.2593 458.742 12.2691C458.076 12.336 457.359 12.3458 456.671 12.3822C456.579 12.3863 456.465 12.3618 456.372 12.3449C456.173 12.3112 456.002 12.2545 455.789 12.2418C455.576 12.2291 455.327 12.2546 455.093 12.2649C454.859 12.2751 454.611 12.3045 454.398 12.2937C454.185 12.281 453.985 12.2339 453.814 12.1924C453.615 12.1454 453.423 12.1402 453.161 12.1601C452.82 12.1859 452.465 12.1908 452.118 12.2052C451.926 12.1695 451.733 12.13 451.534 12.0963C451.441 12.0794 451.328 12.0588 451.228 12.061C450.76 12.0777 450.292 12.102 449.823 12.1243C449.355 12.1467 449.355 12.1468 448.558 12.0309C448.466 12.0178 448.345 12.0029 448.245 12.0071C447.657 12.0317 447.075 12.0621 446.486 12.0867C446.259 12.0969 446.053 12.0709 445.868 12.0199C445.689 11.969 445.476 11.941 445.256 11.9512C444.319 11.9941 443.383 12.035 442.447 12.0855C442.071 12.1057 441.751 12.0895 441.494 12.0217C441.195 11.9444 440.862 11.9644 440.514 11.9808C439.727 12.0213 439.719 12.0194 439.214 11.9236C439.114 11.9049 439.014 11.8689 438.922 11.8711C438.106 11.9022 437.283 11.9313 436.474 11.9796C436.049 12.0056 435.821 11.9396 435.536 11.8908C435.436 11.874 435.329 11.8381 435.244 11.8421C434.655 11.8649 434.066 11.8857 433.492 11.9256C432.917 11.9655 432.695 11.7888 432.262 11.792C431.672 11.7957 431.091 11.8413 430.509 11.8698C430.041 11.8921 429.573 11.9145 429.105 11.9369C428.636 11.9593 428.168 11.9779 427.7 12.0041C427.452 12.0182 427.267 12.0016 427.06 11.9545C426.797 11.8924 426.484 11.8437 426.199 11.7874C425.764 11.7067 425.764 11.7067 425.239 11.7311C425.126 11.7372 425.005 11.7414 424.892 11.7474C424.033 11.792 424.033 11.7882 422.938 11.6713C422.889 11.6657 422.761 11.6871 422.712 11.7025C422.563 11.7526 422.429 11.8063 422.295 11.8582C422.103 11.8283 421.869 11.8119 421.74 11.7684C421.376 11.6455 420.811 11.8169 420.44 11.696C420.304 11.6506 420.069 11.6113 419.856 11.6005C419.636 11.5897 419.388 11.6172 419.161 11.6293C418.572 11.6597 418.572 11.6578 418.071 11.829C417.816 11.9137 417.447 11.8995 417.114 11.9196C416.766 11.9417 416.433 11.9541 416.14 11.8768C415.877 11.807 415.557 11.7908 415.181 11.8148C414.72 11.8448 414.245 11.8634 413.776 11.882C413.677 11.8861 413.556 11.8769 413.457 11.8658C412.369 11.7566 412.369 11.7547 411.844 11.781C411.61 11.7932 411.368 11.7977 411.141 11.8155C410.758 11.8472 410.467 11.808 410.189 11.7479C410.097 11.7291 409.989 11.6932 409.897 11.6953C409.429 11.7063 408.968 11.7248 408.506 11.7434C408.152 11.7578 407.797 11.7665 407.456 11.7942C406.889 11.8398 406.611 11.7167 406.219 11.6606C405.637 11.6872 405.048 11.7061 404.467 11.7422C404.197 11.7583 404.02 11.7531 403.813 11.7079C403.55 11.6515 403.307 11.5874 402.882 11.6173C402.315 11.6572 401.718 11.6723 401.137 11.6969C400.745 11.639 400.46 11.5197 399.899 11.5652C399.559 11.593 399.197 11.5998 398.849 11.6161C398.381 11.6385 397.913 11.659 397.445 11.6833C396.941 11.7077 396.948 11.7019 396.173 11.5917C395.724 11.5263 395.264 11.6021 394.81 11.6149C394.455 11.6255 394.279 11.7138 394.366 11.826C394.453 11.9383 394.262 12.0266 393.936 12.0429C393.12 12.0815 392.297 12.1222 391.481 12.157C391.382 12.1612 391.261 12.1482 391.169 12.1351C390.294 12.0176 390.294 12.0195 389.904 12.0378C389.322 12.0682 388.726 12.0852 388.151 12.1232C387.754 12.1492 387.462 12.11 387.206 12.046C387.006 11.997 386.822 11.9861 386.566 11.9983C383.757 12.1345 380.948 12.2613 378.145 12.4013C377.727 12.4216 377.485 12.3671 377.2 12.3164C377.1 12.2996 377.007 12.2636 376.908 12.2639C376.674 12.2646 376.44 12.2825 376.206 12.2946C375.156 12.3436 374.106 12.402 373.049 12.4395C372.602 12.4561 372.482 12.5442 372.292 12.6173C372.143 12.673 371.974 12.6964 371.711 12.7049C371.456 12.7133 371.271 12.7043 371.071 12.6553C370.815 12.5912 370.523 12.552 370.126 12.5799C369.665 12.6118 369.197 12.6266 368.721 12.649C368.48 12.6593 368.296 12.6942 368.219 12.7631C368.205 12.7745 368.354 12.8027 368.44 12.8196C368.725 12.876 368.996 12.9419 369.316 12.981C369.643 13.0201 369.997 12.9732 370.338 12.9607C370.458 12.9566 370.572 12.9448 370.685 12.9463C370.792 12.9479 370.92 12.9571 370.998 12.974C371.369 13.0587 371.76 13.1167 372.27 13.0636C372.711 13.0871 372.94 13.2447 373.501 13.2011C373.841 13.1752 374.196 13.1627 374.551 13.1521C374.643 13.1499 374.743 13.184 374.842 13.2008C375.127 13.2477 375.355 13.3233 375.781 13.2896C376.235 13.2539 376.717 13.2467 377.178 13.2186C377.434 13.2026 377.618 13.2154 377.818 13.2644C378.074 13.3265 378.366 13.3733 378.763 13.3416C379.104 13.3139 379.466 13.3071 379.813 13.2888C380.267 13.2665 380.267 13.2684 381.078 13.3842C381.171 13.3973 381.292 13.4122 381.391 13.4081C381.98 13.3834 382.562 13.353 383.15 13.3284C383.377 13.3182 383.598 13.3423 383.755 13.3971C383.819 13.4198 383.798 13.458 383.82 13.4904C382.65 13.5454 381.479 13.5928 380.316 13.6593C379.876 13.6854 379.676 13.6078 379.384 13.5648C379.285 13.5498 379.178 13.5177 379.085 13.5218C378.262 13.5567 377.447 13.5935 376.631 13.6379C376.376 13.652 376.184 13.645 375.991 13.5903C375.499 13.4449 374.904 13.5268 374.351 13.5494C373.925 13.566 373.791 13.6255 373.843 13.7512C373.909 13.8998 374.165 13.9448 374.818 13.9161C375.052 13.9059 375.286 13.8918 375.52 13.8835C375.747 13.8752 375.953 13.8993 376.139 13.9503C376.317 14.0012 376.53 14.0273 376.75 14.019C377.219 14.0004 377.694 13.9818 378.148 13.9519C378.524 13.9279 378.836 13.946 379.1 14.0158C379.392 14.0931 379.733 14.0749 380.073 14.0567C380.868 14.0161 380.875 14.018 381.373 14.1119C381.473 14.1307 381.573 14.1666 381.665 14.1644C382.481 14.1334 383.304 14.1061 384.106 14.0579C384.524 14.0338 384.767 14.094 385.044 14.1428C385.144 14.1597 385.244 14.1975 385.336 14.1934C385.925 14.1707 386.514 14.1479 387.088 14.1099C387.358 14.092 387.521 14.1029 387.742 14.148C388.269 14.259 388.283 14.2551 389.028 14.2166C389.255 14.2045 389.503 14.1828 389.716 14.1974C389.93 14.212 390.101 14.2668 390.3 14.3005C390.393 14.3155 390.507 14.3361 390.606 14.332C391.074 14.3153 391.542 14.2911 392.011 14.2687C392.45 14.2464 392.45 14.2483 393.276 14.364C393.61 14.4126 393.957 14.3696 394.291 14.3533C394.653 14.3351 394.979 14.3341 395.257 14.4077C395.535 14.4812 395.869 14.4764 396.224 14.46C396.557 14.4438 396.897 14.4008 397.239 14.4513C398.021 14.5672 398.021 14.5691 398.504 14.5447C399.206 14.5102 399.901 14.4776 400.611 14.4468C400.703 14.4427 400.824 14.4653 400.916 14.4803C401.116 14.514 401.287 14.5707 401.5 14.5834C401.713 14.598 401.961 14.5744 402.188 14.5622C402.919 14.5238 402.969 14.5103 403.46 14.6347C403.874 14.7364 404.383 14.5861 404.768 14.7032C404.989 14.7693 405.288 14.8218 405.699 14.7882C406.039 14.7604 406.394 14.7517 406.749 14.7354C407.309 14.7089 407.309 14.7109 408.021 14.8231C408.114 14.8381 408.234 14.8568 408.327 14.8527C408.795 14.8361 409.271 14.8213 409.724 14.7856C410.256 14.7439 410.598 14.8154 410.997 14.8847C411.31 14.9391 411.678 14.8922 412.012 14.8721C412.373 14.852 412.7 14.8567 412.971 14.9303C413.256 15.0057 413.59 14.9952 413.944 14.9788C414.278 14.9645 414.618 14.9196 414.959 14.972C415.692 15.088 415.692 15.088 416.224 15.0635C416.693 15.0411 417.161 15.0168 417.629 15.0002C417.721 14.9961 417.835 15.0205 417.928 15.0374C418.127 15.0711 418.298 15.1278 418.512 15.1406C418.725 15.1533 418.973 15.1277 419.207 15.1175C419.441 15.1072 419.689 15.0779 419.902 15.0887C420.115 15.0995 420.315 15.1466 420.486 15.188C420.685 15.237 420.87 15.2422 421.14 15.2223C421.48 15.1965 421.835 15.1897 422.182 15.1753C422.375 15.2109 422.574 15.2466 422.759 15.2861C422.952 15.3274 423.157 15.323 423.42 15.3089C424.292 15.2605 424.299 15.2662 425.032 15.3822C425.367 15.4346 425.714 15.3897 426.048 15.3753C426.402 15.359 426.736 15.3504 427.014 15.4258C427.285 15.4975 427.619 15.506 427.973 15.482C428.2 15.4661 428.441 15.4559 428.676 15.4494C428.782 15.4472 428.91 15.4544 428.988 15.4695C429.366 15.5484 429.736 15.6198 430.253 15.5667C430.708 15.5806 430.937 15.7363 431.484 15.7042C431.945 15.6761 432.427 15.6689 432.881 15.6332C433.299 15.6014 433.599 15.6539 433.812 15.72C434.198 15.8371 434.735 15.6753 435.12 15.7905C435.341 15.8566 435.626 15.9091 436.051 15.8792C436.519 15.8473 436.669 15.8869 436.806 16.0066C436.885 16.0751 436.872 16.1304 436.73 16.1842C436.589 16.24 436.433 16.2309 436.205 16.1687C435.941 16.0989 435.628 16.0865 435.252 16.1029C434.883 16.1192 434.655 16.0208 434.349 15.9835C434.043 15.9444 433.682 16.0122 433.362 15.9617C432.608 15.8438 432.608 15.8438 432.097 15.8683C431.749 15.8846 431.387 15.8933 431.047 15.921C430.643 15.9546 430.379 15.8963 430.101 15.8437C430.002 15.825 429.902 15.789 429.817 15.7912C429.001 15.8223 428.178 15.8514 427.369 15.9016C426.943 15.9276 426.715 15.8597 426.431 15.8128C426.331 15.796 426.224 15.762 426.139 15.766C425.436 15.7949 424.741 15.8313 424.039 15.8658C423.905 15.9177 423.756 15.9677 423.629 16.0234C423.495 16.0811 423.311 16.1064 423.042 16.1053C422.594 16.1067 422.155 16.1881 421.707 16.0884C421.244 15.9868 421.208 15.9926 420.761 16.0187C420.194 16.0529 419.59 16.0471 419.059 16.123C418.967 16.1367 418.868 16.1732 418.869 16.1999C418.862 16.2171 419.011 16.2414 419.104 16.2564C419.417 16.3012 419.778 16.2334 420.091 16.2801C420.297 16.31 420.468 16.3553 420.675 16.3871C420.76 16.4002 420.888 16.3979 421.001 16.3956C421.122 16.3934 421.235 16.3797 421.349 16.3813C421.455 16.3828 421.569 16.3939 421.655 16.4108C422.046 16.4821 422.459 16.5477 422.808 16.6324C423.15 16.7153 423.469 16.6571 423.809 16.6523C425.175 16.7817 425.175 16.7836 426.09 16.7389C426.317 16.7287 426.551 16.7165 426.785 16.7177C426.885 16.7174 426.977 16.7515 427.077 16.7702C427.362 16.8266 427.632 16.8773 428.03 16.8456C428.37 16.8178 428.732 16.811 429.079 16.7928C429.548 16.7704 429.548 16.7704 430.345 16.8882C430.544 16.9181 430.757 16.9136 431.012 16.8976C431.232 16.8836 431.459 16.9115 431.616 16.9664C431.681 16.9891 431.66 17.0273 431.682 17.0596C430.979 17.0923 430.27 17.1154 429.589 17.1632C429.149 17.1931 428.949 17.1117 428.658 17.0687C428.558 17.0538 428.451 17.0217 428.359 17.0258C427.664 17.0565 426.968 17.091 426.273 17.1312C426.188 17.1353 426.082 17.1795 426.076 17.2062C426.062 17.2558 426.24 17.303 426.496 17.3003C426.837 17.2973 427.17 17.2639 427.476 17.3412C427.733 17.4091 428.053 17.4387 428.428 17.407C428.655 17.3892 428.897 17.3884 429.124 17.3725C429.727 17.3249 430.273 17.3328 430.729 17.4611C431.078 17.4944 431.418 17.4609 431.752 17.4428C432 17.4287 432.241 17.4146 432.419 17.4503C432.796 17.5254 433.167 17.6006 433.684 17.5476C434.246 17.5993 434.674 17.7105 435.143 17.8006C435.364 17.8438 435.535 17.8681 435.79 17.8388C435.896 17.827 436.024 17.8266 436.138 17.8205C436.372 17.8103 436.62 17.7809 436.833 17.7917C437.046 17.8044 437.224 17.8592 437.417 17.893C437.509 17.9099 437.616 17.9381 437.708 17.9359C438.063 17.9253 438.411 17.9052 438.758 17.8889C439.106 17.8745 439.454 17.8601 439.801 17.8457C440.093 17.8944 440.392 17.9431 440.684 17.9918C441.152 17.9695 441.62 17.9471 442.081 17.9266C442.599 17.9021 442.599 17.9041 443.346 18.0201C443.681 18.0725 444.035 18.037 444.355 18.0113C444.886 17.9696 445.242 18.0411 445.62 18.1162C445.698 18.1312 445.84 18.1403 445.932 18.1324C446.301 18.1046 446.621 18.1246 446.892 18.1944C447.084 18.2434 447.276 18.2657 447.51 18.2555C448.326 18.2168 449.142 18.1762 449.958 18.1413C450.057 18.1372 450.171 18.154 450.263 18.169C450.989 18.2831 450.997 18.2888 451.529 18.2567C452.004 18.2286 452.444 18.2158 452.822 18.3196C452.9 18.3422 453.021 18.3743 453.106 18.3721C453.688 18.3513 454.277 18.3285 454.852 18.2944C455.114 18.2783 455.299 18.2835 455.505 18.3267C455.769 18.3813 456.004 18.4473 456.437 18.4212C457.635 18.347 457.643 18.3584 459.065 18.4857C459.164 18.495 459.299 18.4793 459.412 18.4714C459.653 18.4516 459.831 18.4777 460.045 18.521C460.522 18.6187 460.536 18.6129 460.99 18.5906C461.338 18.5724 461.7 18.5675 462.04 18.5378C462.565 18.4943 462.914 18.5676 463.305 18.637C463.618 18.6914 463.98 18.6445 464.313 18.6263C464.675 18.6062 465.002 18.6109 465.272 18.6826C465.458 18.7316 465.657 18.7577 465.891 18.7475C466.707 18.7107 467.523 18.6701 468.339 18.6333C468.438 18.6292 468.559 18.6441 468.651 18.6571C469.462 18.7729 469.462 18.7787 470.264 18.7324C470.519 18.7183 470.732 18.7138 470.924 18.7533C471.11 18.7909 471.309 18.8265 471.501 18.8622C471.849 18.8478 472.204 18.8429 472.544 18.819C472.807 18.801 472.991 18.8081 473.198 18.8475C473.468 18.8982 473.697 18.9871 474.122 18.942C474.342 18.9203 474.597 18.9253 474.817 18.9056C475.08 18.88 475.257 18.8947 475.464 18.9437C475.72 19.002 475.984 19.0623 476.395 19.0305C476.849 18.9948 477.332 18.9876 477.793 18.9595C478.048 18.9435 478.226 18.9582 478.432 19.0072C478.689 19.0694 478.981 19.1086 479.378 19.0826C480.186 19.0325 480.194 19.042 480.983 19.1597C481.183 19.1896 481.396 19.1852 481.651 19.1692C481.871 19.1552 482.098 19.1831 482.255 19.2379C482.405 19.2985 482.392 19.3367 482.406 19.3691ZM418.884 2.35905C418.65 2.36929 418.416 2.38143 418.073 2.21654C418.051 2.188 418.065 2.15363 418.015 2.12899C417.9 2.07784 417.722 2.04214 417.509 2.03706C417.126 2.03058 416.665 2.09681 416.673 2.14637C416.681 2.18831 416.802 2.22417 417.037 2.25779C417.137 2.27085 417.215 2.2935 417.308 2.30848C417.578 2.35153 417.792 2.43672 418.182 2.39168C418.109 2.27365 418.146 2.33267 418.182 2.39168C418.148 2.46426 418.255 2.51544 418.511 2.53565C418.582 2.54115 418.688 2.53701 418.745 2.52539C418.964 2.48277 418.999 2.42547 418.833 2.27529C418.805 2.30017 418.827 2.34396 418.891 2.35521C418.956 2.36646 419.112 2.35646 419.189 2.34288C419.388 2.30604 419.486 2.25806 419.436 2.21816C419.407 2.19727 419.272 2.17097 419.187 2.17123C419.038 2.17168 418.904 2.21404 418.884 2.35905ZM476.625 24.3033C476.107 24.3411 475.511 24.3296 474.994 24.4055C474.902 24.4191 474.81 24.4537 474.803 24.4805C474.796 24.4977 474.939 24.522 475.024 24.5351C475.216 24.5651 475.429 24.5549 475.677 24.5446C476.053 24.5301 476.275 24.6172 476.566 24.6602C476.659 24.6732 476.78 24.6824 476.879 24.6783C477.454 24.6537 478.021 24.6272 478.596 24.5987C478.695 24.5927 478.801 24.579 478.886 24.5616C479.17 24.5055 479.141 24.4693 478.863 24.4282C478.557 24.3833 478.315 24.3078 478.002 24.2725C477.554 24.2223 477.1 24.2924 476.625 24.3033ZM436.331 25.817C435.983 25.8333 435.642 25.8496 435.295 25.8659C435.181 25.8719 435.061 25.8742 434.954 25.8822C434.735 25.8962 434.572 25.9367 434.466 26C434.63 26.0491 434.83 26.0771 435.05 26.0707C435.397 26.0582 435.738 26.0324 436.085 26.0256C436.462 26.0169 436.683 26.102 436.975 26.145C437.067 26.1581 437.181 26.1596 437.287 26.1612C437.813 26.1673 438.131 26.0671 438.029 25.9282C437.957 25.8197 437.686 25.7557 437.359 25.77C437.019 25.7844 436.671 25.8007 436.331 25.817ZM479.01 21.4772C479.094 21.4446 479.186 21.4214 479.229 21.3927C479.355 21.295 479.304 21.2227 479.068 21.1471C478.783 21.0545 478.436 21.1185 478.117 21.129C478.039 21.1311 477.954 21.1715 477.912 21.1964C477.884 21.2136 477.885 21.2499 477.927 21.2593C478.276 21.3345 478.647 21.404 479.01 21.4772ZM417.34 16.029C416.999 16.0453 416.651 16.0578 416.311 16.0798C416.226 16.0858 416.148 16.1223 416.099 16.1472C416.007 16.1933 416.108 16.2559 416.399 16.2607C416.733 16.2674 417.08 16.2339 417.428 16.2176C417.867 16.1972 418.129 16.1258 417.965 16.0653C417.808 16.0066 417.595 15.9959 417.34 16.029ZM43.5916 13.0791C43.8186 13.0689 44.0527 13.0605 44.2797 13.0465C44.4924 13.0325 44.6552 12.9901 44.7607 12.9268C44.5825 12.8777 44.3833 12.8516 44.1633 12.858C43.8156 12.8705 43.4751 12.8868 43.1346 12.9069C42.9218 12.919 42.7167 12.9616 42.668 13.0266C42.619 13.0763 43.095 13.1035 43.5916 13.0791ZM387.251 11.7502C387.344 11.7671 387.436 11.8011 387.529 11.8009C387.756 11.8002 387.99 11.788 388.203 11.7683C388.295 11.7604 388.365 11.7259 388.407 11.699C388.436 11.6818 388.428 11.6513 388.385 11.6362C388.178 11.5452 387.355 11.5801 387.222 11.6854C387.208 11.7046 387.244 11.7292 387.251 11.7502ZM364.694 1.37412C364.716 1.40457 364.724 1.43506 364.752 1.46549C364.81 1.52253 364.967 1.56403 365.194 1.59195C365.371 1.54374 365.463 1.49007 365.455 1.43287C365.447 1.40238 365.425 1.37191 365.396 1.34148C365.339 1.28444 365.182 1.24297 364.955 1.21504C364.778 1.26135 364.693 1.315 364.694 1.37412ZM495.485 25.9707C495.421 25.9956 495.358 26.0206 495.287 26.0437C495.48 26.0985 495.658 26.1151 495.792 26.0842C495.877 26.0648 495.926 26.0361 495.99 26.0111C495.797 25.9564 495.626 25.9416 495.485 25.9707ZM491.073 26.2433C491.166 26.2602 491.251 26.2829 491.351 26.294C491.515 26.3126 491.663 26.2797 491.776 26.2107C491.683 26.1938 491.598 26.1712 491.498 26.16C491.334 26.1415 491.186 26.1743 491.073 26.2433ZM493.865 25.8859C493.816 25.9318 493.916 25.9697 494.179 26.0013C494.243 25.9763 494.327 25.9532 494.37 25.9263C494.44 25.8823 494.319 25.8426 494.063 25.8128C493.992 25.8359 493.928 25.8609 493.865 25.8859ZM478.848 23.8751C478.799 23.9211 478.898 23.9589 479.162 23.9905C479.225 23.9655 479.31 23.9424 479.352 23.9156C479.422 23.8715 479.301 23.8318 479.045 23.8021C478.975 23.8252 478.911 23.8502 478.848 23.8751ZM458.225 10.4417C458.161 10.4666 458.098 10.4916 458.027 10.5147C458.219 10.5695 458.397 10.5861 458.532 10.5552C458.617 10.5358 458.666 10.5071 458.729 10.4821C458.537 10.4274 458.366 10.4126 458.225 10.4417ZM438.557 3.34113C438.728 3.35397 438.87 3.32685 438.989 3.25592C438.897 3.23904 438.811 3.2164 438.712 3.20526C438.548 3.18668 438.4 3.21956 438.287 3.28856C438.38 3.30735 438.472 3.32422 438.557 3.34113ZM428.165 2.92424C428.101 2.94922 428.038 2.97421 427.967 2.99731C428.16 3.05204 428.337 3.06866 428.472 3.03774C428.557 3.01842 428.606 2.98966 428.669 2.96467C428.477 2.90994 428.306 2.89711 428.165 2.92424ZM357.709 1.39325C357.645 1.41824 357.582 1.44322 357.511 1.46632C357.704 1.52105 357.881 1.53768 358.016 1.50676C358.101 1.48743 358.15 1.45867 358.213 1.43368C358.021 1.37895 357.85 1.36612 357.709 1.39325ZM7.26066 17.9661C7.16811 17.9493 7.07565 17.9324 6.99017 17.9136C6.78508 17.9657 6.72194 18.0135 6.83608 18.0494C6.90742 18.0721 7.01402 18.0851 7.10657 18.102C7.31876 18.0499 7.36773 18.004 7.26066 17.9661Z" fill="#FFE492"/>
<path d="M48.2856 10.9224C47.4698 10.9611 46.6612 11.0093 45.8452 11.0346C45.4123 11.0474 45.2575 11.1298 45.0812 11.2066C44.9402 11.2681 44.7771 11.2876 44.5146 11.2999C42.3012 11.4 40.0948 11.5058 37.8885 11.6097C37.6112 11.5857 37.4757 11.5461 37.5389 11.4982C37.5739 11.4695 37.6586 11.4292 37.7437 11.4251C39.2547 11.35 40.7585 11.273 42.2769 11.2132C42.7097 11.1966 42.8292 11.1123 43.0482 11.043C43.1188 11.0199 43.1751 10.9854 43.2672 10.9718C43.3593 10.9563 43.4942 10.9578 43.6148 10.9536C46.0552 10.8376 48.4958 10.7234 50.9362 10.6074C51.2134 10.6313 51.3489 10.671 51.2857 10.7188C51.2507 10.7475 51.1661 10.7879 51.081 10.7919C50.1445 10.8348 49.215 10.8776 48.2856 10.9224Z" fill="#FFE492"/>
<path d="M495.577 20.0618C495.208 20.0858 494.74 20.1196 494.355 20.0101C494.17 19.9573 493.97 19.9408 493.729 19.9529C493.382 19.973 493.027 19.9894 492.672 20.0019C492.58 20.0041 492.459 19.9834 492.366 19.9665C492.167 19.9328 491.996 19.8761 491.783 19.8615C491.569 19.8469 491.314 19.8896 491.094 19.8808C490.803 19.8683 490.682 19.8172 490.759 19.7693C490.801 19.7424 490.886 19.704 490.978 19.698C492.29 19.6235 492.297 19.6235 492.667 19.691C492.952 19.7436 493.216 19.8019 493.62 19.7683C493.96 19.7405 494.322 19.7337 494.67 19.7155C495.152 19.6912 495.152 19.6931 495.935 19.8109C496.134 19.8408 496.347 19.8382 496.602 19.8203C496.822 19.8063 497.036 19.8362 497.214 19.8871C497.102 19.9523 496.939 19.9947 496.719 20.0068C496.364 20.027 496.017 20.0414 495.577 20.0618Z" fill="#FFE492"/>
<path d="M482.503 19.5052C483.397 19.4625 484.298 19.4254 485.192 19.3769C485.561 19.3567 485.852 19.3768 486.108 19.4409C486.386 19.5107 486.699 19.504 487.039 19.4896C487.252 19.4814 487.458 19.5113 487.601 19.5643C487.658 19.5851 487.645 19.6233 487.666 19.6538C486.886 19.6905 486.099 19.7291 485.311 19.762C485.219 19.7661 485.105 19.7473 485.02 19.7323C484.827 19.7005 484.663 19.6437 484.457 19.6329C484.017 19.6075 483.577 19.6603 483.13 19.6712C482.917 19.6757 482.711 19.6477 482.568 19.5966C482.511 19.572 482.525 19.5357 482.503 19.5052Z" fill="#FFE492"/>
<path d="M158.958 3.76881C159.887 3.72405 160.817 3.68122 161.746 3.63647C162.023 3.66233 162.152 3.70008 162.095 3.74793C162.06 3.77664 161.976 3.81695 161.891 3.82102C160.032 3.91244 158.173 4.00003 156.322 4.08761C156.045 4.06175 155.916 4.024 155.972 3.97615C156.007 3.94744 156.092 3.90713 156.177 3.90306C157.099 3.85642 158.029 3.81356 158.958 3.76881Z" fill="#FFE492"/>
<path d="M15.6802 14.8012C15.2616 14.8063 14.8228 14.8784 14.3536 14.8263C14.2612 14.817 14.133 14.7868 14.1398 14.7695C14.1536 14.7408 14.2382 14.7041 14.3303 14.6924C14.734 14.6433 15.2378 14.636 15.4416 14.5015C15.5399 14.4323 15.724 14.4088 15.9722 14.3946C16.2345 14.3785 16.419 14.3837 16.6254 14.4232C16.8959 14.4741 17.1244 14.569 17.5495 14.518C17.5712 14.5486 17.6213 14.5828 17.6004 14.6116C17.5796 14.6404 17.4879 14.6674 17.4031 14.6888C17.3253 14.7081 17.219 14.7257 17.1198 14.7317C16.6518 14.7561 16.1837 14.7767 15.6802 14.8012Z" fill="#FFE492"/>
<path d="M385.055 13.5117C385.402 13.4954 385.764 13.4866 386.105 13.4589C386.374 13.4371 386.545 13.4499 386.758 13.4951C387.121 13.5742 387.143 13.5665 388.03 13.5753C388.13 13.5769 388.251 13.6051 388.308 13.6298C388.344 13.643 388.294 13.6795 388.252 13.6987C388.189 13.7237 388.097 13.7564 388.012 13.7567C387.451 13.7641 386.885 13.8785 386.336 13.7503C386.058 13.6862 385.753 13.6566 385.377 13.6864C385.15 13.7042 384.909 13.7126 384.675 13.7209C384.448 13.7293 384.213 13.709 384.07 13.6521C383.863 13.5688 383.983 13.5359 384.353 13.5406C384.587 13.5437 384.821 13.522 385.055 13.5117Z" fill="#FFE492"/>
<path d="M513.885 26.4452C514.332 26.4247 514.778 26.4003 515.232 26.3837C515.324 26.3795 515.438 26.4003 515.524 26.4134C515.865 26.4698 515.817 26.5675 515.833 26.6535C515.841 26.7435 515.054 26.8186 514.72 26.7584C514.35 26.6906 514.015 26.6132 513.505 26.6568C513.307 26.6728 513.072 26.639 512.943 26.5839C512.75 26.5041 512.856 26.4713 513.218 26.4759C513.431 26.4791 513.658 26.4573 513.885 26.4452Z" fill="#FFE492"/>
<path d="M288.176 0.834831C288.637 0.812422 289.098 0.778569 289.559 0.77526C289.829 0.772533 289.965 0.835144 289.902 0.881179C289.867 0.909937 289.782 0.950308 289.697 0.954386C288.775 1.00302 287.853 1.04403 286.931 1.08885C286.66 1.06292 286.525 1.02323 286.588 0.977193C286.623 0.948434 286.708 0.909974 286.793 0.903985C287.254 0.875846 287.715 0.85724 288.176 0.834831Z" fill="#FFE492"/>
<path d="M504.984 20.21C505.431 20.1895 505.885 20.1595 506.332 20.1486C506.566 20.144 506.751 20.1874 506.78 20.237C506.795 20.2599 506.682 20.3003 506.59 20.3102C505.952 20.3771 505.263 20.3868 504.597 20.4213C504.384 20.4315 504.156 20.4016 504.028 20.3485C503.835 20.267 503.941 20.2361 504.303 20.2407C504.53 20.2419 504.757 20.2202 504.984 20.21Z" fill="#FFE492"/>
<path d="M396.795 13.7416C397.022 13.7313 397.255 13.7057 397.476 13.7127C397.71 13.7216 397.86 13.7767 397.931 13.832C398.01 13.895 398.004 13.9544 397.934 14.0082C397.822 14.1005 397.708 14.097 397.445 14.0365C397.039 13.942 397.011 13.9536 396.209 13.9599C396.117 13.9602 396.003 13.9318 395.932 13.9071C395.825 13.8691 395.881 13.8096 396.129 13.7743C396.313 13.7488 396.568 13.7519 396.795 13.7416Z" fill="#FFE492"/>
<path d="M488.335 19.6205C488.668 19.6042 489.001 19.5783 489.335 19.5773C489.569 19.5746 489.754 19.6181 489.776 19.6658C489.784 19.6887 489.678 19.7273 489.593 19.739C489.189 19.7919 488.735 19.7971 488.295 19.8156C488.089 19.8239 487.862 19.794 487.733 19.7408C487.54 19.6611 487.653 19.6244 488.001 19.6349C488.108 19.6384 488.221 19.6265 488.335 19.6205Z" fill="#FFE492"/>
<path d="M435.778 17.3897C435.281 17.4142 434.812 17.387 434.847 17.3371C434.896 17.272 435.101 17.2293 435.313 17.2172C435.654 17.197 435.994 17.1807 436.342 17.1682C436.562 17.1598 436.761 17.1879 436.939 17.2371C436.834 17.2986 436.671 17.343 436.458 17.3571C436.239 17.3711 436.005 17.3795 435.778 17.3897Z" fill="#FFE492"/>
<path d="M432.515 17.1527C432.848 17.1364 433.181 17.1105 433.515 17.1095C433.749 17.1069 433.934 17.1503 433.956 17.198C433.964 17.2209 433.858 17.2595 433.773 17.2712C433.369 17.3241 432.915 17.3293 432.475 17.3478C432.269 17.3561 432.042 17.3262 431.913 17.2731C431.72 17.1933 431.833 17.1567 432.181 17.1671C432.288 17.1706 432.401 17.1588 432.515 17.1527Z" fill="#FFE492"/>
<path d="M392.759 13.7362C393.093 13.7199 393.426 13.694 393.759 13.691C393.993 13.6884 394.179 13.7318 394.201 13.7796C394.208 13.8025 394.102 13.8392 394.017 13.8528C393.614 13.9057 393.159 13.9109 392.72 13.9294C392.514 13.9377 392.286 13.9078 392.158 13.8546C391.965 13.7749 392.078 13.7382 392.426 13.7486C392.532 13.7521 392.646 13.7403 392.759 13.7362Z" fill="#FFE492"/>
<path d="M390.891 13.6277C391.246 13.6113 391.359 13.6014 391.473 13.6011C391.686 13.6004 391.906 13.6227 392.035 13.6778C392.228 13.7575 392.115 13.7808 391.767 13.7857C391.32 13.7909 390.88 13.8324 390.433 13.8414C390.199 13.8459 390.014 13.8006 389.999 13.7528C389.992 13.7299 390.097 13.6894 390.182 13.6815C390.48 13.6519 390.806 13.6337 390.891 13.6277Z" fill="#FFE492"/>
<path d="M429.502 2.22334C429.275 2.2336 429.035 2.26112 428.822 2.25221C428.538 2.23968 428.423 2.18838 428.493 2.14033C428.536 2.11341 428.613 2.07491 428.698 2.06891C429.152 2.04074 429.613 2.0221 430.067 2.00158C430.337 2.02945 430.458 2.06926 430.388 2.11731C430.346 2.14423 430.268 2.18082 430.183 2.18873C429.963 2.20853 429.729 2.21308 429.502 2.22334Z" fill="#FFE492"/>
<path d="M153.865 4.00845C154.085 4.00586 154.284 4.03014 154.455 4.07748C154.349 4.13906 154.194 4.17973 153.981 4.19761C153.875 4.20559 153.754 4.2117 153.641 4.21396C153.421 4.21846 153.222 4.19227 153.051 4.14493C153.156 4.08335 153.319 4.04265 153.524 4.0248C153.63 4.01681 153.751 4.01454 153.865 4.00845Z" fill="#FFE492"/>
<path d="M502.551 20.2077C502.543 20.1522 502.975 20.0877 503.365 20.0885C503.571 20.0898 503.784 20.1159 503.905 20.1672C504.091 20.2451 503.985 20.2761 503.637 20.2714C503.424 20.2682 503.198 20.3014 502.985 20.2964C502.744 20.2952 502.601 20.2535 502.551 20.2077Z" fill="#FFE492"/>
<path d="M398.85 13.9682C398.843 13.9472 398.807 13.9224 398.828 13.9032C398.961 13.7974 399.777 13.7623 399.991 13.8536C400.026 13.8708 400.041 13.8994 400.013 13.9168C399.971 13.9437 399.893 13.9784 399.808 13.9864C399.589 14.0062 399.362 14.0165 399.135 14.0191C399.036 14.0194 398.943 13.9871 398.85 13.9682Z" fill="#FFE492"/>
<path d="M18.2036 14.4874C17.367 14.5302 17.3527 14.5264 17.5003 14.4302C17.6338 14.3436 17.8813 14.2912 18.2432 14.2901C18.3496 14.2897 18.463 14.2856 18.5553 14.2929C18.6548 14.3022 18.7971 14.3209 18.8187 14.3438C18.862 14.3877 18.742 14.436 18.5296 14.4692C18.4376 14.4848 18.317 14.4813 18.2036 14.4874Z" fill="#FFE492"/>
<path d="M164.353 3.71128C164.106 3.74461 163.893 3.73378 163.736 3.67295C163.579 3.61213 163.826 3.53857 164.258 3.52C164.372 3.51582 164.492 3.50014 164.599 3.50748C164.705 3.5129 164.812 3.53554 164.876 3.55833C164.99 3.5963 164.92 3.64825 164.694 3.693C164.602 3.71053 164.467 3.7071 164.353 3.71128Z" fill="#FFE492"/>
<path d="M501.071 20.0678C501.134 20.0427 501.198 20.0176 501.268 19.9943C501.53 20.0261 501.644 20.0641 501.574 20.1085C501.532 20.1355 501.447 20.1588 501.384 20.1839C501.122 20.1521 501.015 20.1121 501.071 20.0678Z" fill="#FFE492"/>
<path d="M29.6435 36.3428C29.6432 36.3198 29.7417 36.2831 29.8194 36.2752C29.9678 36.2613 30.1521 36.2876 30.2803 36.3409C30.4584 36.417 30.353 36.4576 30.0271 36.4375C29.8005 36.4229 29.6442 36.385 29.6435 36.3428Z" fill="#FFE492"/>
<path d="M401.721 12.1728C401.813 12.1897 401.905 12.2067 401.991 12.2256C401.871 12.2969 401.723 12.328 401.567 12.3093C401.468 12.2981 401.383 12.2754 401.29 12.2584C401.41 12.1871 401.551 12.1599 401.721 12.1728Z" fill="#FFE492"/>
<path d="M399.266 12.0923C399.407 12.0631 399.577 12.078 399.776 12.1329C399.713 12.158 399.657 12.187 399.579 12.2064C399.445 12.2374 399.268 12.2226 399.076 12.1657C399.133 12.1426 399.196 12.1174 399.266 12.0923Z" fill="#FFE492"/>
<path d="M397.383 12.1813C397.476 12.1982 397.568 12.2152 397.653 12.2341C397.534 12.3054 397.393 12.3365 397.23 12.3178C397.13 12.3066 397.045 12.2839 396.953 12.2669C397.072 12.1956 397.213 12.1664 397.383 12.1813Z" fill="#FFE492"/>
<path d="M395.993 12.0824C396.1 12.1204 396.044 12.1666 395.84 12.2191C395.748 12.2021 395.641 12.189 395.57 12.1662C395.457 12.1301 395.513 12.0819 395.724 12.0295C395.809 12.0484 395.901 12.0654 395.993 12.0824Z" fill="#FFE492"/>
</svg>
